%TF.GenerationSoftware,KiCad,Pcbnew,8.0.5*%
%TF.CreationDate,2024-09-26T13:51:17+09:30*%
%TF.ProjectId,TXRX_relay_board,54585258-5f72-4656-9c61-795f626f6172,1.2*%
%TF.SameCoordinates,Original*%
%TF.FileFunction,Profile,NP*%
%FSLAX46Y46*%
G04 Gerber Fmt 4.6, Leading zero omitted, Abs format (unit mm)*
G04 Created by KiCad (PCBNEW 8.0.5) date 2024-09-26 13:51:17*
%MOMM*%
%LPD*%
G01*
G04 APERTURE LIST*
%TA.AperFunction,Profile*%
%ADD10C,0.100000*%
%TD*%
%TA.AperFunction,Profile*%
%ADD11C,0.120000*%
%TD*%
%ADD12C,0.350000*%
G04 APERTURE END LIST*
D10*
X165000000Y-134000000D02*
G75*
G02*
X159000000Y-140000000I-6000000J0D01*
G01*
X65000000Y-64000000D02*
X65000000Y-134000000D01*
X65000000Y-64000000D02*
G75*
G02*
X71000000Y-58000000I6000000J0D01*
G01*
X159000000Y-58000000D02*
X71000000Y-58000000D01*
X159000000Y-58000000D02*
G75*
G02*
X165000000Y-64000000I0J-6000000D01*
G01*
X165000000Y-134000000D02*
X165000000Y-64000000D01*
X71000000Y-140000000D02*
X159000000Y-140000000D01*
X71000000Y-140000000D02*
G75*
G02*
X65000000Y-134000000I0J6000000D01*
G01*
D11*
%TO.C,L2*%
X108000000Y-108250000D02*
X108000000Y-97250000D01*
X109250000Y-96000000D02*
X131250000Y-96000000D01*
X131250000Y-109500000D02*
X109250000Y-109500000D01*
X132500000Y-97250000D02*
X132500000Y-108250000D01*
X108000000Y-97250000D02*
G75*
G02*
X109250000Y-96000000I1250002J-2D01*
G01*
X109250000Y-109500000D02*
G75*
G02*
X108000000Y-108250000I2J1250002D01*
G01*
X131250000Y-96000000D02*
G75*
G02*
X132500000Y-97250000I0J-1250000D01*
G01*
X132500000Y-108250000D02*
G75*
G02*
X131250000Y-109500000I-1250000J0D01*
G01*
%TO.C,L1*%
X86000000Y-106500000D02*
X86000000Y-84500000D01*
X87250000Y-83250000D02*
X98250000Y-83250000D01*
X98250000Y-107750000D02*
X87250000Y-107750000D01*
X99500000Y-84500000D02*
X99500000Y-106500000D01*
X86000000Y-84500000D02*
G75*
G02*
X87250000Y-83250000I1250002J-2D01*
G01*
X87250000Y-107750000D02*
G75*
G02*
X86000000Y-106500000I0J1250000D01*
G01*
X98250000Y-83250000D02*
G75*
G02*
X99500000Y-84500000I-2J-1250002D01*
G01*
X99500000Y-106500000D02*
G75*
G02*
X98250000Y-107750000I-1250000J0D01*
G01*
%TD*%
D12*
X120250000Y-82622800D03*
X112750000Y-82622800D03*
X120250000Y-77582800D03*
X112750000Y-77582800D03*
X120250000Y-87662800D03*
X112750000Y-87662800D03*
X120250000Y-62322800D03*
X112750000Y-62322800D03*
X149000000Y-82590000D03*
X141500000Y-82590000D03*
X149000000Y-77550000D03*
X141500000Y-77550000D03*
X149000000Y-87630000D03*
X141500000Y-87630000D03*
X141500000Y-62290000D03*
X149000000Y-62290000D03*
X73152000Y-81026000D03*
X73152000Y-75946000D03*
X130490808Y-132232500D03*
X133030808Y-129692500D03*
X127950808Y-129692500D03*
X133030808Y-134772500D03*
X127950808Y-134772500D03*
X154300000Y-96000000D03*
X70600000Y-121850000D03*
X70600000Y-119350000D03*
X70600000Y-116850000D03*
X70600000Y-114350000D03*
X70600000Y-111850000D03*
X70600000Y-109350000D03*
X70600000Y-106850000D03*
X70600000Y-104350000D03*
X101727000Y-76200000D03*
X99187000Y-73660000D03*
X99187000Y-78740000D03*
X104267000Y-73660000D03*
X104267000Y-78740000D03*
X83075000Y-130096000D03*
X80535000Y-130096000D03*
X77995000Y-130096000D03*
X112969808Y-132232500D03*
X110429808Y-129692500D03*
X110429808Y-134772500D03*
X115509808Y-129692500D03*
X115509808Y-134772500D03*
X154300000Y-82550000D03*
X120250000Y-93250000D03*
X120250000Y-112250000D03*
X110250000Y-111750000D03*
X110250000Y-93750000D03*
X102250000Y-95500000D03*
X83250000Y-95500000D03*
X83750000Y-85500000D03*
X101750000Y-85500000D03*
M02*
