M48
METRIC,TZ
T1C0.400
T2C0.600
T3C0.800
T4C0.800
T5C0.950
T6C1.300
T7C1.500
T8C1.500
T9C1.520
T10C1.700
T11C4.100
%
G90
G05
T1
X76850Y-74950
X78450Y-73550
X80350Y-72000
X80650Y-85450
X80650Y-87400
X84226Y-128473
X85496Y-127533
X105228Y-133493
X108000Y-72600
X117750Y-122550
X118299Y-125652
X119550Y-120450
X120200Y-122500
X121050Y-134300
X121100Y-120450
X121100Y-132900
X121700Y-135600
X121750Y-128200
X121750Y-129300
X122450Y-132900
X122450Y-134350
X123450Y-122500
X125050Y-125650
X140350Y-94050
X142200Y-94050
X144250Y-94050
X146450Y-94100
X148300Y-95500
X149350Y-97100
X150350Y-99150
T2
X66150Y-72250
X66200Y-74260
X66200Y-76970
X66200Y-79680
X66200Y-82390
X66200Y-85100
X66200Y-87810
X66200Y-90520
X66200Y-93230
X66200Y-95940
X66200Y-98650
X66200Y-101360
X66200Y-104070
X66200Y-106780
X66200Y-109490
X66200Y-112200
X66200Y-114910
X66200Y-117620
X66200Y-120330
X66200Y-123040
X66200Y-125750
X66872Y-68034
X68100Y-127550
X69750Y-129300
X70350Y-69450
X71100Y-95300
X71700Y-124100
X72390Y-115595
X74200Y-126850
X75300Y-95250
X75800Y-88050
X75800Y-89400
X75800Y-90800
X76050Y-107600
X76050Y-109250
X76100Y-111300
X76400Y-104700
X76900Y-137400
X76950Y-95250
X77000Y-100600
X77050Y-99100
X77064Y-116103
X77300Y-61500
X77495Y-125527
X78486Y-111328
X78740Y-122377
X78767Y-138850
X79200Y-94784
X79200Y-97500
X79300Y-60000
X80112Y-119456
X80696Y-125501
X80700Y-89384
X80700Y-92100
X80700Y-100247
X80700Y-102963
X80700Y-105678
X80700Y-108394
X80700Y-111110
X80721Y-112751
X80969Y-127000
X81288Y-58700
X81482Y-138850
X81840Y-70450
X81840Y-82000
X81991Y-122377
X82906Y-119456
X83541Y-112725
X84004Y-58700
X84198Y-138850
X84280Y-131910
X84556Y-70450
X84556Y-82000
X85150Y-107200
X85250Y-98300
X85300Y-102600
X85522Y-119456
X85547Y-112751
X86720Y-58700
X86914Y-138850
X87272Y-70450
X87272Y-82000
X88265Y-116053
X89435Y-58700
X89629Y-138850
X89865Y-120320
X89865Y-121900
X89900Y-127950
X89987Y-70450
X89987Y-82000
X90039Y-126228
X90983Y-116002
X91000Y-109500
X91000Y-111650
X91084Y-113767
X91200Y-127950
X91500Y-129600
X92151Y-58700
X92345Y-138850
X92703Y-70450
X92703Y-82000
X94867Y-58700
X94996Y-118745
X95061Y-138850
X95419Y-70450
X95419Y-82000
X95450Y-79350
X95500Y-74600
X95500Y-76900
X95550Y-72400
X96250Y-111400
X96418Y-117018
X97400Y-120100
X97582Y-58700
X97600Y-124700
X97700Y-132700
X97776Y-138850
X97815Y-115265
X97841Y-113055
X97850Y-135100
X98134Y-70450
X98134Y-82000
X98340Y-126200
X99300Y-121000
X99550Y-131500
X99830Y-122940
X100150Y-98050
X100150Y-102450
X100200Y-107150
X100298Y-58700
X100492Y-138850
X100850Y-70450
X100850Y-82000
X101260Y-126170
X101650Y-110850
X101750Y-89200
X102000Y-121484
X102430Y-123340
X103014Y-58700
X103208Y-138850
X103250Y-64100
X103300Y-127700
X103566Y-70450
X103566Y-82000
X103800Y-120134
X104600Y-121884
X104700Y-65250
X104900Y-96856
X104900Y-99572
X104900Y-102287
X104900Y-105003
X104900Y-107719
X104900Y-110434
X104900Y-113150
X105330Y-123640
X105350Y-91000
X105580Y-126140
X105650Y-131600
X105729Y-58700
X105924Y-138850
X106050Y-118150
X106100Y-82000
X106400Y-120534
X107100Y-74500
X107500Y-116700
X107500Y-122184
X107750Y-83350
X107750Y-124684
X107750Y-127400
X108066Y-91000
X108445Y-58700
X108639Y-138850
X108650Y-118550
X108700Y-76100
X109100Y-115000
X109300Y-120834
X109450Y-84750
X109550Y-123334
X109550Y-126050
X110100Y-117100
X110450Y-66150
X110465Y-70750
X110781Y-91000
X111161Y-58700
X111355Y-138850
X111550Y-118850
X111675Y-72200
X111700Y-115400
X111790Y-85100
X111800Y-121350
X112600Y-80000
X113000Y-117400
X113180Y-70750
X113250Y-66150
X113250Y-119900
X113497Y-91000
X113500Y-93950
X113876Y-58700
X114169Y-138800
X114390Y-72200
X114506Y-85100
X114600Y-115700
X114800Y-80000
X114850Y-118200
X115896Y-70750
X116250Y-66150
X116592Y-58700
X116600Y-110850
X116600Y-113800
X116600Y-116550
X116700Y-80000
X116786Y-138850
X117106Y-72200
X117222Y-85100
X118500Y-80000
X118612Y-70750
X119150Y-66150
X119308Y-58700
X119600Y-138800
X119822Y-72200
X119937Y-85100
X120100Y-80000
X121327Y-70750
X122024Y-58700
X122100Y-80000
X122218Y-138850
X122537Y-72200
X122653Y-85100
X123800Y-65600
X124043Y-70750
X124100Y-110850
X124150Y-113350
X124400Y-81316
X124500Y-84116
X124500Y-86831
X124500Y-89100
X124500Y-91816
X124500Y-94531
X124739Y-58700
X124933Y-138850
X125300Y-72200
X126200Y-63350
X126300Y-115950
X126350Y-118350
X126600Y-82800
X126600Y-85516
X126600Y-87784
X126600Y-90500
X126600Y-93216
X126759Y-70750
X127455Y-58700
X127550Y-120450
X127649Y-138850
X127969Y-72200
X128600Y-81400
X128700Y-84200
X128700Y-86916
X128700Y-89184
X128700Y-91900
X128700Y-94616
X129450Y-122200
X129475Y-70750
X130100Y-115900
X130100Y-118500
X130171Y-58700
X130365Y-138850
X130684Y-72200
X132190Y-70750
X132886Y-58700
X133000Y-66100
X133080Y-138850
X133400Y-72200
X133750Y-95272
X133750Y-97987
X133750Y-100703
X133750Y-103419
X133750Y-106134
X133750Y-108850
X133750Y-111319
X133750Y-114034
X133750Y-116750
X133750Y-119069
X133750Y-121784
X133800Y-81800
X133800Y-84516
X133800Y-87231
X133800Y-89947
X133800Y-92663
X134000Y-124000
X135602Y-58700
X135796Y-138850
X136000Y-72400
X136400Y-82650
X136400Y-85366
X136400Y-88081
X136400Y-90797
X136400Y-93513
X136400Y-96228
X136400Y-98944
X136400Y-101660
X136400Y-109834
X136400Y-112550
X136400Y-115266
X136400Y-117981
X136400Y-120697
X136400Y-123413
X136400Y-126128
X136400Y-128844
X136400Y-131560
X136590Y-106400
X137925Y-104400
X138100Y-66100
X138306Y-72350
X138318Y-58700
X138512Y-138850
X138600Y-80600
X139306Y-106400
X139440Y-101850
X140540Y-69900
X140640Y-104400
X140853Y-80100
X141022Y-72350
X141033Y-58700
X141227Y-138850
X142022Y-106400
X142156Y-101850
X143256Y-69900
X143356Y-104400
X143569Y-80100
X143737Y-72350
X143749Y-58700
X143943Y-138850
X144737Y-106400
X144872Y-101850
X145972Y-69900
X146072Y-104400
X146284Y-80100
X146453Y-72350
X146465Y-58700
X146659Y-138850
X147453Y-106400
X147587Y-101850
X148687Y-69900
X148787Y-104400
X149000Y-80100
X149169Y-72350
X149180Y-58700
X149375Y-138850
X150169Y-106400
X150303Y-101850
X151403Y-69900
X151503Y-104400
X151884Y-72350
X151896Y-58700
X152090Y-138850
X152500Y-74750
X152550Y-76550
X152550Y-78350
X152884Y-106400
X154119Y-70800
X154219Y-104400
X154600Y-73250
X154612Y-58700
X154806Y-138850
X155300Y-88200
X155600Y-106400
X156150Y-59950
X156834Y-70800
X156934Y-104400
X157316Y-73250
X157700Y-86300
X157800Y-79400
X158316Y-106400
X159350Y-104450
X159450Y-73250
X159550Y-70800
X161600Y-73250
X162066Y-104450
X162266Y-70800
X162700Y-67200
X164050Y-69700
X164050Y-72410
X164050Y-75120
X164050Y-77830
X164050Y-80540
X164050Y-83250
X164050Y-85960
X164050Y-88670
X164050Y-91380
X164050Y-94090
X164050Y-96800
X164050Y-99510
X164050Y-102220
X164050Y-104930
X164050Y-107640
X164050Y-110350
X164050Y-113060
X164050Y-115770
X164050Y-118480
X164050Y-121190
X164050Y-123900
X164050Y-126610
X164050Y-129320
T3
X67818Y-70485
X69088Y-71755
X73838Y-108229
X97130Y-122352
T4
X77995Y-130096
X80535Y-130096
X83075Y-130096
X83750Y-85500
X101750Y-85500
X110250Y-93750
X110250Y-111750
T5
X70600Y-104350
X70600Y-106850
X70600Y-109350
X70600Y-111850
X70600Y-114350
X70600Y-116850
X70600Y-119350
X70600Y-121850
T6
X112750Y-62323
X112750Y-77583
X112750Y-82623
X112750Y-87663
X120250Y-62323
X120250Y-77583
X120250Y-82623
X120250Y-87663
X141500Y-62290
X141500Y-77550
X141500Y-82590
X141500Y-87630
X149000Y-62290
X149000Y-77550
X149000Y-82590
X149000Y-87630
T7
X154100Y-101900
X155200Y-76900
X157400Y-101900
X157800Y-89200
X157900Y-77000
X161000Y-77000
X161000Y-88200
X161000Y-90450
X161000Y-102000
T8
X83250Y-95500
X101727Y-76200
X102250Y-95500
X112970Y-132232
X120250Y-93250
X120250Y-112250
X130491Y-132232
X154300Y-82550
X154300Y-96000
T9
X73152Y-75946
X73152Y-81026
T10
X99187Y-73660
X99187Y-78740
X104267Y-73660
X104267Y-78740
X110430Y-129693
X110430Y-134773
X115510Y-129693
X115510Y-134773
X127951Y-129693
X127951Y-134773
X133031Y-129693
X133031Y-134773
T11
X71000Y-64000
X71000Y-134000
X159000Y-64000
X159000Y-134000
M30
