M48
; DRILL file {KiCad 8.0.5} date 2024-09-26T13:51:17+0930
; FORMAT={-:-/ absolute / metric / decimal}
; #@! TF.CreationDate,2024-09-26T13:51:17+09:30
; #@! TF.GenerationSoftware,Kicad,Pcbnew,8.0.5
; #@! TF.FileFunction,Plated,1,2,PTH
FMAT,2
METRIC
; #@! TA.AperFunction,Plated,PTH,ViaDrill
T1C0.400
; #@! TA.AperFunction,Plated,PTH,ViaDrill
T2C0.600
; #@! TA.AperFunction,Plated,PTH,ViaDrill
T3C0.800
; #@! TA.AperFunction,Plated,PTH,ComponentDrill
T4C0.800
; #@! TA.AperFunction,Plated,PTH,ComponentDrill
T5C0.950
; #@! TA.AperFunction,Plated,PTH,ComponentDrill
T6C1.300
; #@! TA.AperFunction,Plated,PTH,ViaDrill
T7C1.500
; #@! TA.AperFunction,Plated,PTH,ComponentDrill
T8C1.500
; #@! TA.AperFunction,Plated,PTH,ComponentDrill
T9C1.520
; #@! TA.AperFunction,Plated,PTH,ComponentDrill
T10C1.700
; #@! TA.AperFunction,Plated,PTH,ViaDrill
T11C4.100
%
G90
G05
T1
X76.85Y-74.95
X78.45Y-73.55
X80.35Y-72.0
X80.65Y-85.45
X80.65Y-87.4
X84.226Y-128.473
X85.496Y-127.533
X105.228Y-133.493
X108.0Y-72.6
X117.75Y-122.55
X118.299Y-125.652
X119.55Y-120.45
X120.2Y-122.5
X121.05Y-134.3
X121.1Y-120.45
X121.1Y-132.9
X121.7Y-135.6
X121.75Y-128.2
X121.75Y-129.3
X122.45Y-132.9
X122.45Y-134.35
X123.45Y-122.5
X125.05Y-125.65
X140.35Y-94.05
X142.2Y-94.05
X144.25Y-94.05
X146.45Y-94.1
X148.3Y-95.5
X149.35Y-97.1
X150.35Y-99.15
T2
X66.15Y-72.25
X66.2Y-74.26
X66.2Y-76.97
X66.2Y-79.68
X66.2Y-82.39
X66.2Y-85.1
X66.2Y-87.81
X66.2Y-90.52
X66.2Y-93.23
X66.2Y-95.94
X66.2Y-98.65
X66.2Y-101.36
X66.2Y-104.07
X66.2Y-106.78
X66.2Y-109.49
X66.2Y-112.2
X66.2Y-114.91
X66.2Y-117.62
X66.2Y-120.33
X66.2Y-123.04
X66.2Y-125.75
X66.872Y-68.034
X68.1Y-127.55
X69.75Y-129.3
X70.35Y-69.45
X71.1Y-95.3
X71.7Y-124.1
X72.39Y-115.595
X74.2Y-126.85
X75.3Y-95.25
X75.8Y-88.05
X75.8Y-89.4
X75.8Y-90.8
X76.05Y-107.6
X76.05Y-109.25
X76.1Y-110.75
X76.4Y-104.7
X76.9Y-137.4
X76.95Y-95.25
X77.0Y-100.6
X77.05Y-99.1
X77.064Y-116.103
X77.3Y-61.5
X77.495Y-125.527
X78.486Y-111.328
X78.74Y-122.377
X78.75Y-135.25
X78.767Y-138.85
X79.2Y-94.784
X79.2Y-97.5
X79.3Y-60.0
X80.112Y-119.456
X80.696Y-125.501
X80.7Y-89.384
X80.7Y-92.1
X80.7Y-100.247
X80.7Y-102.963
X80.7Y-105.678
X80.7Y-108.394
X80.7Y-111.11
X80.721Y-112.751
X80.969Y-127.0
X81.288Y-58.7
X81.482Y-138.85
X81.5Y-135.25
X81.84Y-70.45
X81.84Y-82.0
X81.991Y-122.377
X82.906Y-119.456
X83.541Y-112.725
X84.0Y-135.25
X84.004Y-58.7
X84.198Y-138.85
X84.28Y-131.91
X84.556Y-70.45
X84.556Y-82.0
X85.15Y-107.2
X85.25Y-98.3
X85.3Y-102.6
X85.522Y-119.456
X85.547Y-112.751
X86.25Y-135.25
X86.72Y-58.7
X86.914Y-138.85
X87.272Y-70.45
X87.272Y-82.0
X88.25Y-136.5
X88.265Y-116.053
X89.435Y-58.7
X89.629Y-138.85
X89.865Y-120.32
X89.865Y-121.9
X89.9Y-127.95
X89.987Y-70.45
X89.987Y-82.0
X90.039Y-126.228
X90.983Y-116.002
X91.0Y-109.5
X91.0Y-111.65
X91.084Y-113.767
X91.2Y-127.95
X91.5Y-129.6
X91.75Y-136.5
X92.151Y-58.7
X92.345Y-138.85
X92.703Y-70.45
X92.703Y-82.0
X94.0Y-136.5
X94.867Y-58.7
X94.996Y-118.745
X95.061Y-138.85
X95.419Y-70.45
X95.419Y-82.0
X95.45Y-79.35
X95.5Y-74.6
X95.5Y-76.9
X95.55Y-72.4
X96.25Y-111.4
X96.418Y-117.018
X97.4Y-120.1
X97.582Y-58.7
X97.6Y-124.7
X97.7Y-132.7
X97.776Y-138.85
X97.815Y-115.265
X97.841Y-113.055
X97.85Y-135.1
X98.134Y-70.45
X98.134Y-82.0
X98.34Y-126.2
X99.3Y-121.0
X99.55Y-131.5
X99.83Y-122.94
X100.15Y-98.05
X100.15Y-102.45
X100.2Y-107.15
X100.298Y-58.7
X100.492Y-138.85
X100.85Y-70.45
X100.85Y-82.0
X101.26Y-126.17
X101.65Y-110.85
X101.75Y-89.2
X102.0Y-121.484
X102.43Y-123.34
X103.014Y-58.7
X103.208Y-138.85
X103.25Y-64.1
X103.3Y-127.7
X103.566Y-70.45
X103.566Y-82.0
X103.8Y-120.134
X104.6Y-121.884
X104.7Y-65.25
X104.9Y-96.856
X104.9Y-99.572
X104.9Y-102.287
X104.9Y-105.003
X104.9Y-107.719
X104.9Y-110.434
X104.9Y-113.15
X105.33Y-123.64
X105.35Y-91.0
X105.58Y-126.14
X105.65Y-131.6
X105.729Y-58.7
X105.924Y-138.85
X106.05Y-118.15
X106.1Y-82.0
X106.4Y-120.534
X107.1Y-74.5
X107.5Y-116.7
X107.5Y-122.184
X107.75Y-83.35
X107.75Y-124.684
X107.75Y-127.4
X108.066Y-91.0
X108.445Y-58.7
X108.639Y-138.85
X108.65Y-118.55
X108.7Y-76.1
X109.1Y-115.0
X109.3Y-120.834
X109.45Y-84.75
X109.55Y-123.334
X109.55Y-126.05
X110.1Y-117.1
X110.45Y-66.15
X110.465Y-70.75
X110.781Y-91.0
X111.161Y-58.7
X111.355Y-138.85
X111.55Y-118.85
X111.675Y-72.2
X111.7Y-115.4
X111.79Y-85.1
X111.8Y-121.35
X112.6Y-80.0
X113.0Y-117.4
X113.18Y-70.75
X113.25Y-66.15
X113.25Y-119.9
X113.497Y-91.0
X113.5Y-93.95
X113.876Y-58.7
X114.169Y-138.8
X114.39Y-72.2
X114.506Y-85.1
X114.6Y-115.7
X114.8Y-80.0
X114.85Y-118.2
X115.896Y-70.75
X116.25Y-66.15
X116.592Y-58.7
X116.6Y-110.85
X116.6Y-113.8
X116.6Y-116.55
X116.7Y-80.0
X116.786Y-138.85
X117.106Y-72.2
X117.222Y-85.1
X118.5Y-80.0
X118.612Y-70.75
X119.15Y-66.15
X119.308Y-58.7
X119.6Y-138.8
X119.822Y-72.2
X119.937Y-85.1
X120.1Y-80.0
X121.327Y-70.75
X122.024Y-58.7
X122.1Y-80.0
X122.218Y-138.85
X122.537Y-72.2
X122.653Y-85.1
X123.8Y-65.6
X124.043Y-70.75
X124.1Y-110.85
X124.15Y-113.35
X124.4Y-81.316
X124.5Y-84.116
X124.5Y-86.831
X124.5Y-89.1
X124.5Y-91.816
X124.5Y-94.531
X124.739Y-58.7
X124.933Y-138.85
X125.3Y-72.2
X126.2Y-63.35
X126.3Y-115.95
X126.35Y-118.35
X126.6Y-82.8
X126.6Y-85.516
X126.6Y-87.784
X126.6Y-90.5
X126.6Y-93.216
X126.759Y-70.75
X127.455Y-58.7
X127.55Y-120.45
X127.649Y-138.85
X127.969Y-72.2
X128.6Y-81.4
X128.7Y-84.2
X128.7Y-86.916
X128.7Y-89.184
X128.7Y-91.9
X128.7Y-94.616
X129.45Y-122.2
X129.475Y-70.75
X130.1Y-115.9
X130.1Y-118.5
X130.171Y-58.7
X130.365Y-138.85
X130.684Y-72.2
X132.19Y-70.75
X132.886Y-58.7
X133.0Y-66.1
X133.08Y-138.85
X133.4Y-72.2
X133.75Y-95.272
X133.75Y-97.987
X133.75Y-100.703
X133.75Y-103.419
X133.75Y-106.134
X133.75Y-108.85
X133.75Y-111.319
X133.75Y-114.034
X133.75Y-116.75
X133.75Y-119.069
X133.75Y-121.784
X133.8Y-81.8
X133.8Y-84.516
X133.8Y-87.231
X133.8Y-89.947
X133.8Y-92.663
X134.0Y-124.0
X135.602Y-58.7
X135.796Y-138.85
X136.0Y-72.4
X136.4Y-82.65
X136.4Y-85.366
X136.4Y-88.081
X136.4Y-90.797
X136.4Y-93.513
X136.4Y-96.228
X136.4Y-98.944
X136.4Y-101.66
X136.4Y-109.834
X136.4Y-112.55
X136.4Y-115.266
X136.4Y-117.981
X136.4Y-120.697
X136.4Y-123.413
X136.4Y-126.128
X136.4Y-128.844
X136.4Y-131.56
X136.59Y-106.4
X137.925Y-104.4
X138.1Y-66.1
X138.306Y-72.35
X138.318Y-58.7
X138.512Y-138.85
X138.6Y-80.6
X139.306Y-106.4
X139.44Y-101.85
X140.54Y-69.9
X140.64Y-104.4
X140.853Y-80.1
X141.022Y-72.35
X141.033Y-58.7
X141.227Y-138.85
X142.022Y-106.4
X142.156Y-101.85
X143.256Y-69.9
X143.356Y-104.4
X143.569Y-80.1
X143.737Y-72.35
X143.749Y-58.7
X143.943Y-138.85
X144.737Y-106.4
X144.872Y-101.85
X145.972Y-69.9
X146.072Y-104.4
X146.284Y-80.1
X146.453Y-72.35
X146.465Y-58.7
X146.659Y-138.85
X147.453Y-106.4
X147.587Y-101.85
X148.687Y-69.9
X148.787Y-104.4
X149.0Y-80.1
X149.169Y-72.35
X149.18Y-58.7
X149.375Y-138.85
X150.169Y-106.4
X150.303Y-101.85
X151.403Y-69.9
X151.503Y-104.4
X151.884Y-72.35
X151.896Y-58.7
X152.09Y-138.85
X152.5Y-74.75
X152.55Y-76.55
X152.55Y-78.35
X152.884Y-106.4
X154.119Y-70.8
X154.219Y-104.4
X154.6Y-73.25
X154.612Y-58.7
X154.806Y-138.85
X155.3Y-88.2
X155.6Y-106.4
X156.15Y-59.95
X156.834Y-70.8
X156.934Y-104.4
X157.316Y-73.25
X157.7Y-86.3
X157.8Y-79.4
X158.316Y-106.4
X159.35Y-104.45
X159.45Y-73.25
X159.55Y-70.8
X161.6Y-73.25
X162.066Y-104.45
X162.266Y-70.8
X162.7Y-67.2
X164.05Y-69.7
X164.05Y-72.41
X164.05Y-75.12
X164.05Y-77.83
X164.05Y-80.54
X164.05Y-83.25
X164.05Y-85.96
X164.05Y-88.67
X164.05Y-91.38
X164.05Y-94.09
X164.05Y-96.8
X164.05Y-99.51
X164.05Y-102.22
X164.05Y-104.93
X164.05Y-107.64
X164.05Y-110.35
X164.05Y-113.06
X164.05Y-115.77
X164.05Y-118.48
X164.05Y-121.19
X164.05Y-123.9
X164.05Y-126.61
X164.05Y-129.32
T3
X67.818Y-70.485
X69.088Y-71.755
X73.838Y-108.229
X97.13Y-122.352
T4
X77.995Y-130.096
X80.535Y-130.096
X83.075Y-130.096
X83.75Y-85.5
X101.75Y-85.5
X110.25Y-93.75
X110.25Y-111.75
T5
X70.6Y-104.35
X70.6Y-106.85
X70.6Y-109.35
X70.6Y-111.85
X70.6Y-114.35
X70.6Y-116.85
X70.6Y-119.35
X70.6Y-121.85
T6
X112.75Y-62.323
X112.75Y-77.583
X112.75Y-82.623
X112.75Y-87.663
X120.25Y-62.323
X120.25Y-77.583
X120.25Y-82.623
X120.25Y-87.663
X141.5Y-62.29
X141.5Y-77.55
X141.5Y-82.59
X141.5Y-87.63
X149.0Y-62.29
X149.0Y-77.55
X149.0Y-82.59
X149.0Y-87.63
T7
X154.1Y-101.9
X155.2Y-76.9
X157.4Y-101.9
X157.8Y-89.2
X157.9Y-77.0
X161.0Y-77.0
X161.0Y-88.2
X161.0Y-90.45
X161.0Y-102.0
T8
X83.25Y-95.5
X101.727Y-76.2
X102.25Y-95.5
X112.97Y-132.232
X120.25Y-93.25
X120.25Y-112.25
X130.491Y-132.232
X154.3Y-82.55
X154.3Y-96.0
T9
X73.152Y-75.946
X73.152Y-81.026
T10
X99.187Y-73.66
X99.187Y-78.74
X104.267Y-73.66
X104.267Y-78.74
X110.43Y-129.692
X110.43Y-134.773
X115.51Y-129.692
X115.51Y-134.773
X127.951Y-129.692
X127.951Y-134.773
X133.031Y-129.692
X133.031Y-134.773
T11
X71.0Y-64.0
X71.0Y-134.0
X159.0Y-64.0
X159.0Y-134.0
M30
