%TF.GenerationSoftware,KiCad,Pcbnew,8.0.5*%
%TF.CreationDate,2024-09-26T13:51:18+09:30*%
%TF.ProjectId,TXRX_relay_board,54585258-5f72-4656-9c61-795f626f6172,1.2*%
%TF.SameCoordinates,Original*%
%TF.FileFunction,Legend,Bot*%
%TF.FilePolarity,Positive*%
%FSLAX46Y46*%
G04 Gerber Fmt 4.6, Leading zero omitted, Abs format (unit mm)*
G04 Created by KiCad (PCBNEW 8.0.5) date 2024-09-26 13:51:18*
%MOMM*%
%LPD*%
G01*
G04 APERTURE LIST*
%ADD10C,0.300000*%
%ADD11C,0.400000*%
%ADD12C,0.150000*%
%ADD13C,0.010000*%
%ADD14C,0.000000*%
%ADD15C,0.350000*%
G04 APERTURE END LIST*
D10*
X154092856Y-123589484D02*
X153878571Y-123660912D01*
X153878571Y-123660912D02*
X153521428Y-123660912D01*
X153521428Y-123660912D02*
X153378571Y-123589484D01*
X153378571Y-123589484D02*
X153307142Y-123518055D01*
X153307142Y-123518055D02*
X153235713Y-123375198D01*
X153235713Y-123375198D02*
X153235713Y-123232341D01*
X153235713Y-123232341D02*
X153307142Y-123089484D01*
X153307142Y-123089484D02*
X153378571Y-123018055D01*
X153378571Y-123018055D02*
X153521428Y-122946626D01*
X153521428Y-122946626D02*
X153807142Y-122875198D01*
X153807142Y-122875198D02*
X153949999Y-122803769D01*
X153949999Y-122803769D02*
X154021428Y-122732341D01*
X154021428Y-122732341D02*
X154092856Y-122589484D01*
X154092856Y-122589484D02*
X154092856Y-122446626D01*
X154092856Y-122446626D02*
X154021428Y-122303769D01*
X154021428Y-122303769D02*
X153949999Y-122232341D01*
X153949999Y-122232341D02*
X153807142Y-122160912D01*
X153807142Y-122160912D02*
X153449999Y-122160912D01*
X153449999Y-122160912D02*
X153235713Y-122232341D01*
X152592857Y-123660912D02*
X152592857Y-122160912D01*
X152592857Y-122160912D02*
X152021428Y-122160912D01*
X152021428Y-122160912D02*
X151878571Y-122232341D01*
X151878571Y-122232341D02*
X151807142Y-122303769D01*
X151807142Y-122303769D02*
X151735714Y-122446626D01*
X151735714Y-122446626D02*
X151735714Y-122660912D01*
X151735714Y-122660912D02*
X151807142Y-122803769D01*
X151807142Y-122803769D02*
X151878571Y-122875198D01*
X151878571Y-122875198D02*
X152021428Y-122946626D01*
X152021428Y-122946626D02*
X152592857Y-122946626D01*
X150450000Y-122160912D02*
X150735714Y-122160912D01*
X150735714Y-122160912D02*
X150878571Y-122232341D01*
X150878571Y-122232341D02*
X150950000Y-122303769D01*
X150950000Y-122303769D02*
X151092857Y-122518055D01*
X151092857Y-122518055D02*
X151164285Y-122803769D01*
X151164285Y-122803769D02*
X151164285Y-123375198D01*
X151164285Y-123375198D02*
X151092857Y-123518055D01*
X151092857Y-123518055D02*
X151021428Y-123589484D01*
X151021428Y-123589484D02*
X150878571Y-123660912D01*
X150878571Y-123660912D02*
X150592857Y-123660912D01*
X150592857Y-123660912D02*
X150450000Y-123589484D01*
X150450000Y-123589484D02*
X150378571Y-123518055D01*
X150378571Y-123518055D02*
X150307142Y-123375198D01*
X150307142Y-123375198D02*
X150307142Y-123018055D01*
X150307142Y-123018055D02*
X150378571Y-122875198D01*
X150378571Y-122875198D02*
X150450000Y-122803769D01*
X150450000Y-122803769D02*
X150592857Y-122732341D01*
X150592857Y-122732341D02*
X150878571Y-122732341D01*
X150878571Y-122732341D02*
X151021428Y-122803769D01*
X151021428Y-122803769D02*
X151092857Y-122875198D01*
X151092857Y-122875198D02*
X151164285Y-123018055D01*
X148878571Y-122232341D02*
X149021429Y-122160912D01*
X149021429Y-122160912D02*
X149235714Y-122160912D01*
X149235714Y-122160912D02*
X149450000Y-122232341D01*
X149450000Y-122232341D02*
X149592857Y-122375198D01*
X149592857Y-122375198D02*
X149664286Y-122518055D01*
X149664286Y-122518055D02*
X149735714Y-122803769D01*
X149735714Y-122803769D02*
X149735714Y-123018055D01*
X149735714Y-123018055D02*
X149664286Y-123303769D01*
X149664286Y-123303769D02*
X149592857Y-123446626D01*
X149592857Y-123446626D02*
X149450000Y-123589484D01*
X149450000Y-123589484D02*
X149235714Y-123660912D01*
X149235714Y-123660912D02*
X149092857Y-123660912D01*
X149092857Y-123660912D02*
X148878571Y-123589484D01*
X148878571Y-123589484D02*
X148807143Y-123518055D01*
X148807143Y-123518055D02*
X148807143Y-123018055D01*
X148807143Y-123018055D02*
X149092857Y-123018055D01*
X148164286Y-123660912D02*
X148164286Y-122160912D01*
X147307143Y-123660912D02*
X147950000Y-122803769D01*
X147307143Y-122160912D02*
X148164286Y-123018055D01*
X159164286Y-125075828D02*
X158878572Y-126075828D01*
X158878572Y-126075828D02*
X158592857Y-125361542D01*
X158592857Y-125361542D02*
X158307143Y-126075828D01*
X158307143Y-126075828D02*
X158021429Y-125075828D01*
X157592857Y-125075828D02*
X157307143Y-126075828D01*
X157307143Y-126075828D02*
X157021428Y-125361542D01*
X157021428Y-125361542D02*
X156735714Y-126075828D01*
X156735714Y-126075828D02*
X156450000Y-125075828D01*
X156021428Y-125075828D02*
X155735714Y-126075828D01*
X155735714Y-126075828D02*
X155449999Y-125361542D01*
X155449999Y-125361542D02*
X155164285Y-126075828D01*
X155164285Y-126075828D02*
X154878571Y-125075828D01*
X154307142Y-125932971D02*
X154235713Y-126004400D01*
X154235713Y-126004400D02*
X154307142Y-126075828D01*
X154307142Y-126075828D02*
X154378570Y-126004400D01*
X154378570Y-126004400D02*
X154307142Y-125932971D01*
X154307142Y-125932971D02*
X154307142Y-126075828D01*
X153664284Y-126004400D02*
X153521427Y-126075828D01*
X153521427Y-126075828D02*
X153235713Y-126075828D01*
X153235713Y-126075828D02*
X153092856Y-126004400D01*
X153092856Y-126004400D02*
X153021427Y-125861542D01*
X153021427Y-125861542D02*
X153021427Y-125790114D01*
X153021427Y-125790114D02*
X153092856Y-125647257D01*
X153092856Y-125647257D02*
X153235713Y-125575828D01*
X153235713Y-125575828D02*
X153449999Y-125575828D01*
X153449999Y-125575828D02*
X153592856Y-125504400D01*
X153592856Y-125504400D02*
X153664284Y-125361542D01*
X153664284Y-125361542D02*
X153664284Y-125290114D01*
X153664284Y-125290114D02*
X153592856Y-125147257D01*
X153592856Y-125147257D02*
X153449999Y-125075828D01*
X153449999Y-125075828D02*
X153235713Y-125075828D01*
X153235713Y-125075828D02*
X153092856Y-125147257D01*
X152378570Y-125075828D02*
X152378570Y-126575828D01*
X152378570Y-125147257D02*
X152235713Y-125075828D01*
X152235713Y-125075828D02*
X151949998Y-125075828D01*
X151949998Y-125075828D02*
X151807141Y-125147257D01*
X151807141Y-125147257D02*
X151735713Y-125218685D01*
X151735713Y-125218685D02*
X151664284Y-125361542D01*
X151664284Y-125361542D02*
X151664284Y-125790114D01*
X151664284Y-125790114D02*
X151735713Y-125932971D01*
X151735713Y-125932971D02*
X151807141Y-126004400D01*
X151807141Y-126004400D02*
X151949998Y-126075828D01*
X151949998Y-126075828D02*
X152235713Y-126075828D01*
X152235713Y-126075828D02*
X152378570Y-126004400D01*
X150378570Y-124575828D02*
X150664284Y-124575828D01*
X150664284Y-124575828D02*
X150807141Y-124647257D01*
X150807141Y-124647257D02*
X150878570Y-124718685D01*
X150878570Y-124718685D02*
X151021427Y-124932971D01*
X151021427Y-124932971D02*
X151092855Y-125218685D01*
X151092855Y-125218685D02*
X151092855Y-125790114D01*
X151092855Y-125790114D02*
X151021427Y-125932971D01*
X151021427Y-125932971D02*
X150949998Y-126004400D01*
X150949998Y-126004400D02*
X150807141Y-126075828D01*
X150807141Y-126075828D02*
X150521427Y-126075828D01*
X150521427Y-126075828D02*
X150378570Y-126004400D01*
X150378570Y-126004400D02*
X150307141Y-125932971D01*
X150307141Y-125932971D02*
X150235712Y-125790114D01*
X150235712Y-125790114D02*
X150235712Y-125432971D01*
X150235712Y-125432971D02*
X150307141Y-125290114D01*
X150307141Y-125290114D02*
X150378570Y-125218685D01*
X150378570Y-125218685D02*
X150521427Y-125147257D01*
X150521427Y-125147257D02*
X150807141Y-125147257D01*
X150807141Y-125147257D02*
X150949998Y-125218685D01*
X150949998Y-125218685D02*
X151021427Y-125290114D01*
X151021427Y-125290114D02*
X151092855Y-125432971D01*
X148949999Y-125075828D02*
X148949999Y-126290114D01*
X148949999Y-126290114D02*
X149021427Y-126432971D01*
X149021427Y-126432971D02*
X149092856Y-126504400D01*
X149092856Y-126504400D02*
X149235713Y-126575828D01*
X149235713Y-126575828D02*
X149449999Y-126575828D01*
X149449999Y-126575828D02*
X149592856Y-126504400D01*
X148949999Y-126004400D02*
X149092856Y-126075828D01*
X149092856Y-126075828D02*
X149378570Y-126075828D01*
X149378570Y-126075828D02*
X149521427Y-126004400D01*
X149521427Y-126004400D02*
X149592856Y-125932971D01*
X149592856Y-125932971D02*
X149664284Y-125790114D01*
X149664284Y-125790114D02*
X149664284Y-125361542D01*
X149664284Y-125361542D02*
X149592856Y-125218685D01*
X149592856Y-125218685D02*
X149521427Y-125147257D01*
X149521427Y-125147257D02*
X149378570Y-125075828D01*
X149378570Y-125075828D02*
X149092856Y-125075828D01*
X149092856Y-125075828D02*
X148949999Y-125147257D01*
X148235713Y-126075828D02*
X148235713Y-124575828D01*
X148092856Y-125504400D02*
X147664284Y-126075828D01*
X147664284Y-125075828D02*
X148235713Y-125647257D01*
X147021427Y-125932971D02*
X146949998Y-126004400D01*
X146949998Y-126004400D02*
X147021427Y-126075828D01*
X147021427Y-126075828D02*
X147092855Y-126004400D01*
X147092855Y-126004400D02*
X147021427Y-125932971D01*
X147021427Y-125932971D02*
X147021427Y-126075828D01*
X145664284Y-126004400D02*
X145807141Y-126075828D01*
X145807141Y-126075828D02*
X146092855Y-126075828D01*
X146092855Y-126075828D02*
X146235712Y-126004400D01*
X146235712Y-126004400D02*
X146307141Y-125932971D01*
X146307141Y-125932971D02*
X146378569Y-125790114D01*
X146378569Y-125790114D02*
X146378569Y-125361542D01*
X146378569Y-125361542D02*
X146307141Y-125218685D01*
X146307141Y-125218685D02*
X146235712Y-125147257D01*
X146235712Y-125147257D02*
X146092855Y-125075828D01*
X146092855Y-125075828D02*
X145807141Y-125075828D01*
X145807141Y-125075828D02*
X145664284Y-125147257D01*
X144807141Y-126075828D02*
X144949998Y-126004400D01*
X144949998Y-126004400D02*
X145021427Y-125932971D01*
X145021427Y-125932971D02*
X145092855Y-125790114D01*
X145092855Y-125790114D02*
X145092855Y-125361542D01*
X145092855Y-125361542D02*
X145021427Y-125218685D01*
X145021427Y-125218685D02*
X144949998Y-125147257D01*
X144949998Y-125147257D02*
X144807141Y-125075828D01*
X144807141Y-125075828D02*
X144592855Y-125075828D01*
X144592855Y-125075828D02*
X144449998Y-125147257D01*
X144449998Y-125147257D02*
X144378570Y-125218685D01*
X144378570Y-125218685D02*
X144307141Y-125361542D01*
X144307141Y-125361542D02*
X144307141Y-125790114D01*
X144307141Y-125790114D02*
X144378570Y-125932971D01*
X144378570Y-125932971D02*
X144449998Y-126004400D01*
X144449998Y-126004400D02*
X144592855Y-126075828D01*
X144592855Y-126075828D02*
X144807141Y-126075828D01*
X143664284Y-126075828D02*
X143664284Y-125075828D01*
X143664284Y-125218685D02*
X143592855Y-125147257D01*
X143592855Y-125147257D02*
X143449998Y-125075828D01*
X143449998Y-125075828D02*
X143235712Y-125075828D01*
X143235712Y-125075828D02*
X143092855Y-125147257D01*
X143092855Y-125147257D02*
X143021427Y-125290114D01*
X143021427Y-125290114D02*
X143021427Y-126075828D01*
X143021427Y-125290114D02*
X142949998Y-125147257D01*
X142949998Y-125147257D02*
X142807141Y-125075828D01*
X142807141Y-125075828D02*
X142592855Y-125075828D01*
X142592855Y-125075828D02*
X142449998Y-125147257D01*
X142449998Y-125147257D02*
X142378569Y-125290114D01*
X142378569Y-125290114D02*
X142378569Y-126075828D01*
X151168108Y-132325304D02*
X151168108Y-131458638D01*
X151168108Y-131706257D02*
X151106203Y-131582447D01*
X151106203Y-131582447D02*
X151044298Y-131520542D01*
X151044298Y-131520542D02*
X150920489Y-131458638D01*
X150920489Y-131458638D02*
X150796679Y-131458638D01*
X149868108Y-132263400D02*
X149991917Y-132325304D01*
X149991917Y-132325304D02*
X150239536Y-132325304D01*
X150239536Y-132325304D02*
X150363346Y-132263400D01*
X150363346Y-132263400D02*
X150425250Y-132139590D01*
X150425250Y-132139590D02*
X150425250Y-131644352D01*
X150425250Y-131644352D02*
X150363346Y-131520542D01*
X150363346Y-131520542D02*
X150239536Y-131458638D01*
X150239536Y-131458638D02*
X149991917Y-131458638D01*
X149991917Y-131458638D02*
X149868108Y-131520542D01*
X149868108Y-131520542D02*
X149806203Y-131644352D01*
X149806203Y-131644352D02*
X149806203Y-131768161D01*
X149806203Y-131768161D02*
X150425250Y-131891971D01*
X149372869Y-131458638D02*
X149063345Y-132325304D01*
X149063345Y-132325304D02*
X148753822Y-131458638D01*
X148258584Y-132201495D02*
X148196679Y-132263400D01*
X148196679Y-132263400D02*
X148258584Y-132325304D01*
X148258584Y-132325304D02*
X148320488Y-132263400D01*
X148320488Y-132263400D02*
X148258584Y-132201495D01*
X148258584Y-132201495D02*
X148258584Y-132325304D01*
X145968107Y-132325304D02*
X146710964Y-132325304D01*
X146339536Y-132325304D02*
X146339536Y-131025304D01*
X146339536Y-131025304D02*
X146463345Y-131211019D01*
X146463345Y-131211019D02*
X146587155Y-131334828D01*
X146587155Y-131334828D02*
X146710964Y-131396733D01*
X145410965Y-132201495D02*
X145349060Y-132263400D01*
X145349060Y-132263400D02*
X145410965Y-132325304D01*
X145410965Y-132325304D02*
X145472869Y-132263400D01*
X145472869Y-132263400D02*
X145410965Y-132201495D01*
X145410965Y-132201495D02*
X145410965Y-132325304D01*
X144853821Y-131149114D02*
X144791917Y-131087209D01*
X144791917Y-131087209D02*
X144668107Y-131025304D01*
X144668107Y-131025304D02*
X144358583Y-131025304D01*
X144358583Y-131025304D02*
X144234774Y-131087209D01*
X144234774Y-131087209D02*
X144172869Y-131149114D01*
X144172869Y-131149114D02*
X144110964Y-131272923D01*
X144110964Y-131272923D02*
X144110964Y-131396733D01*
X144110964Y-131396733D02*
X144172869Y-131582447D01*
X144172869Y-131582447D02*
X144915726Y-132325304D01*
X144915726Y-132325304D02*
X144110964Y-132325304D01*
X142625250Y-131149114D02*
X142563346Y-131087209D01*
X142563346Y-131087209D02*
X142439536Y-131025304D01*
X142439536Y-131025304D02*
X142130012Y-131025304D01*
X142130012Y-131025304D02*
X142006203Y-131087209D01*
X142006203Y-131087209D02*
X141944298Y-131149114D01*
X141944298Y-131149114D02*
X141882393Y-131272923D01*
X141882393Y-131272923D02*
X141882393Y-131396733D01*
X141882393Y-131396733D02*
X141944298Y-131582447D01*
X141944298Y-131582447D02*
X142687155Y-132325304D01*
X142687155Y-132325304D02*
X141882393Y-132325304D01*
X141077632Y-131025304D02*
X140953822Y-131025304D01*
X140953822Y-131025304D02*
X140830013Y-131087209D01*
X140830013Y-131087209D02*
X140768108Y-131149114D01*
X140768108Y-131149114D02*
X140706203Y-131272923D01*
X140706203Y-131272923D02*
X140644298Y-131520542D01*
X140644298Y-131520542D02*
X140644298Y-131830066D01*
X140644298Y-131830066D02*
X140706203Y-132077685D01*
X140706203Y-132077685D02*
X140768108Y-132201495D01*
X140768108Y-132201495D02*
X140830013Y-132263400D01*
X140830013Y-132263400D02*
X140953822Y-132325304D01*
X140953822Y-132325304D02*
X141077632Y-132325304D01*
X141077632Y-132325304D02*
X141201441Y-132263400D01*
X141201441Y-132263400D02*
X141263346Y-132201495D01*
X141263346Y-132201495D02*
X141325251Y-132077685D01*
X141325251Y-132077685D02*
X141387155Y-131830066D01*
X141387155Y-131830066D02*
X141387155Y-131520542D01*
X141387155Y-131520542D02*
X141325251Y-131272923D01*
X141325251Y-131272923D02*
X141263346Y-131149114D01*
X141263346Y-131149114D02*
X141201441Y-131087209D01*
X141201441Y-131087209D02*
X141077632Y-131025304D01*
X140149060Y-131149114D02*
X140087156Y-131087209D01*
X140087156Y-131087209D02*
X139963346Y-131025304D01*
X139963346Y-131025304D02*
X139653822Y-131025304D01*
X139653822Y-131025304D02*
X139530013Y-131087209D01*
X139530013Y-131087209D02*
X139468108Y-131149114D01*
X139468108Y-131149114D02*
X139406203Y-131272923D01*
X139406203Y-131272923D02*
X139406203Y-131396733D01*
X139406203Y-131396733D02*
X139468108Y-131582447D01*
X139468108Y-131582447D02*
X140210965Y-132325304D01*
X140210965Y-132325304D02*
X139406203Y-132325304D01*
X138291918Y-131458638D02*
X138291918Y-132325304D01*
X138601442Y-130963400D02*
X138910965Y-131891971D01*
X138910965Y-131891971D02*
X138106204Y-131891971D01*
D11*
X163740414Y-127234438D02*
X162711843Y-127234438D01*
X163226128Y-129234438D02*
X163226128Y-127234438D01*
X162283271Y-127234438D02*
X161083271Y-129234438D01*
X161083271Y-127234438D02*
X162283271Y-129234438D01*
X159111842Y-127139200D02*
X160654699Y-129710628D01*
X157483271Y-129234438D02*
X158083271Y-128282057D01*
X158511842Y-129234438D02*
X158511842Y-127234438D01*
X158511842Y-127234438D02*
X157826128Y-127234438D01*
X157826128Y-127234438D02*
X157654699Y-127329676D01*
X157654699Y-127329676D02*
X157568985Y-127424914D01*
X157568985Y-127424914D02*
X157483271Y-127615390D01*
X157483271Y-127615390D02*
X157483271Y-127901104D01*
X157483271Y-127901104D02*
X157568985Y-128091580D01*
X157568985Y-128091580D02*
X157654699Y-128186819D01*
X157654699Y-128186819D02*
X157826128Y-128282057D01*
X157826128Y-128282057D02*
X158511842Y-128282057D01*
X156883271Y-127234438D02*
X155683271Y-129234438D01*
X155683271Y-127234438D02*
X156883271Y-129234438D01*
X152597556Y-129234438D02*
X153197556Y-128282057D01*
X153626127Y-129234438D02*
X153626127Y-127234438D01*
X153626127Y-127234438D02*
X152940413Y-127234438D01*
X152940413Y-127234438D02*
X152768984Y-127329676D01*
X152768984Y-127329676D02*
X152683270Y-127424914D01*
X152683270Y-127424914D02*
X152597556Y-127615390D01*
X152597556Y-127615390D02*
X152597556Y-127901104D01*
X152597556Y-127901104D02*
X152683270Y-128091580D01*
X152683270Y-128091580D02*
X152768984Y-128186819D01*
X152768984Y-128186819D02*
X152940413Y-128282057D01*
X152940413Y-128282057D02*
X153626127Y-128282057D01*
X151140413Y-129139200D02*
X151311841Y-129234438D01*
X151311841Y-129234438D02*
X151654699Y-129234438D01*
X151654699Y-129234438D02*
X151826127Y-129139200D01*
X151826127Y-129139200D02*
X151911841Y-128948723D01*
X151911841Y-128948723D02*
X151911841Y-128186819D01*
X151911841Y-128186819D02*
X151826127Y-127996342D01*
X151826127Y-127996342D02*
X151654699Y-127901104D01*
X151654699Y-127901104D02*
X151311841Y-127901104D01*
X151311841Y-127901104D02*
X151140413Y-127996342D01*
X151140413Y-127996342D02*
X151054699Y-128186819D01*
X151054699Y-128186819D02*
X151054699Y-128377295D01*
X151054699Y-128377295D02*
X151911841Y-128567771D01*
X150026127Y-129234438D02*
X150197556Y-129139200D01*
X150197556Y-129139200D02*
X150283270Y-128948723D01*
X150283270Y-128948723D02*
X150283270Y-127234438D01*
X148568985Y-129234438D02*
X148568985Y-128186819D01*
X148568985Y-128186819D02*
X148654699Y-127996342D01*
X148654699Y-127996342D02*
X148826127Y-127901104D01*
X148826127Y-127901104D02*
X149168985Y-127901104D01*
X149168985Y-127901104D02*
X149340413Y-127996342D01*
X148568985Y-129139200D02*
X148740413Y-129234438D01*
X148740413Y-129234438D02*
X149168985Y-129234438D01*
X149168985Y-129234438D02*
X149340413Y-129139200D01*
X149340413Y-129139200D02*
X149426127Y-128948723D01*
X149426127Y-128948723D02*
X149426127Y-128758247D01*
X149426127Y-128758247D02*
X149340413Y-128567771D01*
X149340413Y-128567771D02*
X149168985Y-128472533D01*
X149168985Y-128472533D02*
X148740413Y-128472533D01*
X148740413Y-128472533D02*
X148568985Y-128377295D01*
X147883271Y-127901104D02*
X147454699Y-129234438D01*
X147026128Y-127901104D02*
X147454699Y-129234438D01*
X147454699Y-129234438D02*
X147626128Y-129710628D01*
X147626128Y-129710628D02*
X147711842Y-129805866D01*
X147711842Y-129805866D02*
X147883271Y-129901104D01*
X144968984Y-129234438D02*
X144968984Y-127234438D01*
X144968984Y-127996342D02*
X144797556Y-127901104D01*
X144797556Y-127901104D02*
X144454698Y-127901104D01*
X144454698Y-127901104D02*
X144283270Y-127996342D01*
X144283270Y-127996342D02*
X144197556Y-128091580D01*
X144197556Y-128091580D02*
X144111841Y-128282057D01*
X144111841Y-128282057D02*
X144111841Y-128853485D01*
X144111841Y-128853485D02*
X144197556Y-129043961D01*
X144197556Y-129043961D02*
X144283270Y-129139200D01*
X144283270Y-129139200D02*
X144454698Y-129234438D01*
X144454698Y-129234438D02*
X144797556Y-129234438D01*
X144797556Y-129234438D02*
X144968984Y-129139200D01*
X143083270Y-129234438D02*
X143254699Y-129139200D01*
X143254699Y-129139200D02*
X143340413Y-129043961D01*
X143340413Y-129043961D02*
X143426127Y-128853485D01*
X143426127Y-128853485D02*
X143426127Y-128282057D01*
X143426127Y-128282057D02*
X143340413Y-128091580D01*
X143340413Y-128091580D02*
X143254699Y-127996342D01*
X143254699Y-127996342D02*
X143083270Y-127901104D01*
X143083270Y-127901104D02*
X142826127Y-127901104D01*
X142826127Y-127901104D02*
X142654699Y-127996342D01*
X142654699Y-127996342D02*
X142568985Y-128091580D01*
X142568985Y-128091580D02*
X142483270Y-128282057D01*
X142483270Y-128282057D02*
X142483270Y-128853485D01*
X142483270Y-128853485D02*
X142568985Y-129043961D01*
X142568985Y-129043961D02*
X142654699Y-129139200D01*
X142654699Y-129139200D02*
X142826127Y-129234438D01*
X142826127Y-129234438D02*
X143083270Y-129234438D01*
X140940414Y-129234438D02*
X140940414Y-128186819D01*
X140940414Y-128186819D02*
X141026128Y-127996342D01*
X141026128Y-127996342D02*
X141197556Y-127901104D01*
X141197556Y-127901104D02*
X141540414Y-127901104D01*
X141540414Y-127901104D02*
X141711842Y-127996342D01*
X140940414Y-129139200D02*
X141111842Y-129234438D01*
X141111842Y-129234438D02*
X141540414Y-129234438D01*
X141540414Y-129234438D02*
X141711842Y-129139200D01*
X141711842Y-129139200D02*
X141797556Y-128948723D01*
X141797556Y-128948723D02*
X141797556Y-128758247D01*
X141797556Y-128758247D02*
X141711842Y-128567771D01*
X141711842Y-128567771D02*
X141540414Y-128472533D01*
X141540414Y-128472533D02*
X141111842Y-128472533D01*
X141111842Y-128472533D02*
X140940414Y-128377295D01*
X140083271Y-129234438D02*
X140083271Y-127901104D01*
X140083271Y-128282057D02*
X139997557Y-128091580D01*
X139997557Y-128091580D02*
X139911843Y-127996342D01*
X139911843Y-127996342D02*
X139740414Y-127901104D01*
X139740414Y-127901104D02*
X139568985Y-127901104D01*
X138197557Y-129234438D02*
X138197557Y-127234438D01*
X138197557Y-129139200D02*
X138368985Y-129234438D01*
X138368985Y-129234438D02*
X138711842Y-129234438D01*
X138711842Y-129234438D02*
X138883271Y-129139200D01*
X138883271Y-129139200D02*
X138968985Y-129043961D01*
X138968985Y-129043961D02*
X139054699Y-128853485D01*
X139054699Y-128853485D02*
X139054699Y-128282057D01*
X139054699Y-128282057D02*
X138968985Y-128091580D01*
X138968985Y-128091580D02*
X138883271Y-127996342D01*
X138883271Y-127996342D02*
X138711842Y-127901104D01*
X138711842Y-127901104D02*
X138368985Y-127901104D01*
X138368985Y-127901104D02*
X138197557Y-127996342D01*
D12*
X134883333Y-109695180D02*
X134407143Y-109695180D01*
X134407143Y-109695180D02*
X134407143Y-110695180D01*
X135169048Y-110599942D02*
X135216667Y-110647561D01*
X135216667Y-110647561D02*
X135311905Y-110695180D01*
X135311905Y-110695180D02*
X135550000Y-110695180D01*
X135550000Y-110695180D02*
X135645238Y-110647561D01*
X135645238Y-110647561D02*
X135692857Y-110599942D01*
X135692857Y-110599942D02*
X135740476Y-110504704D01*
X135740476Y-110504704D02*
X135740476Y-110409466D01*
X135740476Y-110409466D02*
X135692857Y-110266609D01*
X135692857Y-110266609D02*
X135121429Y-109695180D01*
X135121429Y-109695180D02*
X135740476Y-109695180D01*
X85804819Y-110133333D02*
X85804819Y-109657143D01*
X85804819Y-109657143D02*
X84804819Y-109657143D01*
X85804819Y-110990476D02*
X85804819Y-110419048D01*
X85804819Y-110704762D02*
X84804819Y-110704762D01*
X84804819Y-110704762D02*
X84947676Y-110609524D01*
X84947676Y-110609524D02*
X85042914Y-110514286D01*
X85042914Y-110514286D02*
X85090533Y-110419048D01*
D13*
%TO.C,OSHW*%
X82186725Y-75424619D02*
X82307261Y-75469393D01*
X82357388Y-75503034D01*
X82408152Y-75551236D01*
X82444362Y-75612551D01*
X82468393Y-75696024D01*
X82482618Y-75810697D01*
X82489412Y-75965613D01*
X82491149Y-76169814D01*
X82490809Y-76275341D01*
X82489101Y-76419541D01*
X82486201Y-76534620D01*
X82482384Y-76610822D01*
X82477925Y-76638391D01*
X82448909Y-76629272D01*
X82390339Y-76604509D01*
X82388581Y-76603707D01*
X82358167Y-76587785D01*
X82337712Y-76565938D01*
X82325240Y-76527672D01*
X82318777Y-76462495D01*
X82316348Y-76359913D01*
X82315977Y-76209433D01*
X82315229Y-76113974D01*
X82307256Y-75934571D01*
X82288998Y-75803163D01*
X82258526Y-75712859D01*
X82213912Y-75656767D01*
X82153226Y-75627994D01*
X82144807Y-75625989D01*
X82031139Y-75624423D01*
X81942492Y-75675348D01*
X81881265Y-75777445D01*
X81870346Y-75806961D01*
X81845458Y-75872283D01*
X81832854Y-75902300D01*
X81806969Y-75898164D01*
X81750439Y-75875717D01*
X81697715Y-75838647D01*
X81673678Y-75768587D01*
X81680847Y-75718406D01*
X81724897Y-75616618D01*
X81796123Y-75521235D01*
X81879415Y-75455269D01*
X81914310Y-75440018D01*
X82046443Y-75414521D01*
X82186725Y-75424619D01*
G36*
X82186725Y-75424619D02*
G01*
X82307261Y-75469393D01*
X82357388Y-75503034D01*
X82408152Y-75551236D01*
X82444362Y-75612551D01*
X82468393Y-75696024D01*
X82482618Y-75810697D01*
X82489412Y-75965613D01*
X82491149Y-76169814D01*
X82490809Y-76275341D01*
X82489101Y-76419541D01*
X82486201Y-76534620D01*
X82482384Y-76610822D01*
X82477925Y-76638391D01*
X82448909Y-76629272D01*
X82390339Y-76604509D01*
X82388581Y-76603707D01*
X82358167Y-76587785D01*
X82337712Y-76565938D01*
X82325240Y-76527672D01*
X82318777Y-76462495D01*
X82316348Y-76359913D01*
X82315977Y-76209433D01*
X82315229Y-76113974D01*
X82307256Y-75934571D01*
X82288998Y-75803163D01*
X82258526Y-75712859D01*
X82213912Y-75656767D01*
X82153226Y-75627994D01*
X82144807Y-75625989D01*
X82031139Y-75624423D01*
X81942492Y-75675348D01*
X81881265Y-75777445D01*
X81870346Y-75806961D01*
X81845458Y-75872283D01*
X81832854Y-75902300D01*
X81806969Y-75898164D01*
X81750439Y-75875717D01*
X81697715Y-75838647D01*
X81673678Y-75768587D01*
X81680847Y-75718406D01*
X81724897Y-75616618D01*
X81796123Y-75521235D01*
X81879415Y-75455269D01*
X81914310Y-75440018D01*
X82046443Y-75414521D01*
X82186725Y-75424619D01*
G37*
X90128487Y-75357689D02*
X90264848Y-75421770D01*
X90376598Y-75532584D01*
X90399761Y-75567273D01*
X90418973Y-75606590D01*
X90432598Y-75656145D01*
X90441877Y-75725568D01*
X90448050Y-75824490D01*
X90452357Y-75962539D01*
X90456038Y-76149346D01*
X90465180Y-76667542D01*
X90388383Y-76638344D01*
X90318068Y-76611520D01*
X90265424Y-76585706D01*
X90231060Y-76552431D01*
X90211093Y-76501510D01*
X90201639Y-76422761D01*
X90198814Y-76305999D01*
X90198736Y-76141042D01*
X90198336Y-76009558D01*
X90195951Y-75883394D01*
X90190259Y-75797223D01*
X90179961Y-75740672D01*
X90163755Y-75703370D01*
X90140345Y-75674943D01*
X90082793Y-75634827D01*
X89986112Y-75619706D01*
X89890465Y-75657917D01*
X89884152Y-75662810D01*
X89864477Y-75685413D01*
X89849963Y-75721664D01*
X89839394Y-75780511D01*
X89831555Y-75870901D01*
X89825227Y-76001779D01*
X89819195Y-76182095D01*
X89804598Y-76664907D01*
X89680517Y-76609283D01*
X89556437Y-76553659D01*
X89556437Y-76112851D01*
X89556951Y-75993098D01*
X89561380Y-75826506D01*
X89572594Y-75702468D01*
X89593272Y-75610987D01*
X89626093Y-75542066D01*
X89673736Y-75485707D01*
X89738877Y-75431914D01*
X89832571Y-75377719D01*
X89980175Y-75342339D01*
X90128487Y-75357689D01*
G36*
X90128487Y-75357689D02*
G01*
X90264848Y-75421770D01*
X90376598Y-75532584D01*
X90399761Y-75567273D01*
X90418973Y-75606590D01*
X90432598Y-75656145D01*
X90441877Y-75725568D01*
X90448050Y-75824490D01*
X90452357Y-75962539D01*
X90456038Y-76149346D01*
X90465180Y-76667542D01*
X90388383Y-76638344D01*
X90318068Y-76611520D01*
X90265424Y-76585706D01*
X90231060Y-76552431D01*
X90211093Y-76501510D01*
X90201639Y-76422761D01*
X90198814Y-76305999D01*
X90198736Y-76141042D01*
X90198336Y-76009558D01*
X90195951Y-75883394D01*
X90190259Y-75797223D01*
X90179961Y-75740672D01*
X90163755Y-75703370D01*
X90140345Y-75674943D01*
X90082793Y-75634827D01*
X89986112Y-75619706D01*
X89890465Y-75657917D01*
X89884152Y-75662810D01*
X89864477Y-75685413D01*
X89849963Y-75721664D01*
X89839394Y-75780511D01*
X89831555Y-75870901D01*
X89825227Y-76001779D01*
X89819195Y-76182095D01*
X89804598Y-76664907D01*
X89680517Y-76609283D01*
X89556437Y-76553659D01*
X89556437Y-76112851D01*
X89556951Y-75993098D01*
X89561380Y-75826506D01*
X89572594Y-75702468D01*
X89593272Y-75610987D01*
X89626093Y-75542066D01*
X89673736Y-75485707D01*
X89738877Y-75431914D01*
X89832571Y-75377719D01*
X89980175Y-75342339D01*
X90128487Y-75357689D01*
G37*
X86460872Y-75455536D02*
X86470090Y-75460638D01*
X86545381Y-75519080D01*
X86612698Y-75594215D01*
X86624439Y-75611196D01*
X86646883Y-75650825D01*
X86662918Y-75697858D01*
X86673945Y-75762492D01*
X86681365Y-75854923D01*
X86686579Y-75985349D01*
X86690989Y-76163965D01*
X86691614Y-76194162D01*
X86693620Y-76389941D01*
X86690792Y-76528603D01*
X86683088Y-76611103D01*
X86670466Y-76638391D01*
X86632267Y-76630220D01*
X86567374Y-76605463D01*
X86552094Y-76598223D01*
X86528227Y-76581835D01*
X86511769Y-76554893D01*
X86501005Y-76507833D01*
X86494219Y-76431088D01*
X86489693Y-76315095D01*
X86485713Y-76150287D01*
X86484622Y-76102112D01*
X86480407Y-75949960D01*
X86474936Y-75843476D01*
X86466554Y-75772565D01*
X86453606Y-75727129D01*
X86434439Y-75697072D01*
X86407398Y-75672296D01*
X86327337Y-75628861D01*
X86228846Y-75620498D01*
X86140719Y-75653734D01*
X86077314Y-75722548D01*
X86052988Y-75820920D01*
X86052311Y-75847658D01*
X86039024Y-75896065D01*
X85999796Y-75903450D01*
X85922983Y-75874624D01*
X85905192Y-75865378D01*
X85857109Y-75811006D01*
X85856157Y-75730161D01*
X85901968Y-75618352D01*
X85943990Y-75557419D01*
X86051435Y-75470859D01*
X86184057Y-75421920D01*
X86325867Y-75415260D01*
X86460872Y-75455536D01*
G36*
X86460872Y-75455536D02*
G01*
X86470090Y-75460638D01*
X86545381Y-75519080D01*
X86612698Y-75594215D01*
X86624439Y-75611196D01*
X86646883Y-75650825D01*
X86662918Y-75697858D01*
X86673945Y-75762492D01*
X86681365Y-75854923D01*
X86686579Y-75985349D01*
X86690989Y-76163965D01*
X86691614Y-76194162D01*
X86693620Y-76389941D01*
X86690792Y-76528603D01*
X86683088Y-76611103D01*
X86670466Y-76638391D01*
X86632267Y-76630220D01*
X86567374Y-76605463D01*
X86552094Y-76598223D01*
X86528227Y-76581835D01*
X86511769Y-76554893D01*
X86501005Y-76507833D01*
X86494219Y-76431088D01*
X86489693Y-76315095D01*
X86485713Y-76150287D01*
X86484622Y-76102112D01*
X86480407Y-75949960D01*
X86474936Y-75843476D01*
X86466554Y-75772565D01*
X86453606Y-75727129D01*
X86434439Y-75697072D01*
X86407398Y-75672296D01*
X86327337Y-75628861D01*
X86228846Y-75620498D01*
X86140719Y-75653734D01*
X86077314Y-75722548D01*
X86052988Y-75820920D01*
X86052311Y-75847658D01*
X86039024Y-75896065D01*
X85999796Y-75903450D01*
X85922983Y-75874624D01*
X85905192Y-75865378D01*
X85857109Y-75811006D01*
X85856157Y-75730161D01*
X85901968Y-75618352D01*
X85943990Y-75557419D01*
X86051435Y-75470859D01*
X86184057Y-75421920D01*
X86325867Y-75415260D01*
X86460872Y-75455536D01*
G37*
X84542410Y-75420970D02*
X84606442Y-75446066D01*
X84680805Y-75479947D01*
X84680805Y-76458727D01*
X84588415Y-76551117D01*
X84567310Y-76571835D01*
X84508847Y-76617885D01*
X84449886Y-76632801D01*
X84362150Y-76625934D01*
X84326429Y-76621494D01*
X84234301Y-76612102D01*
X84169885Y-76608361D01*
X84150778Y-76608933D01*
X84072390Y-76615126D01*
X83977620Y-76625934D01*
X83947298Y-76629647D01*
X83870911Y-76631107D01*
X83815022Y-76608047D01*
X83751355Y-76551117D01*
X83658965Y-76458727D01*
X83658965Y-75935455D01*
X83659685Y-75780821D01*
X83661929Y-75633391D01*
X83665421Y-75516653D01*
X83669876Y-75439840D01*
X83675013Y-75412184D01*
X83676090Y-75412258D01*
X83713407Y-75426019D01*
X83776457Y-75456344D01*
X83861854Y-75500505D01*
X83869893Y-75959965D01*
X83877931Y-76419425D01*
X84053103Y-76419425D01*
X84061092Y-75915805D01*
X84063624Y-75778904D01*
X84067249Y-75632579D01*
X84071177Y-75516411D01*
X84075080Y-75439809D01*
X84078632Y-75412184D01*
X84079653Y-75412281D01*
X84115051Y-75422443D01*
X84180126Y-75444235D01*
X84272069Y-75476287D01*
X84272516Y-75918661D01*
X84272964Y-75995507D01*
X84276069Y-76144834D01*
X84281622Y-76269544D01*
X84289033Y-76358379D01*
X84297714Y-76400083D01*
X84328771Y-76422389D01*
X84392152Y-76429278D01*
X84461839Y-76419425D01*
X84469827Y-75915805D01*
X84472686Y-75787828D01*
X84478614Y-75636348D01*
X84486365Y-75517530D01*
X84495343Y-75439950D01*
X84504948Y-75412184D01*
X84542410Y-75420970D01*
G36*
X84542410Y-75420970D02*
G01*
X84606442Y-75446066D01*
X84680805Y-75479947D01*
X84680805Y-76458727D01*
X84588415Y-76551117D01*
X84567310Y-76571835D01*
X84508847Y-76617885D01*
X84449886Y-76632801D01*
X84362150Y-76625934D01*
X84326429Y-76621494D01*
X84234301Y-76612102D01*
X84169885Y-76608361D01*
X84150778Y-76608933D01*
X84072390Y-76615126D01*
X83977620Y-76625934D01*
X83947298Y-76629647D01*
X83870911Y-76631107D01*
X83815022Y-76608047D01*
X83751355Y-76551117D01*
X83658965Y-76458727D01*
X83658965Y-75935455D01*
X83659685Y-75780821D01*
X83661929Y-75633391D01*
X83665421Y-75516653D01*
X83669876Y-75439840D01*
X83675013Y-75412184D01*
X83676090Y-75412258D01*
X83713407Y-75426019D01*
X83776457Y-75456344D01*
X83861854Y-75500505D01*
X83869893Y-75959965D01*
X83877931Y-76419425D01*
X84053103Y-76419425D01*
X84061092Y-75915805D01*
X84063624Y-75778904D01*
X84067249Y-75632579D01*
X84071177Y-75516411D01*
X84075080Y-75439809D01*
X84078632Y-75412184D01*
X84079653Y-75412281D01*
X84115051Y-75422443D01*
X84180126Y-75444235D01*
X84272069Y-75476287D01*
X84272516Y-75918661D01*
X84272964Y-75995507D01*
X84276069Y-76144834D01*
X84281622Y-76269544D01*
X84289033Y-76358379D01*
X84297714Y-76400083D01*
X84328771Y-76422389D01*
X84392152Y-76429278D01*
X84461839Y-76419425D01*
X84469827Y-75915805D01*
X84472686Y-75787828D01*
X84478614Y-75636348D01*
X84486365Y-75517530D01*
X84495343Y-75439950D01*
X84504948Y-75412184D01*
X84542410Y-75420970D01*
G37*
X88614885Y-75018997D02*
X88709770Y-75059020D01*
X88709770Y-75848706D01*
X88709769Y-75857920D01*
X88709377Y-76065083D01*
X88708329Y-76251432D01*
X88706722Y-76409453D01*
X88704655Y-76531630D01*
X88702225Y-76610448D01*
X88699529Y-76638391D01*
X88698475Y-76638297D01*
X88662647Y-76628144D01*
X88597345Y-76606339D01*
X88505402Y-76574288D01*
X88505402Y-76162991D01*
X88504818Y-76001385D01*
X88502104Y-75884177D01*
X88495858Y-75804415D01*
X88484680Y-75751531D01*
X88467168Y-75714957D01*
X88441922Y-75684123D01*
X88424710Y-75667725D01*
X88331636Y-75622307D01*
X88229051Y-75626328D01*
X88135043Y-75680032D01*
X88121358Y-75693359D01*
X88099439Y-75721032D01*
X88084440Y-75757614D01*
X88075053Y-75813000D01*
X88069968Y-75897088D01*
X88067877Y-76019773D01*
X88067471Y-76190951D01*
X88067276Y-76277769D01*
X88066010Y-76420565D01*
X88063761Y-76534923D01*
X88060758Y-76610860D01*
X88057230Y-76638391D01*
X88056176Y-76638297D01*
X88020348Y-76628144D01*
X87955046Y-76606339D01*
X87863103Y-76574288D01*
X87863149Y-76161109D01*
X87863218Y-76124326D01*
X87867081Y-75932580D01*
X87878950Y-75787586D01*
X87901725Y-75679510D01*
X87938307Y-75598519D01*
X87991595Y-75534778D01*
X88064490Y-75478455D01*
X88135586Y-75443199D01*
X88249255Y-75415946D01*
X88361060Y-75414398D01*
X88447011Y-75440910D01*
X88453473Y-75444571D01*
X88473401Y-75444179D01*
X88487019Y-75413506D01*
X88496846Y-75343188D01*
X88505402Y-75223857D01*
X88520000Y-74978973D01*
X88614885Y-75018997D01*
G36*
X88614885Y-75018997D02*
G01*
X88709770Y-75059020D01*
X88709770Y-75848706D01*
X88709769Y-75857920D01*
X88709377Y-76065083D01*
X88708329Y-76251432D01*
X88706722Y-76409453D01*
X88704655Y-76531630D01*
X88702225Y-76610448D01*
X88699529Y-76638391D01*
X88698475Y-76638297D01*
X88662647Y-76628144D01*
X88597345Y-76606339D01*
X88505402Y-76574288D01*
X88505402Y-76162991D01*
X88504818Y-76001385D01*
X88502104Y-75884177D01*
X88495858Y-75804415D01*
X88484680Y-75751531D01*
X88467168Y-75714957D01*
X88441922Y-75684123D01*
X88424710Y-75667725D01*
X88331636Y-75622307D01*
X88229051Y-75626328D01*
X88135043Y-75680032D01*
X88121358Y-75693359D01*
X88099439Y-75721032D01*
X88084440Y-75757614D01*
X88075053Y-75813000D01*
X88069968Y-75897088D01*
X88067877Y-76019773D01*
X88067471Y-76190951D01*
X88067276Y-76277769D01*
X88066010Y-76420565D01*
X88063761Y-76534923D01*
X88060758Y-76610860D01*
X88057230Y-76638391D01*
X88056176Y-76638297D01*
X88020348Y-76628144D01*
X87955046Y-76606339D01*
X87863103Y-76574288D01*
X87863149Y-76161109D01*
X87863218Y-76124326D01*
X87867081Y-75932580D01*
X87878950Y-75787586D01*
X87901725Y-75679510D01*
X87938307Y-75598519D01*
X87991595Y-75534778D01*
X88064490Y-75478455D01*
X88135586Y-75443199D01*
X88249255Y-75415946D01*
X88361060Y-75414398D01*
X88447011Y-75440910D01*
X88453473Y-75444571D01*
X88473401Y-75444179D01*
X88487019Y-75413506D01*
X88496846Y-75343188D01*
X88505402Y-75223857D01*
X88520000Y-74978973D01*
X88614885Y-75018997D01*
G37*
X93818965Y-75996092D02*
X93818938Y-76027744D01*
X93817355Y-76168918D01*
X93811916Y-76267285D01*
X93800643Y-76335990D01*
X93781561Y-76388181D01*
X93752694Y-76437004D01*
X93745592Y-76447135D01*
X93670444Y-76527012D01*
X93584820Y-76587253D01*
X93540852Y-76606802D01*
X93382861Y-76639408D01*
X93226613Y-76618317D01*
X93082618Y-76546249D01*
X92961385Y-76425922D01*
X92951150Y-76409803D01*
X92917847Y-76316205D01*
X92895405Y-76185879D01*
X92884516Y-76035371D01*
X92885740Y-75896147D01*
X93180384Y-75896147D01*
X93182706Y-76089020D01*
X93183639Y-76101433D01*
X93197242Y-76207857D01*
X93221465Y-76275346D01*
X93262365Y-76321584D01*
X93330941Y-76364895D01*
X93398764Y-76367172D01*
X93468621Y-76317241D01*
X93480771Y-76304102D01*
X93504575Y-76264785D01*
X93518628Y-76207674D01*
X93525313Y-76119256D01*
X93527011Y-75986019D01*
X93524101Y-75861222D01*
X93509582Y-75742326D01*
X93479610Y-75667184D01*
X93430589Y-75627893D01*
X93358924Y-75616552D01*
X93331632Y-75618807D01*
X93255176Y-75660160D01*
X93204650Y-75752900D01*
X93180384Y-75896147D01*
X92885740Y-75896147D01*
X92885871Y-75881227D01*
X92900161Y-75739992D01*
X92928075Y-75628213D01*
X92963949Y-75553766D01*
X93064939Y-75437968D01*
X93201779Y-75366015D01*
X93369283Y-75341281D01*
X93414019Y-75342619D01*
X93545758Y-75370008D01*
X93653968Y-75439007D01*
X93753276Y-75557864D01*
X93759184Y-75566681D01*
X93785921Y-75614108D01*
X93803312Y-75667714D01*
X93813312Y-75740549D01*
X93817878Y-75845659D01*
X93818893Y-75986019D01*
X93818965Y-75996092D01*
G36*
X93818965Y-75996092D02*
G01*
X93818938Y-76027744D01*
X93817355Y-76168918D01*
X93811916Y-76267285D01*
X93800643Y-76335990D01*
X93781561Y-76388181D01*
X93752694Y-76437004D01*
X93745592Y-76447135D01*
X93670444Y-76527012D01*
X93584820Y-76587253D01*
X93540852Y-76606802D01*
X93382861Y-76639408D01*
X93226613Y-76618317D01*
X93082618Y-76546249D01*
X92961385Y-76425922D01*
X92951150Y-76409803D01*
X92917847Y-76316205D01*
X92895405Y-76185879D01*
X92884516Y-76035371D01*
X92885740Y-75896147D01*
X93180384Y-75896147D01*
X93182706Y-76089020D01*
X93183639Y-76101433D01*
X93197242Y-76207857D01*
X93221465Y-76275346D01*
X93262365Y-76321584D01*
X93330941Y-76364895D01*
X93398764Y-76367172D01*
X93468621Y-76317241D01*
X93480771Y-76304102D01*
X93504575Y-76264785D01*
X93518628Y-76207674D01*
X93525313Y-76119256D01*
X93527011Y-75986019D01*
X93524101Y-75861222D01*
X93509582Y-75742326D01*
X93479610Y-75667184D01*
X93430589Y-75627893D01*
X93358924Y-75616552D01*
X93331632Y-75618807D01*
X93255176Y-75660160D01*
X93204650Y-75752900D01*
X93180384Y-75896147D01*
X92885740Y-75896147D01*
X92885871Y-75881227D01*
X92900161Y-75739992D01*
X92928075Y-75628213D01*
X92963949Y-75553766D01*
X93064939Y-75437968D01*
X93201779Y-75366015D01*
X93369283Y-75341281D01*
X93414019Y-75342619D01*
X93545758Y-75370008D01*
X93653968Y-75439007D01*
X93753276Y-75557864D01*
X93759184Y-75566681D01*
X93785921Y-75614108D01*
X93803312Y-75667714D01*
X93813312Y-75740549D01*
X93817878Y-75845659D01*
X93818893Y-75986019D01*
X93818965Y-75996092D01*
G37*
X81498313Y-76031136D02*
X81497744Y-76108946D01*
X81490612Y-76262254D01*
X81471948Y-76374441D01*
X81437537Y-76457554D01*
X81383162Y-76523641D01*
X81304610Y-76584747D01*
X81254630Y-76612535D01*
X81174513Y-76631251D01*
X81061970Y-76629774D01*
X80999050Y-76623845D01*
X80923153Y-76605742D01*
X80862487Y-76566391D01*
X80791912Y-76493066D01*
X80782482Y-76482356D01*
X80719034Y-76399938D01*
X80688762Y-76328156D01*
X80681034Y-76243034D01*
X80681034Y-76117946D01*
X80768447Y-76150940D01*
X80832175Y-76189509D01*
X80887567Y-76280008D01*
X80899131Y-76308983D01*
X80963788Y-76391041D01*
X81051804Y-76432347D01*
X81147637Y-76428633D01*
X81235747Y-76375632D01*
X81266028Y-76342582D01*
X81293489Y-76292720D01*
X81284899Y-76247416D01*
X81235463Y-76200790D01*
X81140389Y-76146958D01*
X80994885Y-76080039D01*
X80695632Y-75949056D01*
X80687691Y-75819298D01*
X80690676Y-75736649D01*
X80885652Y-75736649D01*
X80900453Y-75787815D01*
X80967797Y-75842442D01*
X81090027Y-75904597D01*
X81110253Y-75913601D01*
X81206970Y-75955493D01*
X81279334Y-75984958D01*
X81312961Y-75996092D01*
X81318056Y-75987896D01*
X81320101Y-75937853D01*
X81312812Y-75857414D01*
X81294452Y-75778753D01*
X81237188Y-75679651D01*
X81154524Y-75623808D01*
X81055784Y-75616250D01*
X80950289Y-75662000D01*
X80921053Y-75684876D01*
X80885652Y-75736649D01*
X80690676Y-75736649D01*
X80691196Y-75722255D01*
X80735336Y-75599617D01*
X80791050Y-75532034D01*
X80906561Y-75456540D01*
X81043588Y-75418403D01*
X81185237Y-75421422D01*
X81314617Y-75469393D01*
X81343099Y-75487813D01*
X81408428Y-75544811D01*
X81453106Y-75616916D01*
X81480641Y-75714853D01*
X81494541Y-75849351D01*
X81496378Y-75937853D01*
X81498313Y-76031136D01*
G36*
X81498313Y-76031136D02*
G01*
X81497744Y-76108946D01*
X81490612Y-76262254D01*
X81471948Y-76374441D01*
X81437537Y-76457554D01*
X81383162Y-76523641D01*
X81304610Y-76584747D01*
X81254630Y-76612535D01*
X81174513Y-76631251D01*
X81061970Y-76629774D01*
X80999050Y-76623845D01*
X80923153Y-76605742D01*
X80862487Y-76566391D01*
X80791912Y-76493066D01*
X80782482Y-76482356D01*
X80719034Y-76399938D01*
X80688762Y-76328156D01*
X80681034Y-76243034D01*
X80681034Y-76117946D01*
X80768447Y-76150940D01*
X80832175Y-76189509D01*
X80887567Y-76280008D01*
X80899131Y-76308983D01*
X80963788Y-76391041D01*
X81051804Y-76432347D01*
X81147637Y-76428633D01*
X81235747Y-76375632D01*
X81266028Y-76342582D01*
X81293489Y-76292720D01*
X81284899Y-76247416D01*
X81235463Y-76200790D01*
X81140389Y-76146958D01*
X80994885Y-76080039D01*
X80695632Y-75949056D01*
X80687691Y-75819298D01*
X80690676Y-75736649D01*
X80885652Y-75736649D01*
X80900453Y-75787815D01*
X80967797Y-75842442D01*
X81090027Y-75904597D01*
X81110253Y-75913601D01*
X81206970Y-75955493D01*
X81279334Y-75984958D01*
X81312961Y-75996092D01*
X81318056Y-75987896D01*
X81320101Y-75937853D01*
X81312812Y-75857414D01*
X81294452Y-75778753D01*
X81237188Y-75679651D01*
X81154524Y-75623808D01*
X81055784Y-75616250D01*
X80950289Y-75662000D01*
X80921053Y-75684876D01*
X80885652Y-75736649D01*
X80690676Y-75736649D01*
X80691196Y-75722255D01*
X80735336Y-75599617D01*
X80791050Y-75532034D01*
X80906561Y-75456540D01*
X81043588Y-75418403D01*
X81185237Y-75421422D01*
X81314617Y-75469393D01*
X81343099Y-75487813D01*
X81408428Y-75544811D01*
X81453106Y-75616916D01*
X81480641Y-75714853D01*
X81494541Y-75849351D01*
X81496378Y-75937853D01*
X81498313Y-76031136D01*
G37*
X85702553Y-76025287D02*
X85700219Y-76139135D01*
X85683739Y-76294320D01*
X85647883Y-76410612D01*
X85588455Y-76499411D01*
X85501257Y-76572119D01*
X85418195Y-76614150D01*
X85278709Y-76637538D01*
X85139412Y-76611965D01*
X85013510Y-76540694D01*
X84914210Y-76426991D01*
X84902219Y-76406024D01*
X84886384Y-76369291D01*
X84874638Y-76322415D01*
X84866378Y-76257355D01*
X84860998Y-76166070D01*
X84857892Y-76040519D01*
X84857797Y-76029379D01*
X85060345Y-76029379D01*
X85061035Y-76135644D01*
X85065400Y-76231762D01*
X85076192Y-76293811D01*
X85096126Y-76335502D01*
X85127916Y-76370543D01*
X85135364Y-76377279D01*
X85231060Y-76426992D01*
X85332312Y-76421905D01*
X85426614Y-76362362D01*
X85454694Y-76331514D01*
X85478196Y-76290618D01*
X85491322Y-76234080D01*
X85497030Y-76147657D01*
X85498276Y-76017106D01*
X85497661Y-75917487D01*
X85493407Y-75820251D01*
X85482682Y-75757502D01*
X85462707Y-75715382D01*
X85430704Y-75680032D01*
X85411905Y-75664114D01*
X85314492Y-75621235D01*
X85212437Y-75627985D01*
X85123825Y-75684123D01*
X85104749Y-75706382D01*
X85081486Y-75748293D01*
X85068036Y-75806822D01*
X85061841Y-75895880D01*
X85060345Y-76029379D01*
X84857797Y-76029379D01*
X84856457Y-75872661D01*
X84856086Y-75654455D01*
X84855977Y-74977072D01*
X84950862Y-75016819D01*
X84975949Y-75027699D01*
X85015881Y-75052268D01*
X85038739Y-75089475D01*
X85051301Y-75154541D01*
X85060345Y-75262687D01*
X85068605Y-75359788D01*
X85079523Y-75423535D01*
X85095165Y-75447323D01*
X85118736Y-75440943D01*
X85178801Y-75418525D01*
X85286145Y-75412967D01*
X85401624Y-75433728D01*
X85501257Y-75478455D01*
X85556072Y-75519856D01*
X85626452Y-75600632D01*
X85671528Y-75704195D01*
X85695496Y-75841947D01*
X85702239Y-76017106D01*
X85702553Y-76025287D01*
G36*
X85702553Y-76025287D02*
G01*
X85700219Y-76139135D01*
X85683739Y-76294320D01*
X85647883Y-76410612D01*
X85588455Y-76499411D01*
X85501257Y-76572119D01*
X85418195Y-76614150D01*
X85278709Y-76637538D01*
X85139412Y-76611965D01*
X85013510Y-76540694D01*
X84914210Y-76426991D01*
X84902219Y-76406024D01*
X84886384Y-76369291D01*
X84874638Y-76322415D01*
X84866378Y-76257355D01*
X84860998Y-76166070D01*
X84857892Y-76040519D01*
X84857797Y-76029379D01*
X85060345Y-76029379D01*
X85061035Y-76135644D01*
X85065400Y-76231762D01*
X85076192Y-76293811D01*
X85096126Y-76335502D01*
X85127916Y-76370543D01*
X85135364Y-76377279D01*
X85231060Y-76426992D01*
X85332312Y-76421905D01*
X85426614Y-76362362D01*
X85454694Y-76331514D01*
X85478196Y-76290618D01*
X85491322Y-76234080D01*
X85497030Y-76147657D01*
X85498276Y-76017106D01*
X85497661Y-75917487D01*
X85493407Y-75820251D01*
X85482682Y-75757502D01*
X85462707Y-75715382D01*
X85430704Y-75680032D01*
X85411905Y-75664114D01*
X85314492Y-75621235D01*
X85212437Y-75627985D01*
X85123825Y-75684123D01*
X85104749Y-75706382D01*
X85081486Y-75748293D01*
X85068036Y-75806822D01*
X85061841Y-75895880D01*
X85060345Y-76029379D01*
X84857797Y-76029379D01*
X84856457Y-75872661D01*
X84856086Y-75654455D01*
X84855977Y-74977072D01*
X84950862Y-75016819D01*
X84975949Y-75027699D01*
X85015881Y-75052268D01*
X85038739Y-75089475D01*
X85051301Y-75154541D01*
X85060345Y-75262687D01*
X85068605Y-75359788D01*
X85079523Y-75423535D01*
X85095165Y-75447323D01*
X85118736Y-75440943D01*
X85178801Y-75418525D01*
X85286145Y-75412967D01*
X85401624Y-75433728D01*
X85501257Y-75478455D01*
X85556072Y-75519856D01*
X85626452Y-75600632D01*
X85671528Y-75704195D01*
X85695496Y-75841947D01*
X85702239Y-76017106D01*
X85702553Y-76025287D01*
G37*
X91599452Y-75913329D02*
X91590168Y-76134639D01*
X91584926Y-76181526D01*
X91545868Y-76348409D01*
X91475290Y-76475326D01*
X91367955Y-76572602D01*
X91361888Y-76576616D01*
X91225440Y-76633706D01*
X91082973Y-76638786D01*
X90945696Y-76595311D01*
X90824819Y-76506734D01*
X90731552Y-76376509D01*
X90729986Y-76373369D01*
X90698993Y-76292501D01*
X90676292Y-76200593D01*
X90664250Y-76114311D01*
X90665237Y-76050321D01*
X90681623Y-76025287D01*
X90696179Y-76026809D01*
X90765792Y-76054496D01*
X90844697Y-76105409D01*
X90911820Y-76164343D01*
X90946087Y-76216094D01*
X90981707Y-76286291D01*
X91054711Y-76350138D01*
X91139485Y-76375632D01*
X91170558Y-76368261D01*
X91231891Y-76331154D01*
X91285315Y-76279644D01*
X91308161Y-76232913D01*
X91308154Y-76232740D01*
X91282233Y-76211280D01*
X91213127Y-76172565D01*
X91111249Y-76122037D01*
X90987011Y-76065134D01*
X90986328Y-76064833D01*
X90851355Y-76004738D01*
X90760884Y-75961440D01*
X90706039Y-75928179D01*
X90677944Y-75898194D01*
X90667724Y-75864726D01*
X90666503Y-75821015D01*
X90674996Y-75738244D01*
X90963219Y-75738244D01*
X90992970Y-75764265D01*
X91067101Y-75803256D01*
X91069274Y-75804359D01*
X91156733Y-75846009D01*
X91234974Y-75879235D01*
X91284611Y-75893291D01*
X91304521Y-75874503D01*
X91308161Y-75810124D01*
X91293035Y-75730001D01*
X91240597Y-75657189D01*
X91164677Y-75619439D01*
X91080040Y-75623251D01*
X91001447Y-75675121D01*
X90970555Y-75710965D01*
X90963219Y-75738244D01*
X90674996Y-75738244D01*
X90677251Y-75716265D01*
X90730389Y-75573949D01*
X90819342Y-75462111D01*
X90934448Y-75384676D01*
X91066045Y-75345568D01*
X91204472Y-75348711D01*
X91340065Y-75398030D01*
X91463164Y-75497447D01*
X91531366Y-75595829D01*
X91580356Y-75736261D01*
X91588322Y-75810124D01*
X91599452Y-75913329D01*
G36*
X91599452Y-75913329D02*
G01*
X91590168Y-76134639D01*
X91584926Y-76181526D01*
X91545868Y-76348409D01*
X91475290Y-76475326D01*
X91367955Y-76572602D01*
X91361888Y-76576616D01*
X91225440Y-76633706D01*
X91082973Y-76638786D01*
X90945696Y-76595311D01*
X90824819Y-76506734D01*
X90731552Y-76376509D01*
X90729986Y-76373369D01*
X90698993Y-76292501D01*
X90676292Y-76200593D01*
X90664250Y-76114311D01*
X90665237Y-76050321D01*
X90681623Y-76025287D01*
X90696179Y-76026809D01*
X90765792Y-76054496D01*
X90844697Y-76105409D01*
X90911820Y-76164343D01*
X90946087Y-76216094D01*
X90981707Y-76286291D01*
X91054711Y-76350138D01*
X91139485Y-76375632D01*
X91170558Y-76368261D01*
X91231891Y-76331154D01*
X91285315Y-76279644D01*
X91308161Y-76232913D01*
X91308154Y-76232740D01*
X91282233Y-76211280D01*
X91213127Y-76172565D01*
X91111249Y-76122037D01*
X90987011Y-76065134D01*
X90986328Y-76064833D01*
X90851355Y-76004738D01*
X90760884Y-75961440D01*
X90706039Y-75928179D01*
X90677944Y-75898194D01*
X90667724Y-75864726D01*
X90666503Y-75821015D01*
X90674996Y-75738244D01*
X90963219Y-75738244D01*
X90992970Y-75764265D01*
X91067101Y-75803256D01*
X91069274Y-75804359D01*
X91156733Y-75846009D01*
X91234974Y-75879235D01*
X91284611Y-75893291D01*
X91304521Y-75874503D01*
X91308161Y-75810124D01*
X91293035Y-75730001D01*
X91240597Y-75657189D01*
X91164677Y-75619439D01*
X91080040Y-75623251D01*
X91001447Y-75675121D01*
X90970555Y-75710965D01*
X90963219Y-75738244D01*
X90674996Y-75738244D01*
X90677251Y-75716265D01*
X90730389Y-75573949D01*
X90819342Y-75462111D01*
X90934448Y-75384676D01*
X91066045Y-75345568D01*
X91204472Y-75348711D01*
X91340065Y-75398030D01*
X91463164Y-75497447D01*
X91531366Y-75595829D01*
X91580356Y-75736261D01*
X91588322Y-75810124D01*
X91599452Y-75913329D01*
G37*
X87429995Y-75443674D02*
X87530355Y-75502191D01*
X87574505Y-75547784D01*
X87659347Y-75684072D01*
X87687931Y-75832658D01*
X87687931Y-75934882D01*
X87593963Y-75895372D01*
X87528977Y-75855504D01*
X87477763Y-75772734D01*
X87472504Y-75755669D01*
X87415903Y-75668724D01*
X87330594Y-75621758D01*
X87232641Y-75619741D01*
X87138106Y-75667644D01*
X87123993Y-75679998D01*
X87076797Y-75733683D01*
X87069003Y-75780488D01*
X87104706Y-75826446D01*
X87188003Y-75877588D01*
X87322988Y-75939948D01*
X87332118Y-75943897D01*
X87481969Y-76013772D01*
X87584316Y-76075672D01*
X87647320Y-76137476D01*
X87679138Y-76207062D01*
X87687931Y-76292308D01*
X87676409Y-76386816D01*
X87618228Y-76507785D01*
X87515875Y-76594688D01*
X87441843Y-76620778D01*
X87337367Y-76635055D01*
X87235917Y-76632006D01*
X87163472Y-76610467D01*
X87155777Y-76605104D01*
X87135341Y-76567632D01*
X87149522Y-76501591D01*
X87174161Y-76449753D01*
X87213670Y-76428172D01*
X87288602Y-76429246D01*
X87392630Y-76423055D01*
X87460605Y-76380311D01*
X87483563Y-76301189D01*
X87483542Y-76298916D01*
X87469629Y-76252986D01*
X87422303Y-76210845D01*
X87330287Y-76162272D01*
X87205151Y-76103790D01*
X87122268Y-76071975D01*
X87074420Y-76074025D01*
X87052063Y-76116051D01*
X87045649Y-76204162D01*
X87045632Y-76344469D01*
X87044917Y-76431081D01*
X87041635Y-76538041D01*
X87036300Y-76611250D01*
X87029585Y-76638391D01*
X87027790Y-76638206D01*
X86988982Y-76623498D01*
X86924709Y-76592456D01*
X86835880Y-76546521D01*
X86846436Y-76132628D01*
X86847171Y-76105179D01*
X86855555Y-75912517D01*
X86870366Y-75767309D01*
X86894629Y-75659887D01*
X86931364Y-75580584D01*
X86983597Y-75519730D01*
X87054348Y-75467658D01*
X87055657Y-75466842D01*
X87170056Y-75424360D01*
X87302365Y-75417184D01*
X87429995Y-75443674D01*
G36*
X87429995Y-75443674D02*
G01*
X87530355Y-75502191D01*
X87574505Y-75547784D01*
X87659347Y-75684072D01*
X87687931Y-75832658D01*
X87687931Y-75934882D01*
X87593963Y-75895372D01*
X87528977Y-75855504D01*
X87477763Y-75772734D01*
X87472504Y-75755669D01*
X87415903Y-75668724D01*
X87330594Y-75621758D01*
X87232641Y-75619741D01*
X87138106Y-75667644D01*
X87123993Y-75679998D01*
X87076797Y-75733683D01*
X87069003Y-75780488D01*
X87104706Y-75826446D01*
X87188003Y-75877588D01*
X87322988Y-75939948D01*
X87332118Y-75943897D01*
X87481969Y-76013772D01*
X87584316Y-76075672D01*
X87647320Y-76137476D01*
X87679138Y-76207062D01*
X87687931Y-76292308D01*
X87676409Y-76386816D01*
X87618228Y-76507785D01*
X87515875Y-76594688D01*
X87441843Y-76620778D01*
X87337367Y-76635055D01*
X87235917Y-76632006D01*
X87163472Y-76610467D01*
X87155777Y-76605104D01*
X87135341Y-76567632D01*
X87149522Y-76501591D01*
X87174161Y-76449753D01*
X87213670Y-76428172D01*
X87288602Y-76429246D01*
X87392630Y-76423055D01*
X87460605Y-76380311D01*
X87483563Y-76301189D01*
X87483542Y-76298916D01*
X87469629Y-76252986D01*
X87422303Y-76210845D01*
X87330287Y-76162272D01*
X87205151Y-76103790D01*
X87122268Y-76071975D01*
X87074420Y-76074025D01*
X87052063Y-76116051D01*
X87045649Y-76204162D01*
X87045632Y-76344469D01*
X87044917Y-76431081D01*
X87041635Y-76538041D01*
X87036300Y-76611250D01*
X87029585Y-76638391D01*
X87027790Y-76638206D01*
X86988982Y-76623498D01*
X86924709Y-76592456D01*
X86835880Y-76546521D01*
X86846436Y-76132628D01*
X86847171Y-76105179D01*
X86855555Y-75912517D01*
X86870366Y-75767309D01*
X86894629Y-75659887D01*
X86931364Y-75580584D01*
X86983597Y-75519730D01*
X87054348Y-75467658D01*
X87055657Y-75466842D01*
X87170056Y-75424360D01*
X87302365Y-75417184D01*
X87429995Y-75443674D01*
G37*
X83161628Y-75414810D02*
X83224194Y-75430702D01*
X83282446Y-75470322D01*
X83357418Y-75544076D01*
X83405633Y-75596163D01*
X83455858Y-75663786D01*
X83478510Y-75727168D01*
X83483793Y-75807584D01*
X83483793Y-75939201D01*
X83394035Y-75892785D01*
X83322904Y-75836225D01*
X83274183Y-75760040D01*
X83265814Y-75739326D01*
X83202056Y-75659041D01*
X83113470Y-75618784D01*
X83016873Y-75622702D01*
X82929080Y-75674943D01*
X82891936Y-75717370D01*
X82870300Y-75771647D01*
X82893461Y-75819954D01*
X82965479Y-75868545D01*
X83090410Y-75923677D01*
X83109368Y-75931292D01*
X83223105Y-75981125D01*
X83320706Y-76030265D01*
X83382803Y-76069080D01*
X83444999Y-76138411D01*
X83486346Y-76249051D01*
X83481957Y-76367782D01*
X83433037Y-76480148D01*
X83340797Y-76571690D01*
X83266110Y-76610658D01*
X83121832Y-76637944D01*
X83041656Y-76634263D01*
X82967435Y-76614360D01*
X82938960Y-76572598D01*
X82949608Y-76503820D01*
X82952705Y-76494726D01*
X82977268Y-76446498D01*
X83018165Y-76428245D01*
X83096079Y-76429466D01*
X83151091Y-76431126D01*
X83215459Y-76416881D01*
X83259561Y-76374292D01*
X83284680Y-76321857D01*
X83287481Y-76266929D01*
X83287352Y-76266608D01*
X83254785Y-76236928D01*
X83185083Y-76193735D01*
X83094898Y-76145461D01*
X83000883Y-76100539D01*
X82919689Y-76067402D01*
X82867968Y-76054483D01*
X82860274Y-76067134D01*
X82850588Y-76126668D01*
X82843954Y-76223887D01*
X82841494Y-76346437D01*
X82840922Y-76431263D01*
X82838225Y-76538094D01*
X82833821Y-76611257D01*
X82828270Y-76638391D01*
X82799254Y-76629272D01*
X82740684Y-76604509D01*
X82666322Y-76570627D01*
X82666322Y-76135933D01*
X82666797Y-76024508D01*
X82671293Y-75855301D01*
X82682747Y-75729769D01*
X82703828Y-75638363D01*
X82737206Y-75571532D01*
X82785550Y-75519726D01*
X82851531Y-75473393D01*
X82935594Y-75435156D01*
X83090807Y-75412184D01*
X83161628Y-75414810D01*
G36*
X83161628Y-75414810D02*
G01*
X83224194Y-75430702D01*
X83282446Y-75470322D01*
X83357418Y-75544076D01*
X83405633Y-75596163D01*
X83455858Y-75663786D01*
X83478510Y-75727168D01*
X83483793Y-75807584D01*
X83483793Y-75939201D01*
X83394035Y-75892785D01*
X83322904Y-75836225D01*
X83274183Y-75760040D01*
X83265814Y-75739326D01*
X83202056Y-75659041D01*
X83113470Y-75618784D01*
X83016873Y-75622702D01*
X82929080Y-75674943D01*
X82891936Y-75717370D01*
X82870300Y-75771647D01*
X82893461Y-75819954D01*
X82965479Y-75868545D01*
X83090410Y-75923677D01*
X83109368Y-75931292D01*
X83223105Y-75981125D01*
X83320706Y-76030265D01*
X83382803Y-76069080D01*
X83444999Y-76138411D01*
X83486346Y-76249051D01*
X83481957Y-76367782D01*
X83433037Y-76480148D01*
X83340797Y-76571690D01*
X83266110Y-76610658D01*
X83121832Y-76637944D01*
X83041656Y-76634263D01*
X82967435Y-76614360D01*
X82938960Y-76572598D01*
X82949608Y-76503820D01*
X82952705Y-76494726D01*
X82977268Y-76446498D01*
X83018165Y-76428245D01*
X83096079Y-76429466D01*
X83151091Y-76431126D01*
X83215459Y-76416881D01*
X83259561Y-76374292D01*
X83284680Y-76321857D01*
X83287481Y-76266929D01*
X83287352Y-76266608D01*
X83254785Y-76236928D01*
X83185083Y-76193735D01*
X83094898Y-76145461D01*
X83000883Y-76100539D01*
X82919689Y-76067402D01*
X82867968Y-76054483D01*
X82860274Y-76067134D01*
X82850588Y-76126668D01*
X82843954Y-76223887D01*
X82841494Y-76346437D01*
X82840922Y-76431263D01*
X82838225Y-76538094D01*
X82833821Y-76611257D01*
X82828270Y-76638391D01*
X82799254Y-76629272D01*
X82740684Y-76604509D01*
X82666322Y-76570627D01*
X82666322Y-76135933D01*
X82666797Y-76024508D01*
X82671293Y-75855301D01*
X82682747Y-75729769D01*
X82703828Y-75638363D01*
X82737206Y-75571532D01*
X82785550Y-75519726D01*
X82851531Y-75473393D01*
X82935594Y-75435156D01*
X83090807Y-75412184D01*
X83161628Y-75414810D01*
G37*
X92700778Y-76129502D02*
X92703668Y-76353736D01*
X92704471Y-76418785D01*
X92707040Y-76636260D01*
X92707556Y-76802672D01*
X92704437Y-76923846D01*
X92696100Y-77005607D01*
X92680962Y-77053781D01*
X92657441Y-77074194D01*
X92623956Y-77072672D01*
X92578923Y-77055039D01*
X92520761Y-77027121D01*
X92508332Y-77021164D01*
X92456578Y-76992006D01*
X92429550Y-76957314D01*
X92419207Y-76899470D01*
X92417509Y-76800857D01*
X92417433Y-76623793D01*
X92235038Y-76623793D01*
X92122840Y-76618880D01*
X92034620Y-76598953D01*
X91961358Y-76558678D01*
X91955896Y-76554741D01*
X91881558Y-76488243D01*
X91829823Y-76407908D01*
X91797196Y-76302758D01*
X91780182Y-76161815D01*
X91776030Y-76002588D01*
X92067241Y-76002588D01*
X92067291Y-76029276D01*
X92070064Y-76149738D01*
X92078967Y-76228484D01*
X92096617Y-76279618D01*
X92125632Y-76317241D01*
X92127440Y-76319038D01*
X92198753Y-76367720D01*
X92267865Y-76362921D01*
X92345925Y-76303971D01*
X92365019Y-76283823D01*
X92393142Y-76242515D01*
X92409000Y-76188787D01*
X92416009Y-76107326D01*
X92417586Y-75982821D01*
X92416220Y-75907445D01*
X92401402Y-75770362D01*
X92367579Y-75680548D01*
X92311389Y-75631460D01*
X92229472Y-75616552D01*
X92194956Y-75619729D01*
X92135235Y-75651254D01*
X92095752Y-75721505D01*
X92073942Y-75836583D01*
X92067241Y-76002588D01*
X91776030Y-76002588D01*
X91775287Y-75974101D01*
X91776371Y-75837122D01*
X91781307Y-75733364D01*
X91792272Y-75661412D01*
X91811438Y-75607500D01*
X91840977Y-75557864D01*
X91868092Y-75519931D01*
X91966550Y-75417522D01*
X92078100Y-75361903D01*
X92218246Y-75344297D01*
X92378635Y-75361847D01*
X92517288Y-75424797D01*
X92626951Y-75535824D01*
X92635218Y-75547578D01*
X92654499Y-75578813D01*
X92669269Y-75614507D01*
X92680254Y-75662364D01*
X92688174Y-75730087D01*
X92693753Y-75825382D01*
X92697713Y-75955952D01*
X92698188Y-75982821D01*
X92700778Y-76129502D01*
G36*
X92700778Y-76129502D02*
G01*
X92703668Y-76353736D01*
X92704471Y-76418785D01*
X92707040Y-76636260D01*
X92707556Y-76802672D01*
X92704437Y-76923846D01*
X92696100Y-77005607D01*
X92680962Y-77053781D01*
X92657441Y-77074194D01*
X92623956Y-77072672D01*
X92578923Y-77055039D01*
X92520761Y-77027121D01*
X92508332Y-77021164D01*
X92456578Y-76992006D01*
X92429550Y-76957314D01*
X92419207Y-76899470D01*
X92417509Y-76800857D01*
X92417433Y-76623793D01*
X92235038Y-76623793D01*
X92122840Y-76618880D01*
X92034620Y-76598953D01*
X91961358Y-76558678D01*
X91955896Y-76554741D01*
X91881558Y-76488243D01*
X91829823Y-76407908D01*
X91797196Y-76302758D01*
X91780182Y-76161815D01*
X91776030Y-76002588D01*
X92067241Y-76002588D01*
X92067291Y-76029276D01*
X92070064Y-76149738D01*
X92078967Y-76228484D01*
X92096617Y-76279618D01*
X92125632Y-76317241D01*
X92127440Y-76319038D01*
X92198753Y-76367720D01*
X92267865Y-76362921D01*
X92345925Y-76303971D01*
X92365019Y-76283823D01*
X92393142Y-76242515D01*
X92409000Y-76188787D01*
X92416009Y-76107326D01*
X92417586Y-75982821D01*
X92416220Y-75907445D01*
X92401402Y-75770362D01*
X92367579Y-75680548D01*
X92311389Y-75631460D01*
X92229472Y-75616552D01*
X92194956Y-75619729D01*
X92135235Y-75651254D01*
X92095752Y-75721505D01*
X92073942Y-75836583D01*
X92067241Y-76002588D01*
X91776030Y-76002588D01*
X91775287Y-75974101D01*
X91776371Y-75837122D01*
X91781307Y-75733364D01*
X91792272Y-75661412D01*
X91811438Y-75607500D01*
X91840977Y-75557864D01*
X91868092Y-75519931D01*
X91966550Y-75417522D01*
X92078100Y-75361903D01*
X92218246Y-75344297D01*
X92378635Y-75361847D01*
X92517288Y-75424797D01*
X92626951Y-75535824D01*
X92635218Y-75547578D01*
X92654499Y-75578813D01*
X92669269Y-75614507D01*
X92680254Y-75662364D01*
X92688174Y-75730087D01*
X92693753Y-75825382D01*
X92697713Y-75955952D01*
X92698188Y-75982821D01*
X92700778Y-76129502D01*
G37*
X87479175Y-65953045D02*
X87631895Y-65954039D01*
X87741792Y-65956593D01*
X87816235Y-65961445D01*
X87862594Y-65969331D01*
X87888239Y-65980988D01*
X87900539Y-65997153D01*
X87906865Y-66018563D01*
X87907047Y-66019332D01*
X87917441Y-66069663D01*
X87936339Y-66166888D01*
X87961802Y-66300810D01*
X87991890Y-66461235D01*
X88024664Y-66637967D01*
X88027337Y-66652428D01*
X88060010Y-66823959D01*
X88090413Y-66974625D01*
X88116568Y-67095267D01*
X88136496Y-67176729D01*
X88148220Y-67209852D01*
X88148282Y-67209905D01*
X88185229Y-67228229D01*
X88261057Y-67258677D01*
X88359425Y-67294685D01*
X88364965Y-67296640D01*
X88490724Y-67344170D01*
X88637011Y-67403783D01*
X88773293Y-67463056D01*
X88997390Y-67564765D01*
X89493618Y-67225897D01*
X89528570Y-67202063D01*
X89678280Y-67100755D01*
X89811867Y-67011575D01*
X89921343Y-66939773D01*
X89998718Y-66890603D01*
X90036004Y-66869317D01*
X90061552Y-66874196D01*
X90119555Y-66912002D01*
X90209195Y-66986870D01*
X90332957Y-67100903D01*
X90493328Y-67256205D01*
X90507679Y-67270341D01*
X90634933Y-67396999D01*
X90747969Y-67511745D01*
X90839867Y-67607391D01*
X90903707Y-67676746D01*
X90932570Y-67712620D01*
X90932664Y-67712794D01*
X90936331Y-67740106D01*
X90922808Y-67784408D01*
X90888684Y-67851761D01*
X90830548Y-67948226D01*
X90744988Y-68079863D01*
X90628594Y-68252734D01*
X90608759Y-68281912D01*
X90508445Y-68429726D01*
X90419923Y-68560577D01*
X90348465Y-68666643D01*
X90299343Y-68740102D01*
X90277831Y-68773130D01*
X90276208Y-68780126D01*
X90286387Y-68832326D01*
X90316879Y-68917561D01*
X90362712Y-69021291D01*
X90425000Y-69156951D01*
X90494548Y-69317921D01*
X90553609Y-69463621D01*
X90568252Y-69501333D01*
X90606600Y-69597622D01*
X90634770Y-69664704D01*
X90647497Y-69689885D01*
X90661545Y-69691767D01*
X90724681Y-69702651D01*
X90828019Y-69721449D01*
X90960809Y-69746115D01*
X91112297Y-69774604D01*
X91271732Y-69804873D01*
X91428361Y-69834875D01*
X91571433Y-69862566D01*
X91690195Y-69885900D01*
X91773896Y-69902833D01*
X91811782Y-69911320D01*
X91818063Y-69913713D01*
X91833373Y-69926619D01*
X91844763Y-69954096D01*
X91852803Y-70003446D01*
X91858064Y-70081973D01*
X91861116Y-70196980D01*
X91862529Y-70355770D01*
X91862873Y-70565645D01*
X91862873Y-71203906D01*
X91709598Y-71234160D01*
X91691057Y-71237785D01*
X91592596Y-71256569D01*
X91456448Y-71282093D01*
X91298087Y-71311468D01*
X91132988Y-71341806D01*
X91067973Y-71354009D01*
X90922697Y-71383697D01*
X90801626Y-71411770D01*
X90715886Y-71435536D01*
X90676601Y-71452301D01*
X90658799Y-71479694D01*
X90626389Y-71552174D01*
X90593234Y-71645977D01*
X90581564Y-71681103D01*
X90538604Y-71796409D01*
X90483192Y-71932876D01*
X90424353Y-72067954D01*
X90392884Y-72138509D01*
X90348051Y-72243895D01*
X90317240Y-72322818D01*
X90305785Y-72362053D01*
X90306422Y-72365014D01*
X90328150Y-72406639D01*
X90377146Y-72486969D01*
X90448438Y-72598220D01*
X90537054Y-72732605D01*
X90638023Y-72882340D01*
X90970261Y-73369931D01*
X90533771Y-73807149D01*
X90491555Y-73849221D01*
X90362470Y-73975153D01*
X90247107Y-74083754D01*
X90152224Y-74168903D01*
X90084582Y-74224482D01*
X90050938Y-74244368D01*
X90014402Y-74229238D01*
X89937890Y-74185801D01*
X89830196Y-74119270D01*
X89699767Y-74034867D01*
X89555052Y-73937816D01*
X89412910Y-73841964D01*
X89284678Y-73757557D01*
X89180054Y-73690850D01*
X89107171Y-73647024D01*
X89074158Y-73631264D01*
X89072223Y-73631408D01*
X89028369Y-73646945D01*
X88950598Y-73683121D01*
X88854392Y-73732785D01*
X88853381Y-73733329D01*
X88725605Y-73797326D01*
X88638051Y-73828591D01*
X88583726Y-73828677D01*
X88555641Y-73799138D01*
X88543752Y-73770061D01*
X88511668Y-73692188D01*
X88462247Y-73572475D01*
X88398118Y-73417286D01*
X88321911Y-73232984D01*
X88236255Y-73025933D01*
X88143781Y-72802496D01*
X88059962Y-72599226D01*
X87974678Y-72390649D01*
X87899222Y-72204263D01*
X87836126Y-72046407D01*
X87787923Y-71923419D01*
X87757144Y-71841639D01*
X87746322Y-71807406D01*
X87766991Y-71776015D01*
X87824409Y-71723602D01*
X87905688Y-71662704D01*
X88100820Y-71503387D01*
X88275445Y-71299807D01*
X88403235Y-71075808D01*
X88483402Y-70838003D01*
X88515160Y-70593007D01*
X88497722Y-70347433D01*
X88430301Y-70107895D01*
X88312111Y-69881007D01*
X88142364Y-69673383D01*
X88053856Y-69592527D01*
X87841804Y-69449559D01*
X87614905Y-69356352D01*
X87379791Y-69310687D01*
X87143094Y-69310344D01*
X86911446Y-69353105D01*
X86691478Y-69436750D01*
X86489822Y-69559061D01*
X86313111Y-69717817D01*
X86167977Y-69910801D01*
X86061050Y-70135793D01*
X85998964Y-70390575D01*
X85987569Y-70513377D01*
X86003246Y-70779434D01*
X86073846Y-71031856D01*
X86197282Y-71266182D01*
X86371466Y-71477952D01*
X86594311Y-71662704D01*
X86672561Y-71721123D01*
X86731244Y-71774110D01*
X86753678Y-71807356D01*
X86744732Y-71836339D01*
X86715703Y-71913996D01*
X86669026Y-72033451D01*
X86607231Y-72188362D01*
X86532850Y-72372392D01*
X86448412Y-72579200D01*
X86356449Y-72802446D01*
X86272771Y-73004742D01*
X86186366Y-73213686D01*
X86109138Y-73400498D01*
X86043716Y-73558814D01*
X85992731Y-73682269D01*
X85958812Y-73764498D01*
X85944590Y-73799138D01*
X85944425Y-73799548D01*
X85915972Y-73828798D01*
X85861382Y-73828463D01*
X85773609Y-73796980D01*
X85645608Y-73732785D01*
X85635532Y-73727380D01*
X85540481Y-73678750D01*
X85465424Y-73644328D01*
X85425842Y-73631264D01*
X85393400Y-73646702D01*
X85320895Y-73690258D01*
X85216565Y-73756751D01*
X85088539Y-73840998D01*
X84944948Y-73937816D01*
X84803468Y-74032734D01*
X84672611Y-74117490D01*
X84564292Y-74184496D01*
X84486960Y-74228529D01*
X84449062Y-74244368D01*
X84442607Y-74242357D01*
X84397609Y-74210658D01*
X84320727Y-74145181D01*
X84218721Y-74052048D01*
X84098351Y-73937381D01*
X83966379Y-73807300D01*
X83530039Y-73370232D01*
X84209733Y-72370440D01*
X84106402Y-72146886D01*
X84106096Y-72146225D01*
X84044046Y-72003714D01*
X83980640Y-71845018D01*
X83929558Y-71704368D01*
X83921827Y-71681683D01*
X83882852Y-71576370D01*
X83847707Y-71494534D01*
X83823195Y-71452301D01*
X83813212Y-71446337D01*
X83753286Y-71426329D01*
X83651532Y-71400442D01*
X83519068Y-71371370D01*
X83367011Y-71341806D01*
X83321466Y-71333467D01*
X83156685Y-71303107D01*
X83002930Y-71274509D01*
X82875678Y-71250564D01*
X82790402Y-71234160D01*
X82637126Y-71203906D01*
X82637126Y-70565645D01*
X82637160Y-70487165D01*
X82637808Y-70295703D01*
X82639720Y-70152812D01*
X82643469Y-70051189D01*
X82649622Y-69983531D01*
X82658751Y-69942536D01*
X82671427Y-69920900D01*
X82688218Y-69911320D01*
X82704474Y-69907439D01*
X82770748Y-69893710D01*
X82876479Y-69872745D01*
X83010915Y-69846588D01*
X83163302Y-69817283D01*
X83322890Y-69786877D01*
X83478925Y-69757413D01*
X83620657Y-69730937D01*
X83737331Y-69709494D01*
X83818197Y-69695128D01*
X83852503Y-69689885D01*
X83854822Y-69686720D01*
X83873474Y-69645642D01*
X83905753Y-69567044D01*
X83946391Y-69463621D01*
X84002788Y-69324273D01*
X84072214Y-69163226D01*
X84137288Y-69021291D01*
X84152202Y-68989432D01*
X84194047Y-68889669D01*
X84219118Y-68812721D01*
X84222426Y-68773130D01*
X84220720Y-68770325D01*
X84193631Y-68729005D01*
X84139927Y-68648740D01*
X84064877Y-68537350D01*
X83973746Y-68402655D01*
X83871800Y-68252476D01*
X83756930Y-68081851D01*
X83670761Y-67949311D01*
X83612131Y-67852112D01*
X83577650Y-67784234D01*
X83563926Y-67739656D01*
X83567568Y-67712361D01*
X83568794Y-67710313D01*
X83601747Y-67670536D01*
X83668927Y-67598052D01*
X83763419Y-67500046D01*
X83878306Y-67383702D01*
X84006672Y-67256205D01*
X84139831Y-67126821D01*
X84270269Y-67005209D01*
X84366119Y-66923156D01*
X84429866Y-66878560D01*
X84463996Y-66869317D01*
X84468456Y-66871393D01*
X84515421Y-66899385D01*
X84600685Y-66954084D01*
X84716259Y-67030237D01*
X84854154Y-67122592D01*
X85006381Y-67225897D01*
X85502610Y-67564765D01*
X85726707Y-67463056D01*
X85733219Y-67460109D01*
X85870804Y-67400504D01*
X86016767Y-67341222D01*
X86140575Y-67294685D01*
X86141122Y-67294493D01*
X86239414Y-67258497D01*
X86315081Y-67228095D01*
X86351780Y-67209852D01*
X86352374Y-67209190D01*
X86364833Y-67171831D01*
X86385336Y-67086871D01*
X86411907Y-66963469D01*
X86442567Y-66810782D01*
X86475336Y-66637967D01*
X86476478Y-66631774D01*
X86509193Y-66455431D01*
X86539155Y-66295743D01*
X86564425Y-66162905D01*
X86583065Y-66067113D01*
X86593135Y-66018563D01*
X86593779Y-66015873D01*
X86600408Y-65995088D01*
X86613841Y-65979466D01*
X86641446Y-65968270D01*
X86690593Y-65960762D01*
X86768653Y-65956205D01*
X86882994Y-65953863D01*
X87040986Y-65952998D01*
X87250000Y-65952874D01*
X87276262Y-65952874D01*
X87479175Y-65953045D01*
G36*
X87479175Y-65953045D02*
G01*
X87631895Y-65954039D01*
X87741792Y-65956593D01*
X87816235Y-65961445D01*
X87862594Y-65969331D01*
X87888239Y-65980988D01*
X87900539Y-65997153D01*
X87906865Y-66018563D01*
X87907047Y-66019332D01*
X87917441Y-66069663D01*
X87936339Y-66166888D01*
X87961802Y-66300810D01*
X87991890Y-66461235D01*
X88024664Y-66637967D01*
X88027337Y-66652428D01*
X88060010Y-66823959D01*
X88090413Y-66974625D01*
X88116568Y-67095267D01*
X88136496Y-67176729D01*
X88148220Y-67209852D01*
X88148282Y-67209905D01*
X88185229Y-67228229D01*
X88261057Y-67258677D01*
X88359425Y-67294685D01*
X88364965Y-67296640D01*
X88490724Y-67344170D01*
X88637011Y-67403783D01*
X88773293Y-67463056D01*
X88997390Y-67564765D01*
X89493618Y-67225897D01*
X89528570Y-67202063D01*
X89678280Y-67100755D01*
X89811867Y-67011575D01*
X89921343Y-66939773D01*
X89998718Y-66890603D01*
X90036004Y-66869317D01*
X90061552Y-66874196D01*
X90119555Y-66912002D01*
X90209195Y-66986870D01*
X90332957Y-67100903D01*
X90493328Y-67256205D01*
X90507679Y-67270341D01*
X90634933Y-67396999D01*
X90747969Y-67511745D01*
X90839867Y-67607391D01*
X90903707Y-67676746D01*
X90932570Y-67712620D01*
X90932664Y-67712794D01*
X90936331Y-67740106D01*
X90922808Y-67784408D01*
X90888684Y-67851761D01*
X90830548Y-67948226D01*
X90744988Y-68079863D01*
X90628594Y-68252734D01*
X90608759Y-68281912D01*
X90508445Y-68429726D01*
X90419923Y-68560577D01*
X90348465Y-68666643D01*
X90299343Y-68740102D01*
X90277831Y-68773130D01*
X90276208Y-68780126D01*
X90286387Y-68832326D01*
X90316879Y-68917561D01*
X90362712Y-69021291D01*
X90425000Y-69156951D01*
X90494548Y-69317921D01*
X90553609Y-69463621D01*
X90568252Y-69501333D01*
X90606600Y-69597622D01*
X90634770Y-69664704D01*
X90647497Y-69689885D01*
X90661545Y-69691767D01*
X90724681Y-69702651D01*
X90828019Y-69721449D01*
X90960809Y-69746115D01*
X91112297Y-69774604D01*
X91271732Y-69804873D01*
X91428361Y-69834875D01*
X91571433Y-69862566D01*
X91690195Y-69885900D01*
X91773896Y-69902833D01*
X91811782Y-69911320D01*
X91818063Y-69913713D01*
X91833373Y-69926619D01*
X91844763Y-69954096D01*
X91852803Y-70003446D01*
X91858064Y-70081973D01*
X91861116Y-70196980D01*
X91862529Y-70355770D01*
X91862873Y-70565645D01*
X91862873Y-71203906D01*
X91709598Y-71234160D01*
X91691057Y-71237785D01*
X91592596Y-71256569D01*
X91456448Y-71282093D01*
X91298087Y-71311468D01*
X91132988Y-71341806D01*
X91067973Y-71354009D01*
X90922697Y-71383697D01*
X90801626Y-71411770D01*
X90715886Y-71435536D01*
X90676601Y-71452301D01*
X90658799Y-71479694D01*
X90626389Y-71552174D01*
X90593234Y-71645977D01*
X90581564Y-71681103D01*
X90538604Y-71796409D01*
X90483192Y-71932876D01*
X90424353Y-72067954D01*
X90392884Y-72138509D01*
X90348051Y-72243895D01*
X90317240Y-72322818D01*
X90305785Y-72362053D01*
X90306422Y-72365014D01*
X90328150Y-72406639D01*
X90377146Y-72486969D01*
X90448438Y-72598220D01*
X90537054Y-72732605D01*
X90638023Y-72882340D01*
X90970261Y-73369931D01*
X90533771Y-73807149D01*
X90491555Y-73849221D01*
X90362470Y-73975153D01*
X90247107Y-74083754D01*
X90152224Y-74168903D01*
X90084582Y-74224482D01*
X90050938Y-74244368D01*
X90014402Y-74229238D01*
X89937890Y-74185801D01*
X89830196Y-74119270D01*
X89699767Y-74034867D01*
X89555052Y-73937816D01*
X89412910Y-73841964D01*
X89284678Y-73757557D01*
X89180054Y-73690850D01*
X89107171Y-73647024D01*
X89074158Y-73631264D01*
X89072223Y-73631408D01*
X89028369Y-73646945D01*
X88950598Y-73683121D01*
X88854392Y-73732785D01*
X88853381Y-73733329D01*
X88725605Y-73797326D01*
X88638051Y-73828591D01*
X88583726Y-73828677D01*
X88555641Y-73799138D01*
X88543752Y-73770061D01*
X88511668Y-73692188D01*
X88462247Y-73572475D01*
X88398118Y-73417286D01*
X88321911Y-73232984D01*
X88236255Y-73025933D01*
X88143781Y-72802496D01*
X88059962Y-72599226D01*
X87974678Y-72390649D01*
X87899222Y-72204263D01*
X87836126Y-72046407D01*
X87787923Y-71923419D01*
X87757144Y-71841639D01*
X87746322Y-71807406D01*
X87766991Y-71776015D01*
X87824409Y-71723602D01*
X87905688Y-71662704D01*
X88100820Y-71503387D01*
X88275445Y-71299807D01*
X88403235Y-71075808D01*
X88483402Y-70838003D01*
X88515160Y-70593007D01*
X88497722Y-70347433D01*
X88430301Y-70107895D01*
X88312111Y-69881007D01*
X88142364Y-69673383D01*
X88053856Y-69592527D01*
X87841804Y-69449559D01*
X87614905Y-69356352D01*
X87379791Y-69310687D01*
X87143094Y-69310344D01*
X86911446Y-69353105D01*
X86691478Y-69436750D01*
X86489822Y-69559061D01*
X86313111Y-69717817D01*
X86167977Y-69910801D01*
X86061050Y-70135793D01*
X85998964Y-70390575D01*
X85987569Y-70513377D01*
X86003246Y-70779434D01*
X86073846Y-71031856D01*
X86197282Y-71266182D01*
X86371466Y-71477952D01*
X86594311Y-71662704D01*
X86672561Y-71721123D01*
X86731244Y-71774110D01*
X86753678Y-71807356D01*
X86744732Y-71836339D01*
X86715703Y-71913996D01*
X86669026Y-72033451D01*
X86607231Y-72188362D01*
X86532850Y-72372392D01*
X86448412Y-72579200D01*
X86356449Y-72802446D01*
X86272771Y-73004742D01*
X86186366Y-73213686D01*
X86109138Y-73400498D01*
X86043716Y-73558814D01*
X85992731Y-73682269D01*
X85958812Y-73764498D01*
X85944590Y-73799138D01*
X85944425Y-73799548D01*
X85915972Y-73828798D01*
X85861382Y-73828463D01*
X85773609Y-73796980D01*
X85645608Y-73732785D01*
X85635532Y-73727380D01*
X85540481Y-73678750D01*
X85465424Y-73644328D01*
X85425842Y-73631264D01*
X85393400Y-73646702D01*
X85320895Y-73690258D01*
X85216565Y-73756751D01*
X85088539Y-73840998D01*
X84944948Y-73937816D01*
X84803468Y-74032734D01*
X84672611Y-74117490D01*
X84564292Y-74184496D01*
X84486960Y-74228529D01*
X84449062Y-74244368D01*
X84442607Y-74242357D01*
X84397609Y-74210658D01*
X84320727Y-74145181D01*
X84218721Y-74052048D01*
X84098351Y-73937381D01*
X83966379Y-73807300D01*
X83530039Y-73370232D01*
X84209733Y-72370440D01*
X84106402Y-72146886D01*
X84106096Y-72146225D01*
X84044046Y-72003714D01*
X83980640Y-71845018D01*
X83929558Y-71704368D01*
X83921827Y-71681683D01*
X83882852Y-71576370D01*
X83847707Y-71494534D01*
X83823195Y-71452301D01*
X83813212Y-71446337D01*
X83753286Y-71426329D01*
X83651532Y-71400442D01*
X83519068Y-71371370D01*
X83367011Y-71341806D01*
X83321466Y-71333467D01*
X83156685Y-71303107D01*
X83002930Y-71274509D01*
X82875678Y-71250564D01*
X82790402Y-71234160D01*
X82637126Y-71203906D01*
X82637126Y-70565645D01*
X82637160Y-70487165D01*
X82637808Y-70295703D01*
X82639720Y-70152812D01*
X82643469Y-70051189D01*
X82649622Y-69983531D01*
X82658751Y-69942536D01*
X82671427Y-69920900D01*
X82688218Y-69911320D01*
X82704474Y-69907439D01*
X82770748Y-69893710D01*
X82876479Y-69872745D01*
X83010915Y-69846588D01*
X83163302Y-69817283D01*
X83322890Y-69786877D01*
X83478925Y-69757413D01*
X83620657Y-69730937D01*
X83737331Y-69709494D01*
X83818197Y-69695128D01*
X83852503Y-69689885D01*
X83854822Y-69686720D01*
X83873474Y-69645642D01*
X83905753Y-69567044D01*
X83946391Y-69463621D01*
X84002788Y-69324273D01*
X84072214Y-69163226D01*
X84137288Y-69021291D01*
X84152202Y-68989432D01*
X84194047Y-68889669D01*
X84219118Y-68812721D01*
X84222426Y-68773130D01*
X84220720Y-68770325D01*
X84193631Y-68729005D01*
X84139927Y-68648740D01*
X84064877Y-68537350D01*
X83973746Y-68402655D01*
X83871800Y-68252476D01*
X83756930Y-68081851D01*
X83670761Y-67949311D01*
X83612131Y-67852112D01*
X83577650Y-67784234D01*
X83563926Y-67739656D01*
X83567568Y-67712361D01*
X83568794Y-67710313D01*
X83601747Y-67670536D01*
X83668927Y-67598052D01*
X83763419Y-67500046D01*
X83878306Y-67383702D01*
X84006672Y-67256205D01*
X84139831Y-67126821D01*
X84270269Y-67005209D01*
X84366119Y-66923156D01*
X84429866Y-66878560D01*
X84463996Y-66869317D01*
X84468456Y-66871393D01*
X84515421Y-66899385D01*
X84600685Y-66954084D01*
X84716259Y-67030237D01*
X84854154Y-67122592D01*
X85006381Y-67225897D01*
X85502610Y-67564765D01*
X85726707Y-67463056D01*
X85733219Y-67460109D01*
X85870804Y-67400504D01*
X86016767Y-67341222D01*
X86140575Y-67294685D01*
X86141122Y-67294493D01*
X86239414Y-67258497D01*
X86315081Y-67228095D01*
X86351780Y-67209852D01*
X86352374Y-67209190D01*
X86364833Y-67171831D01*
X86385336Y-67086871D01*
X86411907Y-66963469D01*
X86442567Y-66810782D01*
X86475336Y-66637967D01*
X86476478Y-66631774D01*
X86509193Y-66455431D01*
X86539155Y-66295743D01*
X86564425Y-66162905D01*
X86583065Y-66067113D01*
X86593135Y-66018563D01*
X86593779Y-66015873D01*
X86600408Y-65995088D01*
X86613841Y-65979466D01*
X86641446Y-65968270D01*
X86690593Y-65960762D01*
X86768653Y-65956205D01*
X86882994Y-65953863D01*
X87040986Y-65952998D01*
X87250000Y-65952874D01*
X87276262Y-65952874D01*
X87479175Y-65953045D01*
G37*
D14*
%TO.C,G\u002A\u002A\u002A*%
G36*
X151142669Y-114215268D02*
G01*
X151465505Y-114438747D01*
X151632937Y-114631306D01*
X151772397Y-114890925D01*
X151826923Y-115130829D01*
X151824860Y-115145218D01*
X151756399Y-115268427D01*
X151616384Y-115445413D01*
X151439415Y-115638041D01*
X151260093Y-115808175D01*
X151113018Y-115917680D01*
X151005018Y-115966503D01*
X150850000Y-116003351D01*
X150765172Y-115989046D01*
X150551059Y-115888530D01*
X150296856Y-115712630D01*
X150040943Y-115485891D01*
X149957569Y-115392913D01*
X149816291Y-115118712D01*
X149822451Y-114843930D01*
X149974308Y-114577365D01*
X150270121Y-114327820D01*
X150518795Y-114195860D01*
X150834814Y-114135022D01*
X151142669Y-114215268D01*
G37*
G36*
X148114212Y-112136142D02*
G01*
X148144675Y-112273686D01*
X148168131Y-112503960D01*
X148260247Y-112654226D01*
X148434519Y-112701798D01*
X148589245Y-112727580D01*
X148783092Y-112817506D01*
X148799807Y-112830211D01*
X148884220Y-112912025D01*
X148883807Y-113001657D01*
X148801879Y-113159372D01*
X148771227Y-113220018D01*
X148695156Y-113504352D01*
X148670710Y-113907865D01*
X148670681Y-113923752D01*
X148661382Y-114178299D01*
X148638669Y-114359062D01*
X148607209Y-114427811D01*
X148561569Y-114415749D01*
X148436596Y-114299984D01*
X148308391Y-114093245D01*
X148198658Y-113834757D01*
X148129100Y-113563744D01*
X148092631Y-113476950D01*
X147955802Y-113413449D01*
X147895351Y-113406138D01*
X147835980Y-113351824D01*
X147804141Y-113215258D01*
X147787110Y-112962426D01*
X147785145Y-112816004D01*
X147821645Y-112478849D01*
X147912735Y-112237535D01*
X148050740Y-112116684D01*
X148114212Y-112136142D01*
G37*
G36*
X152029459Y-116317454D02*
G01*
X152011187Y-116391711D01*
X151914313Y-116515429D01*
X151766072Y-116660519D01*
X151593699Y-116798891D01*
X151424425Y-116902457D01*
X151345469Y-116943987D01*
X151095467Y-117109462D01*
X150898334Y-117284646D01*
X150824848Y-117363893D01*
X150676674Y-117485101D01*
X150578907Y-117482474D01*
X150512212Y-117359771D01*
X150459406Y-117270969D01*
X150311704Y-117107316D01*
X150112622Y-116931515D01*
X149854306Y-116717144D01*
X149648390Y-116514517D01*
X149573507Y-116385290D01*
X149629626Y-116329402D01*
X149816716Y-116346789D01*
X149821503Y-116347823D01*
X150016688Y-116404828D01*
X150147263Y-116468361D01*
X150243833Y-116505037D01*
X150452722Y-116541663D01*
X150716469Y-116567990D01*
X150984282Y-116580506D01*
X151205370Y-116575699D01*
X151328938Y-116550058D01*
X151342965Y-116541667D01*
X151487832Y-116475135D01*
X151688957Y-116398394D01*
X151881625Y-116334783D01*
X152001123Y-116307640D01*
X152029459Y-116317454D01*
G37*
G36*
X153378613Y-112064185D02*
G01*
X153476247Y-112229734D01*
X153558728Y-112402591D01*
X153643824Y-112574218D01*
X153670873Y-112657192D01*
X153668148Y-112927797D01*
X153581228Y-113322519D01*
X153536967Y-113400123D01*
X153408362Y-113414371D01*
X153384301Y-113407580D01*
X153296763Y-113425323D01*
X153273521Y-113559776D01*
X153249254Y-113729730D01*
X153159577Y-113981056D01*
X153031691Y-114207844D01*
X152895393Y-114347980D01*
X152819645Y-114391300D01*
X152754415Y-114425525D01*
X152754006Y-114425289D01*
X152749415Y-114349238D01*
X152748189Y-114163319D01*
X152750608Y-113905457D01*
X152750924Y-113882541D01*
X152742866Y-113571765D01*
X152705090Y-113370526D01*
X152630956Y-113241996D01*
X152621906Y-113231819D01*
X152520318Y-113045001D01*
X152563052Y-112888339D01*
X152746452Y-112766509D01*
X153066864Y-112684188D01*
X153141963Y-112657729D01*
X153208774Y-112555043D01*
X153240268Y-112341807D01*
X153259694Y-112172718D01*
X153307133Y-112044846D01*
X153378613Y-112064185D01*
G37*
G36*
X152719721Y-107359819D02*
G01*
X152927135Y-107426345D01*
X153179586Y-107500483D01*
X153355740Y-107550335D01*
X153541569Y-107610253D01*
X153623145Y-107660899D01*
X153625427Y-107722133D01*
X153573376Y-107813815D01*
X153539573Y-107875846D01*
X153537206Y-107944134D01*
X153613798Y-107993213D01*
X153792816Y-108035072D01*
X154097727Y-108081700D01*
X154362476Y-108139882D01*
X154525293Y-108222842D01*
X154561678Y-108317993D01*
X154459848Y-108414506D01*
X154372974Y-108474837D01*
X154348877Y-108559440D01*
X154455965Y-108618939D01*
X154682544Y-108641420D01*
X154920738Y-108668854D01*
X155035891Y-108749155D01*
X155014764Y-108876484D01*
X154935464Y-108924920D01*
X154737550Y-108941069D01*
X154464728Y-108913261D01*
X154152484Y-108850394D01*
X153836307Y-108761365D01*
X153551682Y-108655071D01*
X153334096Y-108540408D01*
X153219037Y-108426273D01*
X153114105Y-108297648D01*
X152936276Y-108183132D01*
X152795979Y-108091862D01*
X152681155Y-107899215D01*
X152625647Y-107752122D01*
X152522390Y-107611747D01*
X152466874Y-107546449D01*
X152447848Y-107420812D01*
X152511389Y-107329801D01*
X152635397Y-107328762D01*
X152719721Y-107359819D01*
G37*
G36*
X153264503Y-109566022D02*
G01*
X153329882Y-109618343D01*
X153301699Y-109662021D01*
X153179586Y-109693491D01*
X153092357Y-109704691D01*
X153029290Y-109753414D01*
X153086244Y-109778826D01*
X153255943Y-109792292D01*
X153498965Y-109787763D01*
X153636420Y-109783352D01*
X153905699Y-109797498D01*
X154083721Y-109840661D01*
X154150897Y-109906197D01*
X154087640Y-109987461D01*
X153991771Y-110028008D01*
X153761893Y-110089049D01*
X153457512Y-110150288D01*
X153122126Y-110204850D01*
X152799234Y-110245861D01*
X152532335Y-110266446D01*
X152364926Y-110259729D01*
X152359873Y-110258631D01*
X152184778Y-110249188D01*
X152102329Y-110327064D01*
X152019478Y-110405052D01*
X151838897Y-110398519D01*
X151677089Y-110389353D01*
X151566133Y-110441366D01*
X151517686Y-110490062D01*
X151398499Y-110482456D01*
X151271197Y-110349940D01*
X151263416Y-110335841D01*
X151265934Y-110189909D01*
X151371096Y-110023273D01*
X151544065Y-109862961D01*
X151750005Y-109736001D01*
X151954081Y-109669421D01*
X152121457Y-109690249D01*
X152272130Y-109724589D01*
X152477731Y-109655419D01*
X152478585Y-109654974D01*
X152659746Y-109592089D01*
X152882446Y-109554939D01*
X153099695Y-109545569D01*
X153264503Y-109566022D01*
G37*
G36*
X149427097Y-111107188D02*
G01*
X149442243Y-111352496D01*
X149412336Y-111515453D01*
X149345865Y-111590140D01*
X149174952Y-111614543D01*
X149126733Y-111605354D01*
X148916838Y-111571351D01*
X148668749Y-111536637D01*
X148598956Y-111527051D01*
X148409671Y-111479902D01*
X148296110Y-111383340D01*
X148199298Y-111194368D01*
X148087464Y-110936231D01*
X148471368Y-110936231D01*
X148475293Y-111048624D01*
X148560521Y-111199249D01*
X148722558Y-111319436D01*
X148910252Y-111324178D01*
X149076629Y-111184203D01*
X149125083Y-111102767D01*
X149152625Y-110977704D01*
X149094573Y-110937702D01*
X148968577Y-111011046D01*
X148841288Y-111085163D01*
X148719954Y-111062819D01*
X148670710Y-110928997D01*
X148637448Y-110838806D01*
X148551850Y-110835307D01*
X148471368Y-110936231D01*
X148087464Y-110936231D01*
X148069973Y-110895858D01*
X147543714Y-110895858D01*
X147440379Y-110895190D01*
X147166464Y-110881837D01*
X147033523Y-110850291D01*
X147042996Y-110799166D01*
X147196324Y-110727076D01*
X147494951Y-110632634D01*
X147940317Y-110514453D01*
X148078996Y-110481116D01*
X148371786Y-110430886D01*
X148634481Y-110429617D01*
X148946628Y-110474121D01*
X149000948Y-110485523D01*
X149205556Y-110560867D01*
X149312995Y-110657238D01*
X149373693Y-110838245D01*
X149401385Y-110977704D01*
X149427097Y-111107188D01*
G37*
G36*
X148968355Y-107371386D02*
G01*
X148912096Y-107516599D01*
X148858232Y-107620408D01*
X148821006Y-107752569D01*
X148788465Y-107850178D01*
X148666870Y-108004363D01*
X148506223Y-108135265D01*
X148361454Y-108190533D01*
X148289177Y-108200567D01*
X148182249Y-108265680D01*
X148170506Y-108294790D01*
X148215388Y-108340828D01*
X148236744Y-108342919D01*
X148294970Y-108397632D01*
X148260341Y-108444220D01*
X148097884Y-108539094D01*
X147816262Y-108660789D01*
X147430769Y-108802147D01*
X147156228Y-108880919D01*
X146832540Y-108929954D01*
X146578081Y-108917132D01*
X146426126Y-108841163D01*
X146377263Y-108735677D01*
X146454615Y-108664523D01*
X146673028Y-108640269D01*
X146822271Y-108632291D01*
X146996118Y-108585157D01*
X147039332Y-108503103D01*
X146942622Y-108394596D01*
X146850055Y-108325251D01*
X146825778Y-108265602D01*
X146916182Y-108204521D01*
X146972343Y-108180538D01*
X147172426Y-108123368D01*
X147417959Y-108075799D01*
X147477667Y-108065182D01*
X147683793Y-107999093D01*
X147819705Y-107911282D01*
X147860795Y-107823295D01*
X147782455Y-107756676D01*
X147745752Y-107742132D01*
X147694527Y-107678125D01*
X147775558Y-107611505D01*
X147975592Y-107556042D01*
X148029940Y-107545426D01*
X148304592Y-107475440D01*
X148578451Y-107386534D01*
X148714527Y-107340964D01*
X148902266Y-107312750D01*
X148968355Y-107371386D01*
G37*
G36*
X149778685Y-109838485D02*
G01*
X149889084Y-109927193D01*
X150058270Y-110113519D01*
X150140167Y-110282967D01*
X150115397Y-110403045D01*
X150045084Y-110438038D01*
X149882968Y-110431391D01*
X149737811Y-110354793D01*
X149669814Y-110302511D01*
X149647633Y-110354793D01*
X149647408Y-110362217D01*
X149590730Y-110436440D01*
X149472304Y-110425347D01*
X149347644Y-110332975D01*
X149268244Y-110274195D01*
X149074601Y-110266180D01*
X148935692Y-110277169D01*
X148693064Y-110261888D01*
X148393347Y-110223397D01*
X148070955Y-110168309D01*
X147760301Y-110103237D01*
X147495798Y-110034792D01*
X147311860Y-109969586D01*
X147242899Y-109914233D01*
X147258408Y-109879937D01*
X147376780Y-109812504D01*
X147557069Y-109768639D01*
X148257396Y-109768639D01*
X148272778Y-109789162D01*
X148374553Y-109843787D01*
X148391331Y-109841636D01*
X148445266Y-109768639D01*
X148430928Y-109732726D01*
X148328109Y-109693491D01*
X148274432Y-109704305D01*
X148257396Y-109768639D01*
X147557069Y-109768639D01*
X147567685Y-109766056D01*
X147778136Y-109756233D01*
X147927082Y-109738106D01*
X148069142Y-109656380D01*
X148133775Y-109604394D01*
X148344533Y-109550067D01*
X148623094Y-109567838D01*
X148926267Y-109657643D01*
X148934507Y-109661063D01*
X149171788Y-109728208D01*
X149340174Y-109697166D01*
X149433193Y-109670048D01*
X149573811Y-109707735D01*
X149669242Y-109768639D01*
X149778685Y-109838485D01*
G37*
G36*
X153254734Y-111076834D02*
G01*
X153245009Y-111155643D01*
X153126577Y-111348980D01*
X152892957Y-111495541D01*
X152568633Y-111577459D01*
X152408487Y-111597130D01*
X152211523Y-111622473D01*
X152113163Y-111636757D01*
X152024840Y-111599874D01*
X151972223Y-111458811D01*
X151959918Y-111252609D01*
X151986423Y-111021749D01*
X151992599Y-111000937D01*
X152277639Y-111000937D01*
X152302546Y-111139967D01*
X152367988Y-111256568D01*
X152374125Y-111262514D01*
X152549592Y-111341628D01*
X152742033Y-111314684D01*
X152882137Y-111190578D01*
X152930335Y-111025462D01*
X152901664Y-110880795D01*
X152801770Y-110820710D01*
X152775729Y-110824938D01*
X152761010Y-110887343D01*
X152762064Y-110945882D01*
X152682165Y-111053589D01*
X152664711Y-111067701D01*
X152561378Y-111110164D01*
X152468051Y-111024530D01*
X152403673Y-110949067D01*
X152325887Y-110895858D01*
X152301068Y-110906308D01*
X152277639Y-111000937D01*
X151992599Y-111000937D01*
X152050235Y-110806711D01*
X152149853Y-110647976D01*
X152198774Y-110607218D01*
X152438383Y-110500260D01*
X152758459Y-110441730D01*
X153109650Y-110437525D01*
X153442604Y-110493540D01*
X153466010Y-110500186D01*
X153758195Y-110576965D01*
X154043787Y-110643836D01*
X154116191Y-110660771D01*
X154294705Y-110728101D01*
X154327445Y-110793503D01*
X154217671Y-110846826D01*
X153968639Y-110877921D01*
X153708922Y-110896119D01*
X153444440Y-110935214D01*
X153299121Y-110993759D01*
X153282182Y-111025462D01*
X153254734Y-111076834D01*
G37*
G36*
X157290645Y-111752958D02*
G01*
X157246107Y-111847050D01*
X157236747Y-111967555D01*
X157222959Y-112219224D01*
X157190933Y-112482939D01*
X157145946Y-112754931D01*
X157726036Y-113075148D01*
X157764472Y-113096371D01*
X158027290Y-113244571D01*
X158184878Y-113349097D01*
X158260961Y-113435674D01*
X158279267Y-113530027D01*
X158263525Y-113657881D01*
X158258825Y-113685528D01*
X158216587Y-113867604D01*
X158174160Y-113967161D01*
X158163834Y-113973139D01*
X158040565Y-113998651D01*
X157816298Y-114022792D01*
X157530534Y-114041030D01*
X157292698Y-114051812D01*
X157088181Y-114073931D01*
X156948892Y-114129339D01*
X156841284Y-114243099D01*
X156731805Y-114440271D01*
X156586905Y-114745919D01*
X156419039Y-115101600D01*
X156834416Y-115588182D01*
X157249793Y-116074764D01*
X157114759Y-116303358D01*
X157090729Y-116343274D01*
X157007388Y-116454414D01*
X156908388Y-116510297D01*
X156761879Y-116513218D01*
X156536011Y-116465474D01*
X156198935Y-116369358D01*
X155648757Y-116206287D01*
X155262612Y-116592431D01*
X154876468Y-116978576D01*
X155107393Y-117638252D01*
X155338317Y-118297929D01*
X155588730Y-118276864D01*
X155621305Y-118274513D01*
X156077085Y-118308282D01*
X156543452Y-118448806D01*
X156633776Y-118498830D01*
X156955769Y-118677158D01*
X157110841Y-118797975D01*
X157256486Y-118931477D01*
X157312722Y-119012564D01*
X157245554Y-119050206D01*
X157064283Y-119077362D01*
X156805473Y-119088008D01*
X156544332Y-119094156D01*
X156298788Y-119111193D01*
X156147929Y-119135137D01*
X156115777Y-119148946D01*
X155965826Y-119258980D01*
X155774657Y-119440688D01*
X155572827Y-119659592D01*
X155390891Y-119881215D01*
X155259403Y-120071078D01*
X155208918Y-120194704D01*
X155213647Y-120219661D01*
X155288217Y-120360463D01*
X155434550Y-120564454D01*
X155628234Y-120796598D01*
X156047213Y-121266272D01*
X156637958Y-121266272D01*
X156707246Y-121266742D01*
X156979842Y-121278442D01*
X157180973Y-121302660D01*
X157271250Y-121335114D01*
X157248582Y-121404351D01*
X157135564Y-121541338D01*
X156956307Y-121710368D01*
X156598817Y-122016781D01*
X155753402Y-122017266D01*
X155449278Y-122013474D01*
X155168555Y-122001122D01*
X154978128Y-121982208D01*
X154907988Y-121958806D01*
X154906773Y-121951953D01*
X154834128Y-121871548D01*
X154683702Y-121767371D01*
X154586808Y-121695903D01*
X154396548Y-121506988D01*
X154218987Y-121281494D01*
X154115121Y-121134177D01*
X153982717Y-120962279D01*
X153898451Y-120872896D01*
X153878534Y-120867882D01*
X153731073Y-120856223D01*
X153456300Y-120845521D01*
X153070490Y-120836066D01*
X152589920Y-120828149D01*
X152030866Y-120822062D01*
X151409603Y-120818093D01*
X150742408Y-120816535D01*
X147666473Y-120815385D01*
X147169246Y-121322633D01*
X147018225Y-121476784D01*
X146781420Y-121711774D01*
X146598675Y-121866531D01*
X146434692Y-121957780D01*
X146254173Y-122002249D01*
X146021818Y-122016664D01*
X145702330Y-122017751D01*
X144982044Y-122017751D01*
X144571939Y-121714789D01*
X144365569Y-121552382D01*
X144218093Y-121417286D01*
X144161834Y-121339050D01*
X144166430Y-121329793D01*
X144268342Y-121297169D01*
X144479035Y-121274663D01*
X144765357Y-121266272D01*
X145368880Y-121266272D01*
X145817428Y-120800705D01*
X145880599Y-120733692D01*
X146078724Y-120501447D01*
X146215021Y-120306130D01*
X146265639Y-120180734D01*
X146261175Y-120153421D01*
X146187012Y-120003140D01*
X146040519Y-119792001D01*
X145846322Y-119556657D01*
X145427344Y-119086982D01*
X144794589Y-119086982D01*
X144690814Y-119086055D01*
X144418717Y-119073223D01*
X144231500Y-119048216D01*
X144161834Y-119014762D01*
X144200209Y-118921741D01*
X144350270Y-118767495D01*
X144585563Y-118598734D01*
X144875740Y-118439895D01*
X145268210Y-118309087D01*
X145763337Y-118260478D01*
X146237621Y-118327371D01*
X146245106Y-118329483D01*
X146426403Y-118360723D01*
X146541292Y-118346158D01*
X146551609Y-118336286D01*
X146607058Y-118214394D01*
X146664417Y-118004614D01*
X146715284Y-117753496D01*
X146751261Y-117507585D01*
X146763949Y-117313430D01*
X146744947Y-117217578D01*
X146677469Y-117163019D01*
X146520025Y-117037187D01*
X146317578Y-116876215D01*
X145955866Y-116589238D01*
X145447383Y-116823613D01*
X145415909Y-116838038D01*
X145159597Y-116949399D01*
X144955092Y-117028132D01*
X144844218Y-117057988D01*
X144772221Y-117030960D01*
X144638425Y-116918650D01*
X144518645Y-116770885D01*
X144465165Y-116644675D01*
X144465341Y-116641056D01*
X144509267Y-116537053D01*
X144615628Y-116350312D01*
X144763018Y-116118639D01*
X144771773Y-116105434D01*
X144918926Y-115866585D01*
X145023505Y-115665932D01*
X145063370Y-115545708D01*
X145062750Y-115534488D01*
X145017170Y-115386249D01*
X144918734Y-115170899D01*
X144794774Y-114939828D01*
X144672620Y-114744427D01*
X144626603Y-114690828D01*
X146228402Y-114690828D01*
X146242663Y-114768332D01*
X146322337Y-114859911D01*
X146387514Y-114837139D01*
X146416272Y-114690828D01*
X146395414Y-114558737D01*
X146322337Y-114521746D01*
X146272735Y-114559194D01*
X146228402Y-114690828D01*
X144626603Y-114690828D01*
X144579605Y-114636087D01*
X144569007Y-114630942D01*
X144436421Y-114613458D01*
X144205239Y-114612050D01*
X143918175Y-114627287D01*
X143336350Y-114673228D01*
X143231114Y-114422946D01*
X143219052Y-114393200D01*
X143163474Y-114210292D01*
X143157857Y-114093580D01*
X143212686Y-114029974D01*
X143362668Y-113903125D01*
X143568367Y-113751479D01*
X143728075Y-113640266D01*
X143947303Y-113478190D01*
X144075332Y-113350095D01*
X144132666Y-113221285D01*
X144139812Y-113057066D01*
X144117275Y-112822743D01*
X144087147Y-112607503D01*
X144040170Y-112388781D01*
X143992989Y-112267843D01*
X143983948Y-112258652D01*
X143858564Y-112187850D01*
X143636997Y-112097499D01*
X143360659Y-112004825D01*
X142984537Y-111890538D01*
X145219302Y-111890538D01*
X145252822Y-111935076D01*
X145335081Y-111912201D01*
X145425177Y-111881479D01*
X145627219Y-111843835D01*
X145653795Y-111842977D01*
X145720250Y-111860484D01*
X145753729Y-111933668D01*
X145761596Y-112093938D01*
X145751214Y-112372701D01*
X145745226Y-112551590D01*
X145755069Y-112828920D01*
X145799274Y-113096128D01*
X145887374Y-113402077D01*
X146028907Y-113795632D01*
X146144984Y-114102803D01*
X146403837Y-113927141D01*
X146513988Y-113859101D01*
X146729028Y-113769034D01*
X146884719Y-113763008D01*
X146951632Y-113845414D01*
X146953881Y-113903159D01*
X146952458Y-114088026D01*
X146944982Y-114329345D01*
X146943728Y-114387742D01*
X146967212Y-114690828D01*
X146970768Y-114736721D01*
X147044636Y-115103780D01*
X147151409Y-115432823D01*
X147277164Y-115667751D01*
X147331136Y-115733432D01*
X147406804Y-115773312D01*
X147487130Y-115698813D01*
X147582315Y-115605432D01*
X147754952Y-115486942D01*
X147760927Y-115483792D01*
X147917408Y-115437150D01*
X148035872Y-115495227D01*
X148130290Y-115673200D01*
X148214634Y-115986242D01*
X148286383Y-116274920D01*
X148400911Y-116665248D01*
X148535398Y-117075647D01*
X148675525Y-117464702D01*
X148806973Y-117790998D01*
X148915422Y-118013119D01*
X148975247Y-118125114D01*
X148997309Y-118230636D01*
X148924893Y-118261333D01*
X148744589Y-118219932D01*
X148442984Y-118109159D01*
X148286648Y-118055050D01*
X148081398Y-118009088D01*
X147960044Y-118015224D01*
X147958729Y-118015999D01*
X147859093Y-118100518D01*
X147696319Y-118263205D01*
X147504976Y-118469550D01*
X147149259Y-118866615D01*
X147368192Y-119221029D01*
X147587126Y-119575444D01*
X148391936Y-119596773D01*
X149196746Y-119618102D01*
X149195736Y-119500296D01*
X149948225Y-119500296D01*
X149994687Y-119579411D01*
X150173669Y-119613018D01*
X150220668Y-119611587D01*
X150366153Y-119575252D01*
X150375157Y-119550559D01*
X150895416Y-119550559D01*
X150896278Y-119551791D01*
X150990045Y-119582682D01*
X151190500Y-119604653D01*
X151455618Y-119613018D01*
X151642554Y-119610896D01*
X151847813Y-119595304D01*
X151949701Y-119558971D01*
X151977219Y-119495356D01*
X151974674Y-119444638D01*
X151906579Y-119245837D01*
X151773672Y-119120961D01*
X151613598Y-119092828D01*
X151464002Y-119184259D01*
X151452748Y-119196352D01*
X151316015Y-119291149D01*
X151120042Y-119384818D01*
X151070803Y-119405548D01*
X150931963Y-119486601D01*
X150919860Y-119507782D01*
X150895416Y-119550559D01*
X150375157Y-119550559D01*
X150390755Y-119507782D01*
X150280244Y-119433188D01*
X150164554Y-119398365D01*
X150006032Y-119403933D01*
X149948225Y-119500296D01*
X149195736Y-119500296D01*
X149194953Y-119408903D01*
X149194416Y-119385985D01*
X149171442Y-119158571D01*
X149125662Y-118908781D01*
X149083188Y-118658743D01*
X149100619Y-118502962D01*
X149185869Y-118479579D01*
X149338078Y-118589886D01*
X149357905Y-118608542D01*
X149710538Y-118848815D01*
X150146724Y-118987606D01*
X150685152Y-119031034D01*
X150987843Y-119021426D01*
X151475500Y-118953830D01*
X151841768Y-118819129D01*
X152096702Y-118614355D01*
X152100790Y-118609108D01*
X152737642Y-118609108D01*
X152743832Y-119012719D01*
X152763078Y-119495356D01*
X152766272Y-119575444D01*
X153179586Y-119585600D01*
X153300609Y-119587787D01*
X153608417Y-119578170D01*
X153817307Y-119533427D01*
X153965632Y-119441071D01*
X154091746Y-119288614D01*
X154114169Y-119256550D01*
X154288945Y-119029723D01*
X154477457Y-118811687D01*
X154533989Y-118747572D01*
X154642039Y-118595005D01*
X154672190Y-118498830D01*
X154669645Y-118493494D01*
X154588280Y-118404836D01*
X154422648Y-118258467D01*
X154205094Y-118083169D01*
X153765217Y-117742643D01*
X153378467Y-117896721D01*
X153222102Y-117959034D01*
X153016675Y-118040960D01*
X152897132Y-118088718D01*
X152811596Y-118166852D01*
X152759125Y-118333816D01*
X152737642Y-118609108D01*
X152100790Y-118609108D01*
X152129150Y-118572705D01*
X152263251Y-118366209D01*
X152421823Y-118085640D01*
X152577098Y-117779270D01*
X152622052Y-117683682D01*
X152749922Y-117392961D01*
X152864929Y-117093602D01*
X152978773Y-116751162D01*
X153103158Y-116331196D01*
X153249784Y-115799260D01*
X153258733Y-115766577D01*
X153325140Y-115580754D01*
X153409512Y-115498463D01*
X153549176Y-115479882D01*
X153694608Y-115505209D01*
X153881365Y-115648964D01*
X154000292Y-115818047D01*
X154149317Y-115630177D01*
X154149508Y-115629936D01*
X154319425Y-115307375D01*
X154422440Y-114855881D01*
X154457101Y-114281812D01*
X154457545Y-114111333D01*
X154465596Y-113904908D01*
X154493556Y-113797897D01*
X154553852Y-113757640D01*
X154658914Y-113751479D01*
X154840149Y-113793448D01*
X155029091Y-113909648D01*
X155031629Y-113912020D01*
X155170743Y-114008593D01*
X155270812Y-114022479D01*
X155278256Y-114017238D01*
X155361802Y-113888511D01*
X155449617Y-113650727D01*
X155532909Y-113340937D01*
X155602885Y-112996191D01*
X155650751Y-112653542D01*
X155667715Y-112350039D01*
X155667696Y-112306756D01*
X155677161Y-112048629D01*
X155700178Y-111866562D01*
X155732405Y-111797633D01*
X155826127Y-111816216D01*
X155992741Y-111870921D01*
X156119211Y-111908629D01*
X156175286Y-111866432D01*
X156185503Y-111706639D01*
X156164189Y-111479705D01*
X156102804Y-111135012D01*
X156007020Y-110702783D01*
X155882512Y-110211033D01*
X155873941Y-110170280D01*
X155852879Y-109948664D01*
X155842854Y-109612847D01*
X155844317Y-109190195D01*
X155857719Y-108708074D01*
X155869509Y-108324694D01*
X155868608Y-107607973D01*
X155829704Y-106951928D01*
X155748357Y-106298282D01*
X155620129Y-105588760D01*
X155556845Y-105286112D01*
X155493630Y-105028944D01*
X155431826Y-104853408D01*
X155358178Y-104723251D01*
X155259431Y-104602219D01*
X155209499Y-104550529D01*
X155076646Y-104462473D01*
X154917700Y-104448542D01*
X154698891Y-104510605D01*
X154386448Y-104650531D01*
X154385241Y-104651116D01*
X154099152Y-104797276D01*
X153859849Y-104942377D01*
X153630109Y-105114254D01*
X153372710Y-105340747D01*
X153050430Y-105649690D01*
X152583108Y-106107237D01*
X152223802Y-106032199D01*
X152109399Y-106008033D01*
X151889629Y-105960066D01*
X151751775Y-105927841D01*
X151665744Y-105950669D01*
X151615275Y-106105177D01*
X151588708Y-106246965D01*
X151554099Y-106311834D01*
X151493689Y-106291856D01*
X151329828Y-106223728D01*
X151105975Y-106123964D01*
X150941117Y-106050471D01*
X150710996Y-105965104D01*
X150570599Y-105954104D01*
X150492171Y-106019053D01*
X150447959Y-106161538D01*
X150420345Y-106274601D01*
X150367724Y-106355715D01*
X150267586Y-106369435D01*
X150090092Y-106317652D01*
X149805400Y-106202257D01*
X149761491Y-106184122D01*
X149394876Y-106069029D01*
X149112546Y-106057186D01*
X149003833Y-106067370D01*
X148887696Y-106046782D01*
X148757471Y-105973502D01*
X148582605Y-105829494D01*
X148332544Y-105596720D01*
X147900955Y-105221370D01*
X147311040Y-104808587D01*
X146732265Y-104513020D01*
X146710963Y-104504650D01*
X146429186Y-104462005D01*
X146192744Y-104562229D01*
X146005619Y-104803731D01*
X145988105Y-104839700D01*
X145884100Y-105140999D01*
X145788595Y-105558849D01*
X145704290Y-106064306D01*
X145633884Y-106628424D01*
X145580077Y-107222256D01*
X145545569Y-107816856D01*
X145533058Y-108383280D01*
X145545245Y-108892580D01*
X145584828Y-109315811D01*
X145627418Y-109644545D01*
X145639614Y-109876320D01*
X145619672Y-110050716D01*
X145566677Y-110212967D01*
X145561237Y-110226459D01*
X145441962Y-110596281D01*
X145332739Y-111069940D01*
X145243891Y-111602981D01*
X145225336Y-111747440D01*
X145219302Y-111890538D01*
X142984537Y-111890538D01*
X142802441Y-111835207D01*
X142824593Y-111544590D01*
X142831179Y-111478382D01*
X142866479Y-111344280D01*
X142948694Y-111242282D01*
X143102828Y-111156454D01*
X143353883Y-111070860D01*
X143726864Y-110969565D01*
X143884410Y-110920568D01*
X144038518Y-110830181D01*
X144142695Y-110683577D01*
X144216771Y-110449499D01*
X144280574Y-110096687D01*
X144298334Y-109964648D01*
X144291680Y-109842821D01*
X144232621Y-109735446D01*
X144099355Y-109606598D01*
X143870076Y-109420355D01*
X143662464Y-109251015D01*
X143502820Y-109097694D01*
X143432060Y-108972857D01*
X143432836Y-108842584D01*
X143487799Y-108672956D01*
X143565242Y-108469263D01*
X144262720Y-108518291D01*
X144960198Y-108567319D01*
X145134014Y-108258054D01*
X145156682Y-108217012D01*
X145248143Y-108009661D01*
X145277869Y-107805527D01*
X145258618Y-107530068D01*
X145232551Y-107371052D01*
X145155897Y-107087375D01*
X145061360Y-106871803D01*
X145037706Y-106833024D01*
X144949152Y-106676430D01*
X144913314Y-106592716D01*
X144919508Y-106576658D01*
X144994622Y-106474726D01*
X145127653Y-106323722D01*
X145161966Y-106284853D01*
X145325429Y-106008236D01*
X145437820Y-105620656D01*
X145543462Y-105160719D01*
X145705924Y-104647590D01*
X145886522Y-104279046D01*
X146084395Y-104056720D01*
X146298685Y-103982249D01*
X146346700Y-103985031D01*
X146609396Y-104059492D01*
X146921572Y-104220015D01*
X147241234Y-104445939D01*
X147309536Y-104497530D01*
X147508351Y-104612644D01*
X147665900Y-104658580D01*
X147765850Y-104690244D01*
X147965634Y-104842701D01*
X148225015Y-105115462D01*
X148379521Y-105291844D01*
X148534216Y-105443150D01*
X148677904Y-105520681D01*
X148849795Y-105533792D01*
X149089099Y-105491838D01*
X149435027Y-105404176D01*
X149554102Y-105368780D01*
X149668282Y-105299638D01*
X149736977Y-105171279D01*
X149794685Y-104939090D01*
X149818043Y-104829616D01*
X149897279Y-104470035D01*
X149960807Y-104229124D01*
X150020933Y-104084111D01*
X150089965Y-104012224D01*
X150180209Y-103990691D01*
X150303973Y-103996741D01*
X150432845Y-104012727D01*
X150528105Y-104054355D01*
X150604675Y-104150148D01*
X150685439Y-104329300D01*
X150793281Y-104621006D01*
X150830687Y-104723372D01*
X150932073Y-104987396D01*
X151014021Y-105182020D01*
X151061557Y-105270968D01*
X151062944Y-105272154D01*
X151164288Y-105303111D01*
X151370651Y-105337364D01*
X151639053Y-105367713D01*
X152165089Y-105415678D01*
X152484951Y-104924407D01*
X152604082Y-104746133D01*
X152756849Y-104552421D01*
X152887838Y-104460138D01*
X153028996Y-104450925D01*
X153212268Y-104506424D01*
X153239661Y-104517512D01*
X153369758Y-104621422D01*
X153405030Y-104807016D01*
X153405043Y-104811339D01*
X153427182Y-104968970D01*
X153478858Y-105034320D01*
X153559635Y-104991242D01*
X153715414Y-104868319D01*
X153908344Y-104693540D01*
X153957901Y-104646969D01*
X154271119Y-104387630D01*
X154587864Y-104176408D01*
X154873208Y-104034286D01*
X155092224Y-103982249D01*
X155168763Y-103990767D01*
X155384095Y-104114632D01*
X155581142Y-104383129D01*
X155757702Y-104792616D01*
X155911575Y-105339445D01*
X155935606Y-105448773D01*
X156007381Y-105837722D01*
X156070749Y-106268077D01*
X156121657Y-106702049D01*
X156156053Y-107101849D01*
X156169885Y-107429690D01*
X156159101Y-107647783D01*
X156142762Y-107879346D01*
X156202025Y-108019469D01*
X156356738Y-108055195D01*
X156622579Y-107998384D01*
X156665113Y-107985641D01*
X156998999Y-107904696D01*
X157231010Y-107897517D01*
X157389562Y-107968035D01*
X157503072Y-108120182D01*
X157506476Y-108126768D01*
X157567344Y-108260769D01*
X157569584Y-108363415D01*
X157499113Y-108482298D01*
X157341850Y-108665004D01*
X157233913Y-108785126D01*
X157041520Y-108995159D01*
X156892822Y-109152645D01*
X156724080Y-109325705D01*
X156877955Y-109791403D01*
X156958495Y-110021608D01*
X157037457Y-110220542D01*
X157089540Y-110320903D01*
X157098533Y-110327800D01*
X157221560Y-110367731D01*
X157445155Y-110411176D01*
X157728444Y-110449884D01*
X157795657Y-110457550D01*
X158060089Y-110490486D01*
X158249734Y-110518559D01*
X158327246Y-110536377D01*
X158331009Y-110544159D01*
X158358523Y-110651465D01*
X158395366Y-110837166D01*
X158445877Y-111116640D01*
X157841725Y-111420401D01*
X157589777Y-111549482D01*
X157396491Y-111661647D01*
X157344337Y-111706639D01*
X157290645Y-111752958D01*
G37*
%TD*%
D15*
X120250000Y-82622800D03*
X112750000Y-82622800D03*
X120250000Y-77582800D03*
X112750000Y-77582800D03*
X120250000Y-87662800D03*
X112750000Y-87662800D03*
X120250000Y-62322800D03*
X112750000Y-62322800D03*
X149000000Y-82590000D03*
X141500000Y-82590000D03*
X149000000Y-77550000D03*
X141500000Y-77550000D03*
X149000000Y-87630000D03*
X141500000Y-87630000D03*
X141500000Y-62290000D03*
X149000000Y-62290000D03*
X73152000Y-81026000D03*
X73152000Y-75946000D03*
X130490808Y-132232500D03*
X133030808Y-129692500D03*
X127950808Y-129692500D03*
X133030808Y-134772500D03*
X127950808Y-134772500D03*
X154300000Y-96000000D03*
X70600000Y-121850000D03*
X70600000Y-119350000D03*
X70600000Y-116850000D03*
X70600000Y-114350000D03*
X70600000Y-111850000D03*
X70600000Y-109350000D03*
X70600000Y-106850000D03*
X70600000Y-104350000D03*
X101727000Y-76200000D03*
X99187000Y-73660000D03*
X99187000Y-78740000D03*
X104267000Y-73660000D03*
X104267000Y-78740000D03*
X83075000Y-130096000D03*
X80535000Y-130096000D03*
X77995000Y-130096000D03*
X112969808Y-132232500D03*
X110429808Y-129692500D03*
X110429808Y-134772500D03*
X115509808Y-129692500D03*
X115509808Y-134772500D03*
X154300000Y-82550000D03*
X120250000Y-93250000D03*
X120250000Y-112250000D03*
X110250000Y-111750000D03*
X110250000Y-93750000D03*
X102250000Y-95500000D03*
X83250000Y-95500000D03*
X83750000Y-85500000D03*
X101750000Y-85500000D03*
M02*
