%TF.GenerationSoftware,KiCad,Pcbnew,8.0.5*%
%TF.CreationDate,2024-09-26T13:51:18+09:30*%
%TF.ProjectId,TXRX_relay_board,54585258-5f72-4656-9c61-795f626f6172,1.2*%
%TF.SameCoordinates,Original*%
%TF.FileFunction,Legend,Top*%
%TF.FilePolarity,Positive*%
%FSLAX46Y46*%
G04 Gerber Fmt 4.6, Leading zero omitted, Abs format (unit mm)*
G04 Created by KiCad (PCBNEW 8.0.5) date 2024-09-26 13:51:18*
%MOMM*%
%LPD*%
G01*
G04 APERTURE LIST*
%ADD10C,0.300000*%
%ADD11C,0.500000*%
%ADD12C,0.400000*%
%ADD13C,0.150000*%
%ADD14C,0.120000*%
%ADD15C,0.100000*%
%ADD16C,0.000000*%
%ADD17C,0.350000*%
G04 APERTURE END LIST*
D10*
X147107143Y-123589484D02*
X147321429Y-123660912D01*
X147321429Y-123660912D02*
X147678571Y-123660912D01*
X147678571Y-123660912D02*
X147821429Y-123589484D01*
X147821429Y-123589484D02*
X147892857Y-123518055D01*
X147892857Y-123518055D02*
X147964286Y-123375198D01*
X147964286Y-123375198D02*
X147964286Y-123232341D01*
X147964286Y-123232341D02*
X147892857Y-123089484D01*
X147892857Y-123089484D02*
X147821429Y-123018055D01*
X147821429Y-123018055D02*
X147678571Y-122946626D01*
X147678571Y-122946626D02*
X147392857Y-122875198D01*
X147392857Y-122875198D02*
X147250000Y-122803769D01*
X147250000Y-122803769D02*
X147178571Y-122732341D01*
X147178571Y-122732341D02*
X147107143Y-122589484D01*
X147107143Y-122589484D02*
X147107143Y-122446626D01*
X147107143Y-122446626D02*
X147178571Y-122303769D01*
X147178571Y-122303769D02*
X147250000Y-122232341D01*
X147250000Y-122232341D02*
X147392857Y-122160912D01*
X147392857Y-122160912D02*
X147750000Y-122160912D01*
X147750000Y-122160912D02*
X147964286Y-122232341D01*
X148607142Y-123660912D02*
X148607142Y-122160912D01*
X148607142Y-122160912D02*
X149178571Y-122160912D01*
X149178571Y-122160912D02*
X149321428Y-122232341D01*
X149321428Y-122232341D02*
X149392857Y-122303769D01*
X149392857Y-122303769D02*
X149464285Y-122446626D01*
X149464285Y-122446626D02*
X149464285Y-122660912D01*
X149464285Y-122660912D02*
X149392857Y-122803769D01*
X149392857Y-122803769D02*
X149321428Y-122875198D01*
X149321428Y-122875198D02*
X149178571Y-122946626D01*
X149178571Y-122946626D02*
X148607142Y-122946626D01*
X150750000Y-122160912D02*
X150464285Y-122160912D01*
X150464285Y-122160912D02*
X150321428Y-122232341D01*
X150321428Y-122232341D02*
X150250000Y-122303769D01*
X150250000Y-122303769D02*
X150107142Y-122518055D01*
X150107142Y-122518055D02*
X150035714Y-122803769D01*
X150035714Y-122803769D02*
X150035714Y-123375198D01*
X150035714Y-123375198D02*
X150107142Y-123518055D01*
X150107142Y-123518055D02*
X150178571Y-123589484D01*
X150178571Y-123589484D02*
X150321428Y-123660912D01*
X150321428Y-123660912D02*
X150607142Y-123660912D01*
X150607142Y-123660912D02*
X150750000Y-123589484D01*
X150750000Y-123589484D02*
X150821428Y-123518055D01*
X150821428Y-123518055D02*
X150892857Y-123375198D01*
X150892857Y-123375198D02*
X150892857Y-123018055D01*
X150892857Y-123018055D02*
X150821428Y-122875198D01*
X150821428Y-122875198D02*
X150750000Y-122803769D01*
X150750000Y-122803769D02*
X150607142Y-122732341D01*
X150607142Y-122732341D02*
X150321428Y-122732341D01*
X150321428Y-122732341D02*
X150178571Y-122803769D01*
X150178571Y-122803769D02*
X150107142Y-122875198D01*
X150107142Y-122875198D02*
X150035714Y-123018055D01*
X152321428Y-122232341D02*
X152178571Y-122160912D01*
X152178571Y-122160912D02*
X151964285Y-122160912D01*
X151964285Y-122160912D02*
X151749999Y-122232341D01*
X151749999Y-122232341D02*
X151607142Y-122375198D01*
X151607142Y-122375198D02*
X151535713Y-122518055D01*
X151535713Y-122518055D02*
X151464285Y-122803769D01*
X151464285Y-122803769D02*
X151464285Y-123018055D01*
X151464285Y-123018055D02*
X151535713Y-123303769D01*
X151535713Y-123303769D02*
X151607142Y-123446626D01*
X151607142Y-123446626D02*
X151749999Y-123589484D01*
X151749999Y-123589484D02*
X151964285Y-123660912D01*
X151964285Y-123660912D02*
X152107142Y-123660912D01*
X152107142Y-123660912D02*
X152321428Y-123589484D01*
X152321428Y-123589484D02*
X152392856Y-123518055D01*
X152392856Y-123518055D02*
X152392856Y-123018055D01*
X152392856Y-123018055D02*
X152107142Y-123018055D01*
X153035713Y-123660912D02*
X153035713Y-122160912D01*
X153892856Y-123660912D02*
X153249999Y-122803769D01*
X153892856Y-122160912D02*
X153035713Y-123018055D01*
X142035713Y-125075828D02*
X142321428Y-126075828D01*
X142321428Y-126075828D02*
X142607142Y-125361542D01*
X142607142Y-125361542D02*
X142892856Y-126075828D01*
X142892856Y-126075828D02*
X143178570Y-125075828D01*
X143607142Y-125075828D02*
X143892857Y-126075828D01*
X143892857Y-126075828D02*
X144178571Y-125361542D01*
X144178571Y-125361542D02*
X144464285Y-126075828D01*
X144464285Y-126075828D02*
X144749999Y-125075828D01*
X145178571Y-125075828D02*
X145464286Y-126075828D01*
X145464286Y-126075828D02*
X145750000Y-125361542D01*
X145750000Y-125361542D02*
X146035714Y-126075828D01*
X146035714Y-126075828D02*
X146321428Y-125075828D01*
X146892857Y-125932971D02*
X146964286Y-126004400D01*
X146964286Y-126004400D02*
X146892857Y-126075828D01*
X146892857Y-126075828D02*
X146821429Y-126004400D01*
X146821429Y-126004400D02*
X146892857Y-125932971D01*
X146892857Y-125932971D02*
X146892857Y-126075828D01*
X147535715Y-126004400D02*
X147678572Y-126075828D01*
X147678572Y-126075828D02*
X147964286Y-126075828D01*
X147964286Y-126075828D02*
X148107143Y-126004400D01*
X148107143Y-126004400D02*
X148178572Y-125861542D01*
X148178572Y-125861542D02*
X148178572Y-125790114D01*
X148178572Y-125790114D02*
X148107143Y-125647257D01*
X148107143Y-125647257D02*
X147964286Y-125575828D01*
X147964286Y-125575828D02*
X147750001Y-125575828D01*
X147750001Y-125575828D02*
X147607143Y-125504400D01*
X147607143Y-125504400D02*
X147535715Y-125361542D01*
X147535715Y-125361542D02*
X147535715Y-125290114D01*
X147535715Y-125290114D02*
X147607143Y-125147257D01*
X147607143Y-125147257D02*
X147750001Y-125075828D01*
X147750001Y-125075828D02*
X147964286Y-125075828D01*
X147964286Y-125075828D02*
X148107143Y-125147257D01*
X148821429Y-125075828D02*
X148821429Y-126575828D01*
X148821429Y-125147257D02*
X148964287Y-125075828D01*
X148964287Y-125075828D02*
X149250001Y-125075828D01*
X149250001Y-125075828D02*
X149392858Y-125147257D01*
X149392858Y-125147257D02*
X149464287Y-125218685D01*
X149464287Y-125218685D02*
X149535715Y-125361542D01*
X149535715Y-125361542D02*
X149535715Y-125790114D01*
X149535715Y-125790114D02*
X149464287Y-125932971D01*
X149464287Y-125932971D02*
X149392858Y-126004400D01*
X149392858Y-126004400D02*
X149250001Y-126075828D01*
X149250001Y-126075828D02*
X148964287Y-126075828D01*
X148964287Y-126075828D02*
X148821429Y-126004400D01*
X150821430Y-124575828D02*
X150535715Y-124575828D01*
X150535715Y-124575828D02*
X150392858Y-124647257D01*
X150392858Y-124647257D02*
X150321430Y-124718685D01*
X150321430Y-124718685D02*
X150178572Y-124932971D01*
X150178572Y-124932971D02*
X150107144Y-125218685D01*
X150107144Y-125218685D02*
X150107144Y-125790114D01*
X150107144Y-125790114D02*
X150178572Y-125932971D01*
X150178572Y-125932971D02*
X150250001Y-126004400D01*
X150250001Y-126004400D02*
X150392858Y-126075828D01*
X150392858Y-126075828D02*
X150678572Y-126075828D01*
X150678572Y-126075828D02*
X150821430Y-126004400D01*
X150821430Y-126004400D02*
X150892858Y-125932971D01*
X150892858Y-125932971D02*
X150964287Y-125790114D01*
X150964287Y-125790114D02*
X150964287Y-125432971D01*
X150964287Y-125432971D02*
X150892858Y-125290114D01*
X150892858Y-125290114D02*
X150821430Y-125218685D01*
X150821430Y-125218685D02*
X150678572Y-125147257D01*
X150678572Y-125147257D02*
X150392858Y-125147257D01*
X150392858Y-125147257D02*
X150250001Y-125218685D01*
X150250001Y-125218685D02*
X150178572Y-125290114D01*
X150178572Y-125290114D02*
X150107144Y-125432971D01*
X152250001Y-125075828D02*
X152250001Y-126290114D01*
X152250001Y-126290114D02*
X152178572Y-126432971D01*
X152178572Y-126432971D02*
X152107143Y-126504400D01*
X152107143Y-126504400D02*
X151964286Y-126575828D01*
X151964286Y-126575828D02*
X151750001Y-126575828D01*
X151750001Y-126575828D02*
X151607143Y-126504400D01*
X152250001Y-126004400D02*
X152107143Y-126075828D01*
X152107143Y-126075828D02*
X151821429Y-126075828D01*
X151821429Y-126075828D02*
X151678572Y-126004400D01*
X151678572Y-126004400D02*
X151607143Y-125932971D01*
X151607143Y-125932971D02*
X151535715Y-125790114D01*
X151535715Y-125790114D02*
X151535715Y-125361542D01*
X151535715Y-125361542D02*
X151607143Y-125218685D01*
X151607143Y-125218685D02*
X151678572Y-125147257D01*
X151678572Y-125147257D02*
X151821429Y-125075828D01*
X151821429Y-125075828D02*
X152107143Y-125075828D01*
X152107143Y-125075828D02*
X152250001Y-125147257D01*
X152964286Y-126075828D02*
X152964286Y-124575828D01*
X153107144Y-125504400D02*
X153535715Y-126075828D01*
X153535715Y-125075828D02*
X152964286Y-125647257D01*
X154178572Y-125932971D02*
X154250001Y-126004400D01*
X154250001Y-126004400D02*
X154178572Y-126075828D01*
X154178572Y-126075828D02*
X154107144Y-126004400D01*
X154107144Y-126004400D02*
X154178572Y-125932971D01*
X154178572Y-125932971D02*
X154178572Y-126075828D01*
X155535716Y-126004400D02*
X155392858Y-126075828D01*
X155392858Y-126075828D02*
X155107144Y-126075828D01*
X155107144Y-126075828D02*
X154964287Y-126004400D01*
X154964287Y-126004400D02*
X154892858Y-125932971D01*
X154892858Y-125932971D02*
X154821430Y-125790114D01*
X154821430Y-125790114D02*
X154821430Y-125361542D01*
X154821430Y-125361542D02*
X154892858Y-125218685D01*
X154892858Y-125218685D02*
X154964287Y-125147257D01*
X154964287Y-125147257D02*
X155107144Y-125075828D01*
X155107144Y-125075828D02*
X155392858Y-125075828D01*
X155392858Y-125075828D02*
X155535716Y-125147257D01*
X156392858Y-126075828D02*
X156250001Y-126004400D01*
X156250001Y-126004400D02*
X156178572Y-125932971D01*
X156178572Y-125932971D02*
X156107144Y-125790114D01*
X156107144Y-125790114D02*
X156107144Y-125361542D01*
X156107144Y-125361542D02*
X156178572Y-125218685D01*
X156178572Y-125218685D02*
X156250001Y-125147257D01*
X156250001Y-125147257D02*
X156392858Y-125075828D01*
X156392858Y-125075828D02*
X156607144Y-125075828D01*
X156607144Y-125075828D02*
X156750001Y-125147257D01*
X156750001Y-125147257D02*
X156821430Y-125218685D01*
X156821430Y-125218685D02*
X156892858Y-125361542D01*
X156892858Y-125361542D02*
X156892858Y-125790114D01*
X156892858Y-125790114D02*
X156821430Y-125932971D01*
X156821430Y-125932971D02*
X156750001Y-126004400D01*
X156750001Y-126004400D02*
X156607144Y-126075828D01*
X156607144Y-126075828D02*
X156392858Y-126075828D01*
X157535715Y-126075828D02*
X157535715Y-125075828D01*
X157535715Y-125218685D02*
X157607144Y-125147257D01*
X157607144Y-125147257D02*
X157750001Y-125075828D01*
X157750001Y-125075828D02*
X157964287Y-125075828D01*
X157964287Y-125075828D02*
X158107144Y-125147257D01*
X158107144Y-125147257D02*
X158178573Y-125290114D01*
X158178573Y-125290114D02*
X158178573Y-126075828D01*
X158178573Y-125290114D02*
X158250001Y-125147257D01*
X158250001Y-125147257D02*
X158392858Y-125075828D01*
X158392858Y-125075828D02*
X158607144Y-125075828D01*
X158607144Y-125075828D02*
X158750001Y-125147257D01*
X158750001Y-125147257D02*
X158821430Y-125290114D01*
X158821430Y-125290114D02*
X158821430Y-126075828D01*
D11*
X70390475Y-72279238D02*
X70390475Y-70279238D01*
X70390475Y-70279238D02*
X70866665Y-70279238D01*
X70866665Y-70279238D02*
X71152380Y-70374476D01*
X71152380Y-70374476D02*
X71342856Y-70564952D01*
X71342856Y-70564952D02*
X71438094Y-70755428D01*
X71438094Y-70755428D02*
X71533332Y-71136380D01*
X71533332Y-71136380D02*
X71533332Y-71422095D01*
X71533332Y-71422095D02*
X71438094Y-71803047D01*
X71438094Y-71803047D02*
X71342856Y-71993523D01*
X71342856Y-71993523D02*
X71152380Y-72184000D01*
X71152380Y-72184000D02*
X70866665Y-72279238D01*
X70866665Y-72279238D02*
X70390475Y-72279238D01*
X73533332Y-72088761D02*
X73438094Y-72184000D01*
X73438094Y-72184000D02*
X73152380Y-72279238D01*
X73152380Y-72279238D02*
X72961904Y-72279238D01*
X72961904Y-72279238D02*
X72676189Y-72184000D01*
X72676189Y-72184000D02*
X72485713Y-71993523D01*
X72485713Y-71993523D02*
X72390475Y-71803047D01*
X72390475Y-71803047D02*
X72295237Y-71422095D01*
X72295237Y-71422095D02*
X72295237Y-71136380D01*
X72295237Y-71136380D02*
X72390475Y-70755428D01*
X72390475Y-70755428D02*
X72485713Y-70564952D01*
X72485713Y-70564952D02*
X72676189Y-70374476D01*
X72676189Y-70374476D02*
X72961904Y-70279238D01*
X72961904Y-70279238D02*
X73152380Y-70279238D01*
X73152380Y-70279238D02*
X73438094Y-70374476D01*
X73438094Y-70374476D02*
X73533332Y-70469714D01*
X76961904Y-72279238D02*
X75819047Y-72279238D01*
X76390475Y-72279238D02*
X76390475Y-70279238D01*
X76390475Y-70279238D02*
X76199999Y-70564952D01*
X76199999Y-70564952D02*
X76009523Y-70755428D01*
X76009523Y-70755428D02*
X75819047Y-70850666D01*
X77723809Y-70469714D02*
X77819047Y-70374476D01*
X77819047Y-70374476D02*
X78009523Y-70279238D01*
X78009523Y-70279238D02*
X78485714Y-70279238D01*
X78485714Y-70279238D02*
X78676190Y-70374476D01*
X78676190Y-70374476D02*
X78771428Y-70469714D01*
X78771428Y-70469714D02*
X78866666Y-70660190D01*
X78866666Y-70660190D02*
X78866666Y-70850666D01*
X78866666Y-70850666D02*
X78771428Y-71136380D01*
X78771428Y-71136380D02*
X77628571Y-72279238D01*
X77628571Y-72279238D02*
X78866666Y-72279238D01*
X80961905Y-70279238D02*
X81628571Y-72279238D01*
X81628571Y-72279238D02*
X82295238Y-70279238D01*
X138699999Y-99729238D02*
X138699999Y-97729238D01*
X138699999Y-97729238D02*
X139461904Y-97729238D01*
X139461904Y-97729238D02*
X139652380Y-97824476D01*
X139652380Y-97824476D02*
X139747618Y-97919714D01*
X139747618Y-97919714D02*
X139842856Y-98110190D01*
X139842856Y-98110190D02*
X139842856Y-98395904D01*
X139842856Y-98395904D02*
X139747618Y-98586380D01*
X139747618Y-98586380D02*
X139652380Y-98681619D01*
X139652380Y-98681619D02*
X139461904Y-98776857D01*
X139461904Y-98776857D02*
X138699999Y-98776857D01*
X140604761Y-99157809D02*
X141557142Y-99157809D01*
X140414285Y-99729238D02*
X141080951Y-97729238D01*
X141080951Y-97729238D02*
X141747618Y-99729238D01*
X144319047Y-97729238D02*
X144700000Y-97729238D01*
X144700000Y-97729238D02*
X144890476Y-97824476D01*
X144890476Y-97824476D02*
X145080952Y-98014952D01*
X145080952Y-98014952D02*
X145176190Y-98395904D01*
X145176190Y-98395904D02*
X145176190Y-99062571D01*
X145176190Y-99062571D02*
X145080952Y-99443523D01*
X145080952Y-99443523D02*
X144890476Y-99634000D01*
X144890476Y-99634000D02*
X144700000Y-99729238D01*
X144700000Y-99729238D02*
X144319047Y-99729238D01*
X144319047Y-99729238D02*
X144128571Y-99634000D01*
X144128571Y-99634000D02*
X143938095Y-99443523D01*
X143938095Y-99443523D02*
X143842857Y-99062571D01*
X143842857Y-99062571D02*
X143842857Y-98395904D01*
X143842857Y-98395904D02*
X143938095Y-98014952D01*
X143938095Y-98014952D02*
X144128571Y-97824476D01*
X144128571Y-97824476D02*
X144319047Y-97729238D01*
X146033333Y-97729238D02*
X146033333Y-99348285D01*
X146033333Y-99348285D02*
X146128571Y-99538761D01*
X146128571Y-99538761D02*
X146223809Y-99634000D01*
X146223809Y-99634000D02*
X146414285Y-99729238D01*
X146414285Y-99729238D02*
X146795238Y-99729238D01*
X146795238Y-99729238D02*
X146985714Y-99634000D01*
X146985714Y-99634000D02*
X147080952Y-99538761D01*
X147080952Y-99538761D02*
X147176190Y-99348285D01*
X147176190Y-99348285D02*
X147176190Y-97729238D01*
X147842857Y-97729238D02*
X148985714Y-97729238D01*
X148414285Y-99729238D02*
X148414285Y-97729238D01*
X94076190Y-67179238D02*
X95219047Y-67179238D01*
X94647618Y-69179238D02*
X94647618Y-67179238D01*
X97028571Y-69179238D02*
X96361904Y-68226857D01*
X95885714Y-69179238D02*
X95885714Y-67179238D01*
X95885714Y-67179238D02*
X96647619Y-67179238D01*
X96647619Y-67179238D02*
X96838095Y-67274476D01*
X96838095Y-67274476D02*
X96933333Y-67369714D01*
X96933333Y-67369714D02*
X97028571Y-67560190D01*
X97028571Y-67560190D02*
X97028571Y-67845904D01*
X97028571Y-67845904D02*
X96933333Y-68036380D01*
X96933333Y-68036380D02*
X96838095Y-68131619D01*
X96838095Y-68131619D02*
X96647619Y-68226857D01*
X96647619Y-68226857D02*
X95885714Y-68226857D01*
X97695238Y-67179238D02*
X99028571Y-69179238D01*
X99028571Y-67179238D02*
X97695238Y-69179238D01*
X126733333Y-139229238D02*
X126733333Y-137229238D01*
X126733333Y-137229238D02*
X127495238Y-137229238D01*
X127495238Y-137229238D02*
X127685714Y-137324476D01*
X127685714Y-137324476D02*
X127780952Y-137419714D01*
X127780952Y-137419714D02*
X127876190Y-137610190D01*
X127876190Y-137610190D02*
X127876190Y-137895904D01*
X127876190Y-137895904D02*
X127780952Y-138086380D01*
X127780952Y-138086380D02*
X127685714Y-138181619D01*
X127685714Y-138181619D02*
X127495238Y-138276857D01*
X127495238Y-138276857D02*
X126733333Y-138276857D01*
X128638095Y-138657809D02*
X129590476Y-138657809D01*
X128447619Y-139229238D02*
X129114285Y-137229238D01*
X129114285Y-137229238D02*
X129780952Y-139229238D01*
X131971429Y-139229238D02*
X131971429Y-137229238D01*
X132923810Y-139229238D02*
X132923810Y-137229238D01*
X132923810Y-137229238D02*
X134066667Y-139229238D01*
X134066667Y-139229238D02*
X134066667Y-137229238D01*
X157014285Y-72157809D02*
X157966666Y-72157809D01*
X156823809Y-72729238D02*
X157490475Y-70729238D01*
X157490475Y-70729238D02*
X158157142Y-72729238D01*
X158823809Y-72729238D02*
X158823809Y-70729238D01*
X158823809Y-70729238D02*
X159966666Y-72729238D01*
X159966666Y-72729238D02*
X159966666Y-70729238D01*
X160633333Y-70729238D02*
X161776190Y-70729238D01*
X161204761Y-72729238D02*
X161204761Y-70729238D01*
X66689333Y-73254314D02*
X66689333Y-75159076D01*
X65736952Y-74206695D02*
X67641714Y-74206695D01*
X68117904Y-79563837D02*
X68236952Y-79325742D01*
X68236952Y-79325742D02*
X68236952Y-78968599D01*
X68236952Y-78968599D02*
X68117904Y-78611456D01*
X68117904Y-78611456D02*
X67879809Y-78373361D01*
X67879809Y-78373361D02*
X67641714Y-78254314D01*
X67641714Y-78254314D02*
X67165523Y-78135266D01*
X67165523Y-78135266D02*
X66808380Y-78135266D01*
X66808380Y-78135266D02*
X66332190Y-78254314D01*
X66332190Y-78254314D02*
X66094095Y-78373361D01*
X66094095Y-78373361D02*
X65856000Y-78611456D01*
X65856000Y-78611456D02*
X65736952Y-78968599D01*
X65736952Y-78968599D02*
X65736952Y-79206695D01*
X65736952Y-79206695D02*
X65856000Y-79563837D01*
X65856000Y-79563837D02*
X65975047Y-79682885D01*
X65975047Y-79682885D02*
X66808380Y-79682885D01*
X66808380Y-79682885D02*
X66808380Y-79206695D01*
X65736952Y-80754314D02*
X68236952Y-80754314D01*
X68236952Y-80754314D02*
X65736952Y-82182885D01*
X65736952Y-82182885D02*
X68236952Y-82182885D01*
X65736952Y-83373362D02*
X68236952Y-83373362D01*
X68236952Y-83373362D02*
X68236952Y-83968600D01*
X68236952Y-83968600D02*
X68117904Y-84325743D01*
X68117904Y-84325743D02*
X67879809Y-84563838D01*
X67879809Y-84563838D02*
X67641714Y-84682885D01*
X67641714Y-84682885D02*
X67165523Y-84801933D01*
X67165523Y-84801933D02*
X66808380Y-84801933D01*
X66808380Y-84801933D02*
X66332190Y-84682885D01*
X66332190Y-84682885D02*
X66094095Y-84563838D01*
X66094095Y-84563838D02*
X65856000Y-84325743D01*
X65856000Y-84325743D02*
X65736952Y-83968600D01*
X65736952Y-83968600D02*
X65736952Y-83373362D01*
D12*
X137809585Y-127234438D02*
X138838157Y-127234438D01*
X138323871Y-129234438D02*
X138323871Y-127234438D01*
X139266728Y-127234438D02*
X140466728Y-129234438D01*
X140466728Y-127234438D02*
X139266728Y-129234438D01*
X142438157Y-127139200D02*
X140895300Y-129710628D01*
X144066728Y-129234438D02*
X143466728Y-128282057D01*
X143038157Y-129234438D02*
X143038157Y-127234438D01*
X143038157Y-127234438D02*
X143723871Y-127234438D01*
X143723871Y-127234438D02*
X143895300Y-127329676D01*
X143895300Y-127329676D02*
X143981014Y-127424914D01*
X143981014Y-127424914D02*
X144066728Y-127615390D01*
X144066728Y-127615390D02*
X144066728Y-127901104D01*
X144066728Y-127901104D02*
X143981014Y-128091580D01*
X143981014Y-128091580D02*
X143895300Y-128186819D01*
X143895300Y-128186819D02*
X143723871Y-128282057D01*
X143723871Y-128282057D02*
X143038157Y-128282057D01*
X144666728Y-127234438D02*
X145866728Y-129234438D01*
X145866728Y-127234438D02*
X144666728Y-129234438D01*
X148952443Y-129234438D02*
X148352443Y-128282057D01*
X147923872Y-129234438D02*
X147923872Y-127234438D01*
X147923872Y-127234438D02*
X148609586Y-127234438D01*
X148609586Y-127234438D02*
X148781015Y-127329676D01*
X148781015Y-127329676D02*
X148866729Y-127424914D01*
X148866729Y-127424914D02*
X148952443Y-127615390D01*
X148952443Y-127615390D02*
X148952443Y-127901104D01*
X148952443Y-127901104D02*
X148866729Y-128091580D01*
X148866729Y-128091580D02*
X148781015Y-128186819D01*
X148781015Y-128186819D02*
X148609586Y-128282057D01*
X148609586Y-128282057D02*
X147923872Y-128282057D01*
X150409586Y-129139200D02*
X150238158Y-129234438D01*
X150238158Y-129234438D02*
X149895301Y-129234438D01*
X149895301Y-129234438D02*
X149723872Y-129139200D01*
X149723872Y-129139200D02*
X149638158Y-128948723D01*
X149638158Y-128948723D02*
X149638158Y-128186819D01*
X149638158Y-128186819D02*
X149723872Y-127996342D01*
X149723872Y-127996342D02*
X149895301Y-127901104D01*
X149895301Y-127901104D02*
X150238158Y-127901104D01*
X150238158Y-127901104D02*
X150409586Y-127996342D01*
X150409586Y-127996342D02*
X150495301Y-128186819D01*
X150495301Y-128186819D02*
X150495301Y-128377295D01*
X150495301Y-128377295D02*
X149638158Y-128567771D01*
X151523872Y-129234438D02*
X151352443Y-129139200D01*
X151352443Y-129139200D02*
X151266729Y-128948723D01*
X151266729Y-128948723D02*
X151266729Y-127234438D01*
X152981015Y-129234438D02*
X152981015Y-128186819D01*
X152981015Y-128186819D02*
X152895300Y-127996342D01*
X152895300Y-127996342D02*
X152723872Y-127901104D01*
X152723872Y-127901104D02*
X152381015Y-127901104D01*
X152381015Y-127901104D02*
X152209586Y-127996342D01*
X152981015Y-129139200D02*
X152809586Y-129234438D01*
X152809586Y-129234438D02*
X152381015Y-129234438D01*
X152381015Y-129234438D02*
X152209586Y-129139200D01*
X152209586Y-129139200D02*
X152123872Y-128948723D01*
X152123872Y-128948723D02*
X152123872Y-128758247D01*
X152123872Y-128758247D02*
X152209586Y-128567771D01*
X152209586Y-128567771D02*
X152381015Y-128472533D01*
X152381015Y-128472533D02*
X152809586Y-128472533D01*
X152809586Y-128472533D02*
X152981015Y-128377295D01*
X153666728Y-127901104D02*
X154095300Y-129234438D01*
X154523871Y-127901104D02*
X154095300Y-129234438D01*
X154095300Y-129234438D02*
X153923871Y-129710628D01*
X153923871Y-129710628D02*
X153838157Y-129805866D01*
X153838157Y-129805866D02*
X153666728Y-129901104D01*
X156581015Y-129234438D02*
X156581015Y-127234438D01*
X156581015Y-127996342D02*
X156752444Y-127901104D01*
X156752444Y-127901104D02*
X157095301Y-127901104D01*
X157095301Y-127901104D02*
X157266729Y-127996342D01*
X157266729Y-127996342D02*
X157352444Y-128091580D01*
X157352444Y-128091580D02*
X157438158Y-128282057D01*
X157438158Y-128282057D02*
X157438158Y-128853485D01*
X157438158Y-128853485D02*
X157352444Y-129043961D01*
X157352444Y-129043961D02*
X157266729Y-129139200D01*
X157266729Y-129139200D02*
X157095301Y-129234438D01*
X157095301Y-129234438D02*
X156752444Y-129234438D01*
X156752444Y-129234438D02*
X156581015Y-129139200D01*
X158466729Y-129234438D02*
X158295300Y-129139200D01*
X158295300Y-129139200D02*
X158209586Y-129043961D01*
X158209586Y-129043961D02*
X158123872Y-128853485D01*
X158123872Y-128853485D02*
X158123872Y-128282057D01*
X158123872Y-128282057D02*
X158209586Y-128091580D01*
X158209586Y-128091580D02*
X158295300Y-127996342D01*
X158295300Y-127996342D02*
X158466729Y-127901104D01*
X158466729Y-127901104D02*
X158723872Y-127901104D01*
X158723872Y-127901104D02*
X158895300Y-127996342D01*
X158895300Y-127996342D02*
X158981015Y-128091580D01*
X158981015Y-128091580D02*
X159066729Y-128282057D01*
X159066729Y-128282057D02*
X159066729Y-128853485D01*
X159066729Y-128853485D02*
X158981015Y-129043961D01*
X158981015Y-129043961D02*
X158895300Y-129139200D01*
X158895300Y-129139200D02*
X158723872Y-129234438D01*
X158723872Y-129234438D02*
X158466729Y-129234438D01*
X160609586Y-129234438D02*
X160609586Y-128186819D01*
X160609586Y-128186819D02*
X160523871Y-127996342D01*
X160523871Y-127996342D02*
X160352443Y-127901104D01*
X160352443Y-127901104D02*
X160009586Y-127901104D01*
X160009586Y-127901104D02*
X159838157Y-127996342D01*
X160609586Y-129139200D02*
X160438157Y-129234438D01*
X160438157Y-129234438D02*
X160009586Y-129234438D01*
X160009586Y-129234438D02*
X159838157Y-129139200D01*
X159838157Y-129139200D02*
X159752443Y-128948723D01*
X159752443Y-128948723D02*
X159752443Y-128758247D01*
X159752443Y-128758247D02*
X159838157Y-128567771D01*
X159838157Y-128567771D02*
X160009586Y-128472533D01*
X160009586Y-128472533D02*
X160438157Y-128472533D01*
X160438157Y-128472533D02*
X160609586Y-128377295D01*
X161466728Y-129234438D02*
X161466728Y-127901104D01*
X161466728Y-128282057D02*
X161552442Y-128091580D01*
X161552442Y-128091580D02*
X161638157Y-127996342D01*
X161638157Y-127996342D02*
X161809585Y-127901104D01*
X161809585Y-127901104D02*
X161981014Y-127901104D01*
X163352443Y-129234438D02*
X163352443Y-127234438D01*
X163352443Y-129139200D02*
X163181014Y-129234438D01*
X163181014Y-129234438D02*
X162838157Y-129234438D01*
X162838157Y-129234438D02*
X162666728Y-129139200D01*
X162666728Y-129139200D02*
X162581014Y-129043961D01*
X162581014Y-129043961D02*
X162495300Y-128853485D01*
X162495300Y-128853485D02*
X162495300Y-128282057D01*
X162495300Y-128282057D02*
X162581014Y-128091580D01*
X162581014Y-128091580D02*
X162666728Y-127996342D01*
X162666728Y-127996342D02*
X162838157Y-127901104D01*
X162838157Y-127901104D02*
X163181014Y-127901104D01*
X163181014Y-127901104D02*
X163352443Y-127996342D01*
D10*
X138206891Y-132175304D02*
X138206891Y-131308638D01*
X138206891Y-131556257D02*
X138268796Y-131432447D01*
X138268796Y-131432447D02*
X138330701Y-131370542D01*
X138330701Y-131370542D02*
X138454510Y-131308638D01*
X138454510Y-131308638D02*
X138578320Y-131308638D01*
X139506891Y-132113400D02*
X139383082Y-132175304D01*
X139383082Y-132175304D02*
X139135463Y-132175304D01*
X139135463Y-132175304D02*
X139011653Y-132113400D01*
X139011653Y-132113400D02*
X138949749Y-131989590D01*
X138949749Y-131989590D02*
X138949749Y-131494352D01*
X138949749Y-131494352D02*
X139011653Y-131370542D01*
X139011653Y-131370542D02*
X139135463Y-131308638D01*
X139135463Y-131308638D02*
X139383082Y-131308638D01*
X139383082Y-131308638D02*
X139506891Y-131370542D01*
X139506891Y-131370542D02*
X139568796Y-131494352D01*
X139568796Y-131494352D02*
X139568796Y-131618161D01*
X139568796Y-131618161D02*
X138949749Y-131741971D01*
X140002130Y-131308638D02*
X140311654Y-132175304D01*
X140311654Y-132175304D02*
X140621177Y-131308638D01*
X141116415Y-132051495D02*
X141178320Y-132113400D01*
X141178320Y-132113400D02*
X141116415Y-132175304D01*
X141116415Y-132175304D02*
X141054511Y-132113400D01*
X141054511Y-132113400D02*
X141116415Y-132051495D01*
X141116415Y-132051495D02*
X141116415Y-132175304D01*
X143406892Y-132175304D02*
X142664035Y-132175304D01*
X143035463Y-132175304D02*
X143035463Y-130875304D01*
X143035463Y-130875304D02*
X142911654Y-131061019D01*
X142911654Y-131061019D02*
X142787844Y-131184828D01*
X142787844Y-131184828D02*
X142664035Y-131246733D01*
X143964034Y-132051495D02*
X144025939Y-132113400D01*
X144025939Y-132113400D02*
X143964034Y-132175304D01*
X143964034Y-132175304D02*
X143902130Y-132113400D01*
X143902130Y-132113400D02*
X143964034Y-132051495D01*
X143964034Y-132051495D02*
X143964034Y-132175304D01*
X144521178Y-130999114D02*
X144583082Y-130937209D01*
X144583082Y-130937209D02*
X144706892Y-130875304D01*
X144706892Y-130875304D02*
X145016416Y-130875304D01*
X145016416Y-130875304D02*
X145140225Y-130937209D01*
X145140225Y-130937209D02*
X145202130Y-130999114D01*
X145202130Y-130999114D02*
X145264035Y-131122923D01*
X145264035Y-131122923D02*
X145264035Y-131246733D01*
X145264035Y-131246733D02*
X145202130Y-131432447D01*
X145202130Y-131432447D02*
X144459273Y-132175304D01*
X144459273Y-132175304D02*
X145264035Y-132175304D01*
X146749749Y-130999114D02*
X146811653Y-130937209D01*
X146811653Y-130937209D02*
X146935463Y-130875304D01*
X146935463Y-130875304D02*
X147244987Y-130875304D01*
X147244987Y-130875304D02*
X147368796Y-130937209D01*
X147368796Y-130937209D02*
X147430701Y-130999114D01*
X147430701Y-130999114D02*
X147492606Y-131122923D01*
X147492606Y-131122923D02*
X147492606Y-131246733D01*
X147492606Y-131246733D02*
X147430701Y-131432447D01*
X147430701Y-131432447D02*
X146687844Y-132175304D01*
X146687844Y-132175304D02*
X147492606Y-132175304D01*
X148297367Y-130875304D02*
X148421177Y-130875304D01*
X148421177Y-130875304D02*
X148544986Y-130937209D01*
X148544986Y-130937209D02*
X148606891Y-130999114D01*
X148606891Y-130999114D02*
X148668796Y-131122923D01*
X148668796Y-131122923D02*
X148730701Y-131370542D01*
X148730701Y-131370542D02*
X148730701Y-131680066D01*
X148730701Y-131680066D02*
X148668796Y-131927685D01*
X148668796Y-131927685D02*
X148606891Y-132051495D01*
X148606891Y-132051495D02*
X148544986Y-132113400D01*
X148544986Y-132113400D02*
X148421177Y-132175304D01*
X148421177Y-132175304D02*
X148297367Y-132175304D01*
X148297367Y-132175304D02*
X148173558Y-132113400D01*
X148173558Y-132113400D02*
X148111653Y-132051495D01*
X148111653Y-132051495D02*
X148049748Y-131927685D01*
X148049748Y-131927685D02*
X147987844Y-131680066D01*
X147987844Y-131680066D02*
X147987844Y-131370542D01*
X147987844Y-131370542D02*
X148049748Y-131122923D01*
X148049748Y-131122923D02*
X148111653Y-130999114D01*
X148111653Y-130999114D02*
X148173558Y-130937209D01*
X148173558Y-130937209D02*
X148297367Y-130875304D01*
X149225939Y-130999114D02*
X149287843Y-130937209D01*
X149287843Y-130937209D02*
X149411653Y-130875304D01*
X149411653Y-130875304D02*
X149721177Y-130875304D01*
X149721177Y-130875304D02*
X149844986Y-130937209D01*
X149844986Y-130937209D02*
X149906891Y-130999114D01*
X149906891Y-130999114D02*
X149968796Y-131122923D01*
X149968796Y-131122923D02*
X149968796Y-131246733D01*
X149968796Y-131246733D02*
X149906891Y-131432447D01*
X149906891Y-131432447D02*
X149164034Y-132175304D01*
X149164034Y-132175304D02*
X149968796Y-132175304D01*
X151083081Y-131308638D02*
X151083081Y-132175304D01*
X150773557Y-130813400D02*
X150464034Y-131741971D01*
X150464034Y-131741971D02*
X151268795Y-131741971D01*
D11*
X107885714Y-139129238D02*
X107885714Y-137129238D01*
X107885714Y-137129238D02*
X108361904Y-137129238D01*
X108361904Y-137129238D02*
X108647619Y-137224476D01*
X108647619Y-137224476D02*
X108838095Y-137414952D01*
X108838095Y-137414952D02*
X108933333Y-137605428D01*
X108933333Y-137605428D02*
X109028571Y-137986380D01*
X109028571Y-137986380D02*
X109028571Y-138272095D01*
X109028571Y-138272095D02*
X108933333Y-138653047D01*
X108933333Y-138653047D02*
X108838095Y-138843523D01*
X108838095Y-138843523D02*
X108647619Y-139034000D01*
X108647619Y-139034000D02*
X108361904Y-139129238D01*
X108361904Y-139129238D02*
X107885714Y-139129238D01*
X109885714Y-138938761D02*
X109980952Y-139034000D01*
X109980952Y-139034000D02*
X109885714Y-139129238D01*
X109885714Y-139129238D02*
X109790476Y-139034000D01*
X109790476Y-139034000D02*
X109885714Y-138938761D01*
X109885714Y-138938761D02*
X109885714Y-139129238D01*
X111790476Y-139129238D02*
X110838095Y-139129238D01*
X110838095Y-139129238D02*
X110838095Y-137129238D01*
X112838095Y-137129238D02*
X113219048Y-137129238D01*
X113219048Y-137129238D02*
X113409524Y-137224476D01*
X113409524Y-137224476D02*
X113600000Y-137414952D01*
X113600000Y-137414952D02*
X113695238Y-137795904D01*
X113695238Y-137795904D02*
X113695238Y-138462571D01*
X113695238Y-138462571D02*
X113600000Y-138843523D01*
X113600000Y-138843523D02*
X113409524Y-139034000D01*
X113409524Y-139034000D02*
X113219048Y-139129238D01*
X113219048Y-139129238D02*
X112838095Y-139129238D01*
X112838095Y-139129238D02*
X112647619Y-139034000D01*
X112647619Y-139034000D02*
X112457143Y-138843523D01*
X112457143Y-138843523D02*
X112361905Y-138462571D01*
X112361905Y-138462571D02*
X112361905Y-137795904D01*
X112361905Y-137795904D02*
X112457143Y-137414952D01*
X112457143Y-137414952D02*
X112647619Y-137224476D01*
X112647619Y-137224476D02*
X112838095Y-137129238D01*
X114457143Y-138557809D02*
X115409524Y-138557809D01*
X114266667Y-139129238D02*
X114933333Y-137129238D01*
X114933333Y-137129238D02*
X115600000Y-139129238D01*
X116266667Y-139129238D02*
X116266667Y-137129238D01*
X116266667Y-137129238D02*
X116742857Y-137129238D01*
X116742857Y-137129238D02*
X117028572Y-137224476D01*
X117028572Y-137224476D02*
X117219048Y-137414952D01*
X117219048Y-137414952D02*
X117314286Y-137605428D01*
X117314286Y-137605428D02*
X117409524Y-137986380D01*
X117409524Y-137986380D02*
X117409524Y-138272095D01*
X117409524Y-138272095D02*
X117314286Y-138653047D01*
X117314286Y-138653047D02*
X117219048Y-138843523D01*
X117219048Y-138843523D02*
X117028572Y-139034000D01*
X117028572Y-139034000D02*
X116742857Y-139129238D01*
X116742857Y-139129238D02*
X116266667Y-139129238D01*
D13*
X73761905Y-113204819D02*
X73761905Y-112204819D01*
X73761905Y-112204819D02*
X74000000Y-112204819D01*
X74000000Y-112204819D02*
X74142857Y-112252438D01*
X74142857Y-112252438D02*
X74238095Y-112347676D01*
X74238095Y-112347676D02*
X74285714Y-112442914D01*
X74285714Y-112442914D02*
X74333333Y-112633390D01*
X74333333Y-112633390D02*
X74333333Y-112776247D01*
X74333333Y-112776247D02*
X74285714Y-112966723D01*
X74285714Y-112966723D02*
X74238095Y-113061961D01*
X74238095Y-113061961D02*
X74142857Y-113157200D01*
X74142857Y-113157200D02*
X74000000Y-113204819D01*
X74000000Y-113204819D02*
X73761905Y-113204819D01*
X75190476Y-112204819D02*
X75000000Y-112204819D01*
X75000000Y-112204819D02*
X74904762Y-112252438D01*
X74904762Y-112252438D02*
X74857143Y-112300057D01*
X74857143Y-112300057D02*
X74761905Y-112442914D01*
X74761905Y-112442914D02*
X74714286Y-112633390D01*
X74714286Y-112633390D02*
X74714286Y-113014342D01*
X74714286Y-113014342D02*
X74761905Y-113109580D01*
X74761905Y-113109580D02*
X74809524Y-113157200D01*
X74809524Y-113157200D02*
X74904762Y-113204819D01*
X74904762Y-113204819D02*
X75095238Y-113204819D01*
X75095238Y-113204819D02*
X75190476Y-113157200D01*
X75190476Y-113157200D02*
X75238095Y-113109580D01*
X75238095Y-113109580D02*
X75285714Y-113014342D01*
X75285714Y-113014342D02*
X75285714Y-112776247D01*
X75285714Y-112776247D02*
X75238095Y-112681009D01*
X75238095Y-112681009D02*
X75190476Y-112633390D01*
X75190476Y-112633390D02*
X75095238Y-112585771D01*
X75095238Y-112585771D02*
X74904762Y-112585771D01*
X74904762Y-112585771D02*
X74809524Y-112633390D01*
X74809524Y-112633390D02*
X74761905Y-112681009D01*
X74761905Y-112681009D02*
X74714286Y-112776247D01*
X84847133Y-119444619D02*
X84370943Y-119444619D01*
X84370943Y-119444619D02*
X84370943Y-118444619D01*
X85656657Y-118444619D02*
X85180467Y-118444619D01*
X85180467Y-118444619D02*
X85132848Y-118920809D01*
X85132848Y-118920809D02*
X85180467Y-118873190D01*
X85180467Y-118873190D02*
X85275705Y-118825571D01*
X85275705Y-118825571D02*
X85513800Y-118825571D01*
X85513800Y-118825571D02*
X85609038Y-118873190D01*
X85609038Y-118873190D02*
X85656657Y-118920809D01*
X85656657Y-118920809D02*
X85704276Y-119016047D01*
X85704276Y-119016047D02*
X85704276Y-119254142D01*
X85704276Y-119254142D02*
X85656657Y-119349380D01*
X85656657Y-119349380D02*
X85609038Y-119397000D01*
X85609038Y-119397000D02*
X85513800Y-119444619D01*
X85513800Y-119444619D02*
X85275705Y-119444619D01*
X85275705Y-119444619D02*
X85180467Y-119397000D01*
X85180467Y-119397000D02*
X85132848Y-119349380D01*
X123561905Y-73454819D02*
X123561905Y-72454819D01*
X124133333Y-73454819D02*
X123704762Y-72883390D01*
X124133333Y-72454819D02*
X123561905Y-73026247D01*
X125085714Y-73454819D02*
X124514286Y-73454819D01*
X124800000Y-73454819D02*
X124800000Y-72454819D01*
X124800000Y-72454819D02*
X124704762Y-72597676D01*
X124704762Y-72597676D02*
X124609524Y-72692914D01*
X124609524Y-72692914D02*
X124514286Y-72740533D01*
X92007142Y-126154819D02*
X91673809Y-125678628D01*
X91435714Y-126154819D02*
X91435714Y-125154819D01*
X91435714Y-125154819D02*
X91816666Y-125154819D01*
X91816666Y-125154819D02*
X91911904Y-125202438D01*
X91911904Y-125202438D02*
X91959523Y-125250057D01*
X91959523Y-125250057D02*
X92007142Y-125345295D01*
X92007142Y-125345295D02*
X92007142Y-125488152D01*
X92007142Y-125488152D02*
X91959523Y-125583390D01*
X91959523Y-125583390D02*
X91911904Y-125631009D01*
X91911904Y-125631009D02*
X91816666Y-125678628D01*
X91816666Y-125678628D02*
X91435714Y-125678628D01*
X92959523Y-126154819D02*
X92388095Y-126154819D01*
X92673809Y-126154819D02*
X92673809Y-125154819D01*
X92673809Y-125154819D02*
X92578571Y-125297676D01*
X92578571Y-125297676D02*
X92483333Y-125392914D01*
X92483333Y-125392914D02*
X92388095Y-125440533D01*
X93816666Y-125154819D02*
X93626190Y-125154819D01*
X93626190Y-125154819D02*
X93530952Y-125202438D01*
X93530952Y-125202438D02*
X93483333Y-125250057D01*
X93483333Y-125250057D02*
X93388095Y-125392914D01*
X93388095Y-125392914D02*
X93340476Y-125583390D01*
X93340476Y-125583390D02*
X93340476Y-125964342D01*
X93340476Y-125964342D02*
X93388095Y-126059580D01*
X93388095Y-126059580D02*
X93435714Y-126107200D01*
X93435714Y-126107200D02*
X93530952Y-126154819D01*
X93530952Y-126154819D02*
X93721428Y-126154819D01*
X93721428Y-126154819D02*
X93816666Y-126107200D01*
X93816666Y-126107200D02*
X93864285Y-126059580D01*
X93864285Y-126059580D02*
X93911904Y-125964342D01*
X93911904Y-125964342D02*
X93911904Y-125726247D01*
X93911904Y-125726247D02*
X93864285Y-125631009D01*
X93864285Y-125631009D02*
X93816666Y-125583390D01*
X93816666Y-125583390D02*
X93721428Y-125535771D01*
X93721428Y-125535771D02*
X93530952Y-125535771D01*
X93530952Y-125535771D02*
X93435714Y-125583390D01*
X93435714Y-125583390D02*
X93388095Y-125631009D01*
X93388095Y-125631009D02*
X93340476Y-125726247D01*
X80916542Y-119470019D02*
X80583209Y-118993828D01*
X80345114Y-119470019D02*
X80345114Y-118470019D01*
X80345114Y-118470019D02*
X80726066Y-118470019D01*
X80726066Y-118470019D02*
X80821304Y-118517638D01*
X80821304Y-118517638D02*
X80868923Y-118565257D01*
X80868923Y-118565257D02*
X80916542Y-118660495D01*
X80916542Y-118660495D02*
X80916542Y-118803352D01*
X80916542Y-118803352D02*
X80868923Y-118898590D01*
X80868923Y-118898590D02*
X80821304Y-118946209D01*
X80821304Y-118946209D02*
X80726066Y-118993828D01*
X80726066Y-118993828D02*
X80345114Y-118993828D01*
X81868923Y-119470019D02*
X81297495Y-119470019D01*
X81583209Y-119470019D02*
X81583209Y-118470019D01*
X81583209Y-118470019D02*
X81487971Y-118612876D01*
X81487971Y-118612876D02*
X81392733Y-118708114D01*
X81392733Y-118708114D02*
X81297495Y-118755733D01*
X82487971Y-118470019D02*
X82583209Y-118470019D01*
X82583209Y-118470019D02*
X82678447Y-118517638D01*
X82678447Y-118517638D02*
X82726066Y-118565257D01*
X82726066Y-118565257D02*
X82773685Y-118660495D01*
X82773685Y-118660495D02*
X82821304Y-118850971D01*
X82821304Y-118850971D02*
X82821304Y-119089066D01*
X82821304Y-119089066D02*
X82773685Y-119279542D01*
X82773685Y-119279542D02*
X82726066Y-119374780D01*
X82726066Y-119374780D02*
X82678447Y-119422400D01*
X82678447Y-119422400D02*
X82583209Y-119470019D01*
X82583209Y-119470019D02*
X82487971Y-119470019D01*
X82487971Y-119470019D02*
X82392733Y-119422400D01*
X82392733Y-119422400D02*
X82345114Y-119374780D01*
X82345114Y-119374780D02*
X82297495Y-119279542D01*
X82297495Y-119279542D02*
X82249876Y-119089066D01*
X82249876Y-119089066D02*
X82249876Y-118850971D01*
X82249876Y-118850971D02*
X82297495Y-118660495D01*
X82297495Y-118660495D02*
X82345114Y-118565257D01*
X82345114Y-118565257D02*
X82392733Y-118517638D01*
X82392733Y-118517638D02*
X82487971Y-118470019D01*
X85082142Y-133984580D02*
X85034523Y-134032200D01*
X85034523Y-134032200D02*
X84891666Y-134079819D01*
X84891666Y-134079819D02*
X84796428Y-134079819D01*
X84796428Y-134079819D02*
X84653571Y-134032200D01*
X84653571Y-134032200D02*
X84558333Y-133936961D01*
X84558333Y-133936961D02*
X84510714Y-133841723D01*
X84510714Y-133841723D02*
X84463095Y-133651247D01*
X84463095Y-133651247D02*
X84463095Y-133508390D01*
X84463095Y-133508390D02*
X84510714Y-133317914D01*
X84510714Y-133317914D02*
X84558333Y-133222676D01*
X84558333Y-133222676D02*
X84653571Y-133127438D01*
X84653571Y-133127438D02*
X84796428Y-133079819D01*
X84796428Y-133079819D02*
X84891666Y-133079819D01*
X84891666Y-133079819D02*
X85034523Y-133127438D01*
X85034523Y-133127438D02*
X85082142Y-133175057D01*
X85463095Y-133175057D02*
X85510714Y-133127438D01*
X85510714Y-133127438D02*
X85605952Y-133079819D01*
X85605952Y-133079819D02*
X85844047Y-133079819D01*
X85844047Y-133079819D02*
X85939285Y-133127438D01*
X85939285Y-133127438D02*
X85986904Y-133175057D01*
X85986904Y-133175057D02*
X86034523Y-133270295D01*
X86034523Y-133270295D02*
X86034523Y-133365533D01*
X86034523Y-133365533D02*
X85986904Y-133508390D01*
X85986904Y-133508390D02*
X85415476Y-134079819D01*
X85415476Y-134079819D02*
X86034523Y-134079819D01*
X86653571Y-133079819D02*
X86748809Y-133079819D01*
X86748809Y-133079819D02*
X86844047Y-133127438D01*
X86844047Y-133127438D02*
X86891666Y-133175057D01*
X86891666Y-133175057D02*
X86939285Y-133270295D01*
X86939285Y-133270295D02*
X86986904Y-133460771D01*
X86986904Y-133460771D02*
X86986904Y-133698866D01*
X86986904Y-133698866D02*
X86939285Y-133889342D01*
X86939285Y-133889342D02*
X86891666Y-133984580D01*
X86891666Y-133984580D02*
X86844047Y-134032200D01*
X86844047Y-134032200D02*
X86748809Y-134079819D01*
X86748809Y-134079819D02*
X86653571Y-134079819D01*
X86653571Y-134079819D02*
X86558333Y-134032200D01*
X86558333Y-134032200D02*
X86510714Y-133984580D01*
X86510714Y-133984580D02*
X86463095Y-133889342D01*
X86463095Y-133889342D02*
X86415476Y-133698866D01*
X86415476Y-133698866D02*
X86415476Y-133460771D01*
X86415476Y-133460771D02*
X86463095Y-133270295D01*
X86463095Y-133270295D02*
X86510714Y-133175057D01*
X86510714Y-133175057D02*
X86558333Y-133127438D01*
X86558333Y-133127438D02*
X86653571Y-133079819D01*
X121207142Y-134309580D02*
X121159523Y-134357200D01*
X121159523Y-134357200D02*
X121016666Y-134404819D01*
X121016666Y-134404819D02*
X120921428Y-134404819D01*
X120921428Y-134404819D02*
X120778571Y-134357200D01*
X120778571Y-134357200D02*
X120683333Y-134261961D01*
X120683333Y-134261961D02*
X120635714Y-134166723D01*
X120635714Y-134166723D02*
X120588095Y-133976247D01*
X120588095Y-133976247D02*
X120588095Y-133833390D01*
X120588095Y-133833390D02*
X120635714Y-133642914D01*
X120635714Y-133642914D02*
X120683333Y-133547676D01*
X120683333Y-133547676D02*
X120778571Y-133452438D01*
X120778571Y-133452438D02*
X120921428Y-133404819D01*
X120921428Y-133404819D02*
X121016666Y-133404819D01*
X121016666Y-133404819D02*
X121159523Y-133452438D01*
X121159523Y-133452438D02*
X121207142Y-133500057D01*
X122159523Y-134404819D02*
X121588095Y-134404819D01*
X121873809Y-134404819D02*
X121873809Y-133404819D01*
X121873809Y-133404819D02*
X121778571Y-133547676D01*
X121778571Y-133547676D02*
X121683333Y-133642914D01*
X121683333Y-133642914D02*
X121588095Y-133690533D01*
X122778571Y-133404819D02*
X122873809Y-133404819D01*
X122873809Y-133404819D02*
X122969047Y-133452438D01*
X122969047Y-133452438D02*
X123016666Y-133500057D01*
X123016666Y-133500057D02*
X123064285Y-133595295D01*
X123064285Y-133595295D02*
X123111904Y-133785771D01*
X123111904Y-133785771D02*
X123111904Y-134023866D01*
X123111904Y-134023866D02*
X123064285Y-134214342D01*
X123064285Y-134214342D02*
X123016666Y-134309580D01*
X123016666Y-134309580D02*
X122969047Y-134357200D01*
X122969047Y-134357200D02*
X122873809Y-134404819D01*
X122873809Y-134404819D02*
X122778571Y-134404819D01*
X122778571Y-134404819D02*
X122683333Y-134357200D01*
X122683333Y-134357200D02*
X122635714Y-134309580D01*
X122635714Y-134309580D02*
X122588095Y-134214342D01*
X122588095Y-134214342D02*
X122540476Y-134023866D01*
X122540476Y-134023866D02*
X122540476Y-133785771D01*
X122540476Y-133785771D02*
X122588095Y-133595295D01*
X122588095Y-133595295D02*
X122635714Y-133500057D01*
X122635714Y-133500057D02*
X122683333Y-133452438D01*
X122683333Y-133452438D02*
X122778571Y-133404819D01*
X78038095Y-92554819D02*
X78038095Y-93364342D01*
X78038095Y-93364342D02*
X78085714Y-93459580D01*
X78085714Y-93459580D02*
X78133333Y-93507200D01*
X78133333Y-93507200D02*
X78228571Y-93554819D01*
X78228571Y-93554819D02*
X78419047Y-93554819D01*
X78419047Y-93554819D02*
X78514285Y-93507200D01*
X78514285Y-93507200D02*
X78561904Y-93459580D01*
X78561904Y-93459580D02*
X78609523Y-93364342D01*
X78609523Y-93364342D02*
X78609523Y-92554819D01*
X79038095Y-92650057D02*
X79085714Y-92602438D01*
X79085714Y-92602438D02*
X79180952Y-92554819D01*
X79180952Y-92554819D02*
X79419047Y-92554819D01*
X79419047Y-92554819D02*
X79514285Y-92602438D01*
X79514285Y-92602438D02*
X79561904Y-92650057D01*
X79561904Y-92650057D02*
X79609523Y-92745295D01*
X79609523Y-92745295D02*
X79609523Y-92840533D01*
X79609523Y-92840533D02*
X79561904Y-92983390D01*
X79561904Y-92983390D02*
X78990476Y-93554819D01*
X78990476Y-93554819D02*
X79609523Y-93554819D01*
X90536733Y-114831019D02*
X90203400Y-114354828D01*
X89965305Y-114831019D02*
X89965305Y-113831019D01*
X89965305Y-113831019D02*
X90346257Y-113831019D01*
X90346257Y-113831019D02*
X90441495Y-113878638D01*
X90441495Y-113878638D02*
X90489114Y-113926257D01*
X90489114Y-113926257D02*
X90536733Y-114021495D01*
X90536733Y-114021495D02*
X90536733Y-114164352D01*
X90536733Y-114164352D02*
X90489114Y-114259590D01*
X90489114Y-114259590D02*
X90441495Y-114307209D01*
X90441495Y-114307209D02*
X90346257Y-114354828D01*
X90346257Y-114354828D02*
X89965305Y-114354828D01*
X91393876Y-114164352D02*
X91393876Y-114831019D01*
X91155781Y-113783400D02*
X90917686Y-114497685D01*
X90917686Y-114497685D02*
X91536733Y-114497685D01*
X99204761Y-132450057D02*
X99109523Y-132402438D01*
X99109523Y-132402438D02*
X99014285Y-132307200D01*
X99014285Y-132307200D02*
X98871428Y-132164342D01*
X98871428Y-132164342D02*
X98776190Y-132116723D01*
X98776190Y-132116723D02*
X98680952Y-132116723D01*
X98728571Y-132354819D02*
X98633333Y-132307200D01*
X98633333Y-132307200D02*
X98538095Y-132211961D01*
X98538095Y-132211961D02*
X98490476Y-132021485D01*
X98490476Y-132021485D02*
X98490476Y-131688152D01*
X98490476Y-131688152D02*
X98538095Y-131497676D01*
X98538095Y-131497676D02*
X98633333Y-131402438D01*
X98633333Y-131402438D02*
X98728571Y-131354819D01*
X98728571Y-131354819D02*
X98919047Y-131354819D01*
X98919047Y-131354819D02*
X99014285Y-131402438D01*
X99014285Y-131402438D02*
X99109523Y-131497676D01*
X99109523Y-131497676D02*
X99157142Y-131688152D01*
X99157142Y-131688152D02*
X99157142Y-132021485D01*
X99157142Y-132021485D02*
X99109523Y-132211961D01*
X99109523Y-132211961D02*
X99014285Y-132307200D01*
X99014285Y-132307200D02*
X98919047Y-132354819D01*
X98919047Y-132354819D02*
X98728571Y-132354819D01*
X100014285Y-131688152D02*
X100014285Y-132354819D01*
X99776190Y-131307200D02*
X99538095Y-132021485D01*
X99538095Y-132021485D02*
X100157142Y-132021485D01*
X152461905Y-62654819D02*
X152461905Y-61654819D01*
X153033333Y-62654819D02*
X152604762Y-62083390D01*
X153033333Y-61654819D02*
X152461905Y-62226247D01*
X153414286Y-61750057D02*
X153461905Y-61702438D01*
X153461905Y-61702438D02*
X153557143Y-61654819D01*
X153557143Y-61654819D02*
X153795238Y-61654819D01*
X153795238Y-61654819D02*
X153890476Y-61702438D01*
X153890476Y-61702438D02*
X153938095Y-61750057D01*
X153938095Y-61750057D02*
X153985714Y-61845295D01*
X153985714Y-61845295D02*
X153985714Y-61940533D01*
X153985714Y-61940533D02*
X153938095Y-62083390D01*
X153938095Y-62083390D02*
X153366667Y-62654819D01*
X153366667Y-62654819D02*
X153985714Y-62654819D01*
X100767261Y-60550057D02*
X100672023Y-60502438D01*
X100672023Y-60502438D02*
X100576785Y-60407200D01*
X100576785Y-60407200D02*
X100433928Y-60264342D01*
X100433928Y-60264342D02*
X100338690Y-60216723D01*
X100338690Y-60216723D02*
X100243452Y-60216723D01*
X100291071Y-60454819D02*
X100195833Y-60407200D01*
X100195833Y-60407200D02*
X100100595Y-60311961D01*
X100100595Y-60311961D02*
X100052976Y-60121485D01*
X100052976Y-60121485D02*
X100052976Y-59788152D01*
X100052976Y-59788152D02*
X100100595Y-59597676D01*
X100100595Y-59597676D02*
X100195833Y-59502438D01*
X100195833Y-59502438D02*
X100291071Y-59454819D01*
X100291071Y-59454819D02*
X100481547Y-59454819D01*
X100481547Y-59454819D02*
X100576785Y-59502438D01*
X100576785Y-59502438D02*
X100672023Y-59597676D01*
X100672023Y-59597676D02*
X100719642Y-59788152D01*
X100719642Y-59788152D02*
X100719642Y-60121485D01*
X100719642Y-60121485D02*
X100672023Y-60311961D01*
X100672023Y-60311961D02*
X100576785Y-60407200D01*
X100576785Y-60407200D02*
X100481547Y-60454819D01*
X100481547Y-60454819D02*
X100291071Y-60454819D01*
X101672023Y-60454819D02*
X101100595Y-60454819D01*
X101386309Y-60454819D02*
X101386309Y-59454819D01*
X101386309Y-59454819D02*
X101291071Y-59597676D01*
X101291071Y-59597676D02*
X101195833Y-59692914D01*
X101195833Y-59692914D02*
X101100595Y-59740533D01*
X85456733Y-112830780D02*
X85409114Y-112878400D01*
X85409114Y-112878400D02*
X85266257Y-112926019D01*
X85266257Y-112926019D02*
X85171019Y-112926019D01*
X85171019Y-112926019D02*
X85028162Y-112878400D01*
X85028162Y-112878400D02*
X84932924Y-112783161D01*
X84932924Y-112783161D02*
X84885305Y-112687923D01*
X84885305Y-112687923D02*
X84837686Y-112497447D01*
X84837686Y-112497447D02*
X84837686Y-112354590D01*
X84837686Y-112354590D02*
X84885305Y-112164114D01*
X84885305Y-112164114D02*
X84932924Y-112068876D01*
X84932924Y-112068876D02*
X85028162Y-111973638D01*
X85028162Y-111973638D02*
X85171019Y-111926019D01*
X85171019Y-111926019D02*
X85266257Y-111926019D01*
X85266257Y-111926019D02*
X85409114Y-111973638D01*
X85409114Y-111973638D02*
X85456733Y-112021257D01*
X86409114Y-112926019D02*
X85837686Y-112926019D01*
X86123400Y-112926019D02*
X86123400Y-111926019D01*
X86123400Y-111926019D02*
X86028162Y-112068876D01*
X86028162Y-112068876D02*
X85932924Y-112164114D01*
X85932924Y-112164114D02*
X85837686Y-112211733D01*
X130907142Y-123559580D02*
X130859523Y-123607200D01*
X130859523Y-123607200D02*
X130716666Y-123654819D01*
X130716666Y-123654819D02*
X130621428Y-123654819D01*
X130621428Y-123654819D02*
X130478571Y-123607200D01*
X130478571Y-123607200D02*
X130383333Y-123511961D01*
X130383333Y-123511961D02*
X130335714Y-123416723D01*
X130335714Y-123416723D02*
X130288095Y-123226247D01*
X130288095Y-123226247D02*
X130288095Y-123083390D01*
X130288095Y-123083390D02*
X130335714Y-122892914D01*
X130335714Y-122892914D02*
X130383333Y-122797676D01*
X130383333Y-122797676D02*
X130478571Y-122702438D01*
X130478571Y-122702438D02*
X130621428Y-122654819D01*
X130621428Y-122654819D02*
X130716666Y-122654819D01*
X130716666Y-122654819D02*
X130859523Y-122702438D01*
X130859523Y-122702438D02*
X130907142Y-122750057D01*
X131859523Y-123654819D02*
X131288095Y-123654819D01*
X131573809Y-123654819D02*
X131573809Y-122654819D01*
X131573809Y-122654819D02*
X131478571Y-122797676D01*
X131478571Y-122797676D02*
X131383333Y-122892914D01*
X131383333Y-122892914D02*
X131288095Y-122940533D01*
X132716666Y-122988152D02*
X132716666Y-123654819D01*
X132478571Y-122607200D02*
X132240476Y-123321485D01*
X132240476Y-123321485D02*
X132859523Y-123321485D01*
X77891666Y-73754819D02*
X77891666Y-74469104D01*
X77891666Y-74469104D02*
X77844047Y-74611961D01*
X77844047Y-74611961D02*
X77748809Y-74707200D01*
X77748809Y-74707200D02*
X77605952Y-74754819D01*
X77605952Y-74754819D02*
X77510714Y-74754819D01*
X78891666Y-74754819D02*
X78320238Y-74754819D01*
X78605952Y-74754819D02*
X78605952Y-73754819D01*
X78605952Y-73754819D02*
X78510714Y-73897676D01*
X78510714Y-73897676D02*
X78415476Y-73992914D01*
X78415476Y-73992914D02*
X78320238Y-74040533D01*
X118132141Y-123456565D02*
X117655951Y-123456565D01*
X117655951Y-123456565D02*
X117655951Y-122456565D01*
X118370237Y-122456565D02*
X119036903Y-122456565D01*
X119036903Y-122456565D02*
X118608332Y-123456565D01*
X123907142Y-138354819D02*
X123573809Y-137878628D01*
X123335714Y-138354819D02*
X123335714Y-137354819D01*
X123335714Y-137354819D02*
X123716666Y-137354819D01*
X123716666Y-137354819D02*
X123811904Y-137402438D01*
X123811904Y-137402438D02*
X123859523Y-137450057D01*
X123859523Y-137450057D02*
X123907142Y-137545295D01*
X123907142Y-137545295D02*
X123907142Y-137688152D01*
X123907142Y-137688152D02*
X123859523Y-137783390D01*
X123859523Y-137783390D02*
X123811904Y-137831009D01*
X123811904Y-137831009D02*
X123716666Y-137878628D01*
X123716666Y-137878628D02*
X123335714Y-137878628D01*
X124859523Y-138354819D02*
X124288095Y-138354819D01*
X124573809Y-138354819D02*
X124573809Y-137354819D01*
X124573809Y-137354819D02*
X124478571Y-137497676D01*
X124478571Y-137497676D02*
X124383333Y-137592914D01*
X124383333Y-137592914D02*
X124288095Y-137640533D01*
X125811904Y-138354819D02*
X125240476Y-138354819D01*
X125526190Y-138354819D02*
X125526190Y-137354819D01*
X125526190Y-137354819D02*
X125430952Y-137497676D01*
X125430952Y-137497676D02*
X125335714Y-137592914D01*
X125335714Y-137592914D02*
X125240476Y-137640533D01*
X96588342Y-121390580D02*
X96540723Y-121438200D01*
X96540723Y-121438200D02*
X96397866Y-121485819D01*
X96397866Y-121485819D02*
X96302628Y-121485819D01*
X96302628Y-121485819D02*
X96159771Y-121438200D01*
X96159771Y-121438200D02*
X96064533Y-121342961D01*
X96064533Y-121342961D02*
X96016914Y-121247723D01*
X96016914Y-121247723D02*
X95969295Y-121057247D01*
X95969295Y-121057247D02*
X95969295Y-120914390D01*
X95969295Y-120914390D02*
X96016914Y-120723914D01*
X96016914Y-120723914D02*
X96064533Y-120628676D01*
X96064533Y-120628676D02*
X96159771Y-120533438D01*
X96159771Y-120533438D02*
X96302628Y-120485819D01*
X96302628Y-120485819D02*
X96397866Y-120485819D01*
X96397866Y-120485819D02*
X96540723Y-120533438D01*
X96540723Y-120533438D02*
X96588342Y-120581057D01*
X97540723Y-121485819D02*
X96969295Y-121485819D01*
X97255009Y-121485819D02*
X97255009Y-120485819D01*
X97255009Y-120485819D02*
X97159771Y-120628676D01*
X97159771Y-120628676D02*
X97064533Y-120723914D01*
X97064533Y-120723914D02*
X96969295Y-120771533D01*
X97874057Y-120485819D02*
X98540723Y-120485819D01*
X98540723Y-120485819D02*
X98112152Y-121485819D01*
X75074542Y-91012180D02*
X75026923Y-91059800D01*
X75026923Y-91059800D02*
X74884066Y-91107419D01*
X74884066Y-91107419D02*
X74788828Y-91107419D01*
X74788828Y-91107419D02*
X74645971Y-91059800D01*
X74645971Y-91059800D02*
X74550733Y-90964561D01*
X74550733Y-90964561D02*
X74503114Y-90869323D01*
X74503114Y-90869323D02*
X74455495Y-90678847D01*
X74455495Y-90678847D02*
X74455495Y-90535990D01*
X74455495Y-90535990D02*
X74503114Y-90345514D01*
X74503114Y-90345514D02*
X74550733Y-90250276D01*
X74550733Y-90250276D02*
X74645971Y-90155038D01*
X74645971Y-90155038D02*
X74788828Y-90107419D01*
X74788828Y-90107419D02*
X74884066Y-90107419D01*
X74884066Y-90107419D02*
X75026923Y-90155038D01*
X75026923Y-90155038D02*
X75074542Y-90202657D01*
X76026923Y-91107419D02*
X75455495Y-91107419D01*
X75741209Y-91107419D02*
X75741209Y-90107419D01*
X75741209Y-90107419D02*
X75645971Y-90250276D01*
X75645971Y-90250276D02*
X75550733Y-90345514D01*
X75550733Y-90345514D02*
X75455495Y-90393133D01*
X76503114Y-91107419D02*
X76693590Y-91107419D01*
X76693590Y-91107419D02*
X76788828Y-91059800D01*
X76788828Y-91059800D02*
X76836447Y-91012180D01*
X76836447Y-91012180D02*
X76931685Y-90869323D01*
X76931685Y-90869323D02*
X76979304Y-90678847D01*
X76979304Y-90678847D02*
X76979304Y-90297895D01*
X76979304Y-90297895D02*
X76931685Y-90202657D01*
X76931685Y-90202657D02*
X76884066Y-90155038D01*
X76884066Y-90155038D02*
X76788828Y-90107419D01*
X76788828Y-90107419D02*
X76598352Y-90107419D01*
X76598352Y-90107419D02*
X76503114Y-90155038D01*
X76503114Y-90155038D02*
X76455495Y-90202657D01*
X76455495Y-90202657D02*
X76407876Y-90297895D01*
X76407876Y-90297895D02*
X76407876Y-90535990D01*
X76407876Y-90535990D02*
X76455495Y-90631228D01*
X76455495Y-90631228D02*
X76503114Y-90678847D01*
X76503114Y-90678847D02*
X76598352Y-90726466D01*
X76598352Y-90726466D02*
X76788828Y-90726466D01*
X76788828Y-90726466D02*
X76884066Y-90678847D01*
X76884066Y-90678847D02*
X76931685Y-90631228D01*
X76931685Y-90631228D02*
X76979304Y-90535990D01*
X125833333Y-115004319D02*
X125357143Y-115004319D01*
X125357143Y-115004319D02*
X125357143Y-114004319D01*
X126595238Y-114337652D02*
X126595238Y-115004319D01*
X126357143Y-113956700D02*
X126119048Y-114670985D01*
X126119048Y-114670985D02*
X126738095Y-114670985D01*
X93357142Y-133529819D02*
X93023809Y-133053628D01*
X92785714Y-133529819D02*
X92785714Y-132529819D01*
X92785714Y-132529819D02*
X93166666Y-132529819D01*
X93166666Y-132529819D02*
X93261904Y-132577438D01*
X93261904Y-132577438D02*
X93309523Y-132625057D01*
X93309523Y-132625057D02*
X93357142Y-132720295D01*
X93357142Y-132720295D02*
X93357142Y-132863152D01*
X93357142Y-132863152D02*
X93309523Y-132958390D01*
X93309523Y-132958390D02*
X93261904Y-133006009D01*
X93261904Y-133006009D02*
X93166666Y-133053628D01*
X93166666Y-133053628D02*
X92785714Y-133053628D01*
X94309523Y-133529819D02*
X93738095Y-133529819D01*
X94023809Y-133529819D02*
X94023809Y-132529819D01*
X94023809Y-132529819D02*
X93928571Y-132672676D01*
X93928571Y-132672676D02*
X93833333Y-132767914D01*
X93833333Y-132767914D02*
X93738095Y-132815533D01*
X94880952Y-132958390D02*
X94785714Y-132910771D01*
X94785714Y-132910771D02*
X94738095Y-132863152D01*
X94738095Y-132863152D02*
X94690476Y-132767914D01*
X94690476Y-132767914D02*
X94690476Y-132720295D01*
X94690476Y-132720295D02*
X94738095Y-132625057D01*
X94738095Y-132625057D02*
X94785714Y-132577438D01*
X94785714Y-132577438D02*
X94880952Y-132529819D01*
X94880952Y-132529819D02*
X95071428Y-132529819D01*
X95071428Y-132529819D02*
X95166666Y-132577438D01*
X95166666Y-132577438D02*
X95214285Y-132625057D01*
X95214285Y-132625057D02*
X95261904Y-132720295D01*
X95261904Y-132720295D02*
X95261904Y-132767914D01*
X95261904Y-132767914D02*
X95214285Y-132863152D01*
X95214285Y-132863152D02*
X95166666Y-132910771D01*
X95166666Y-132910771D02*
X95071428Y-132958390D01*
X95071428Y-132958390D02*
X94880952Y-132958390D01*
X94880952Y-132958390D02*
X94785714Y-133006009D01*
X94785714Y-133006009D02*
X94738095Y-133053628D01*
X94738095Y-133053628D02*
X94690476Y-133148866D01*
X94690476Y-133148866D02*
X94690476Y-133339342D01*
X94690476Y-133339342D02*
X94738095Y-133434580D01*
X94738095Y-133434580D02*
X94785714Y-133482200D01*
X94785714Y-133482200D02*
X94880952Y-133529819D01*
X94880952Y-133529819D02*
X95071428Y-133529819D01*
X95071428Y-133529819D02*
X95166666Y-133482200D01*
X95166666Y-133482200D02*
X95214285Y-133434580D01*
X95214285Y-133434580D02*
X95261904Y-133339342D01*
X95261904Y-133339342D02*
X95261904Y-133148866D01*
X95261904Y-133148866D02*
X95214285Y-133053628D01*
X95214285Y-133053628D02*
X95166666Y-133006009D01*
X95166666Y-133006009D02*
X95071428Y-132958390D01*
X121683333Y-133009580D02*
X121635714Y-133057200D01*
X121635714Y-133057200D02*
X121492857Y-133104819D01*
X121492857Y-133104819D02*
X121397619Y-133104819D01*
X121397619Y-133104819D02*
X121254762Y-133057200D01*
X121254762Y-133057200D02*
X121159524Y-132961961D01*
X121159524Y-132961961D02*
X121111905Y-132866723D01*
X121111905Y-132866723D02*
X121064286Y-132676247D01*
X121064286Y-132676247D02*
X121064286Y-132533390D01*
X121064286Y-132533390D02*
X121111905Y-132342914D01*
X121111905Y-132342914D02*
X121159524Y-132247676D01*
X121159524Y-132247676D02*
X121254762Y-132152438D01*
X121254762Y-132152438D02*
X121397619Y-132104819D01*
X121397619Y-132104819D02*
X121492857Y-132104819D01*
X121492857Y-132104819D02*
X121635714Y-132152438D01*
X121635714Y-132152438D02*
X121683333Y-132200057D01*
X122254762Y-132533390D02*
X122159524Y-132485771D01*
X122159524Y-132485771D02*
X122111905Y-132438152D01*
X122111905Y-132438152D02*
X122064286Y-132342914D01*
X122064286Y-132342914D02*
X122064286Y-132295295D01*
X122064286Y-132295295D02*
X122111905Y-132200057D01*
X122111905Y-132200057D02*
X122159524Y-132152438D01*
X122159524Y-132152438D02*
X122254762Y-132104819D01*
X122254762Y-132104819D02*
X122445238Y-132104819D01*
X122445238Y-132104819D02*
X122540476Y-132152438D01*
X122540476Y-132152438D02*
X122588095Y-132200057D01*
X122588095Y-132200057D02*
X122635714Y-132295295D01*
X122635714Y-132295295D02*
X122635714Y-132342914D01*
X122635714Y-132342914D02*
X122588095Y-132438152D01*
X122588095Y-132438152D02*
X122540476Y-132485771D01*
X122540476Y-132485771D02*
X122445238Y-132533390D01*
X122445238Y-132533390D02*
X122254762Y-132533390D01*
X122254762Y-132533390D02*
X122159524Y-132581009D01*
X122159524Y-132581009D02*
X122111905Y-132628628D01*
X122111905Y-132628628D02*
X122064286Y-132723866D01*
X122064286Y-132723866D02*
X122064286Y-132914342D01*
X122064286Y-132914342D02*
X122111905Y-133009580D01*
X122111905Y-133009580D02*
X122159524Y-133057200D01*
X122159524Y-133057200D02*
X122254762Y-133104819D01*
X122254762Y-133104819D02*
X122445238Y-133104819D01*
X122445238Y-133104819D02*
X122540476Y-133057200D01*
X122540476Y-133057200D02*
X122588095Y-133009580D01*
X122588095Y-133009580D02*
X122635714Y-132914342D01*
X122635714Y-132914342D02*
X122635714Y-132723866D01*
X122635714Y-132723866D02*
X122588095Y-132628628D01*
X122588095Y-132628628D02*
X122540476Y-132581009D01*
X122540476Y-132581009D02*
X122445238Y-132533390D01*
X74757142Y-105129580D02*
X74709523Y-105177200D01*
X74709523Y-105177200D02*
X74566666Y-105224819D01*
X74566666Y-105224819D02*
X74471428Y-105224819D01*
X74471428Y-105224819D02*
X74328571Y-105177200D01*
X74328571Y-105177200D02*
X74233333Y-105081961D01*
X74233333Y-105081961D02*
X74185714Y-104986723D01*
X74185714Y-104986723D02*
X74138095Y-104796247D01*
X74138095Y-104796247D02*
X74138095Y-104653390D01*
X74138095Y-104653390D02*
X74185714Y-104462914D01*
X74185714Y-104462914D02*
X74233333Y-104367676D01*
X74233333Y-104367676D02*
X74328571Y-104272438D01*
X74328571Y-104272438D02*
X74471428Y-104224819D01*
X74471428Y-104224819D02*
X74566666Y-104224819D01*
X74566666Y-104224819D02*
X74709523Y-104272438D01*
X74709523Y-104272438D02*
X74757142Y-104320057D01*
X75138095Y-104320057D02*
X75185714Y-104272438D01*
X75185714Y-104272438D02*
X75280952Y-104224819D01*
X75280952Y-104224819D02*
X75519047Y-104224819D01*
X75519047Y-104224819D02*
X75614285Y-104272438D01*
X75614285Y-104272438D02*
X75661904Y-104320057D01*
X75661904Y-104320057D02*
X75709523Y-104415295D01*
X75709523Y-104415295D02*
X75709523Y-104510533D01*
X75709523Y-104510533D02*
X75661904Y-104653390D01*
X75661904Y-104653390D02*
X75090476Y-105224819D01*
X75090476Y-105224819D02*
X75709523Y-105224819D01*
X76042857Y-104224819D02*
X76661904Y-104224819D01*
X76661904Y-104224819D02*
X76328571Y-104605771D01*
X76328571Y-104605771D02*
X76471428Y-104605771D01*
X76471428Y-104605771D02*
X76566666Y-104653390D01*
X76566666Y-104653390D02*
X76614285Y-104701009D01*
X76614285Y-104701009D02*
X76661904Y-104796247D01*
X76661904Y-104796247D02*
X76661904Y-105034342D01*
X76661904Y-105034342D02*
X76614285Y-105129580D01*
X76614285Y-105129580D02*
X76566666Y-105177200D01*
X76566666Y-105177200D02*
X76471428Y-105224819D01*
X76471428Y-105224819D02*
X76185714Y-105224819D01*
X76185714Y-105224819D02*
X76090476Y-105177200D01*
X76090476Y-105177200D02*
X76042857Y-105129580D01*
X96672333Y-60558819D02*
X96339000Y-60082628D01*
X96100905Y-60558819D02*
X96100905Y-59558819D01*
X96100905Y-59558819D02*
X96481857Y-59558819D01*
X96481857Y-59558819D02*
X96577095Y-59606438D01*
X96577095Y-59606438D02*
X96624714Y-59654057D01*
X96624714Y-59654057D02*
X96672333Y-59749295D01*
X96672333Y-59749295D02*
X96672333Y-59892152D01*
X96672333Y-59892152D02*
X96624714Y-59987390D01*
X96624714Y-59987390D02*
X96577095Y-60035009D01*
X96577095Y-60035009D02*
X96481857Y-60082628D01*
X96481857Y-60082628D02*
X96100905Y-60082628D01*
X97624714Y-60558819D02*
X97053286Y-60558819D01*
X97339000Y-60558819D02*
X97339000Y-59558819D01*
X97339000Y-59558819D02*
X97243762Y-59701676D01*
X97243762Y-59701676D02*
X97148524Y-59796914D01*
X97148524Y-59796914D02*
X97053286Y-59844533D01*
X88511905Y-110454819D02*
X88511905Y-109454819D01*
X88511905Y-109454819D02*
X88750000Y-109454819D01*
X88750000Y-109454819D02*
X88892857Y-109502438D01*
X88892857Y-109502438D02*
X88988095Y-109597676D01*
X88988095Y-109597676D02*
X89035714Y-109692914D01*
X89035714Y-109692914D02*
X89083333Y-109883390D01*
X89083333Y-109883390D02*
X89083333Y-110026247D01*
X89083333Y-110026247D02*
X89035714Y-110216723D01*
X89035714Y-110216723D02*
X88988095Y-110311961D01*
X88988095Y-110311961D02*
X88892857Y-110407200D01*
X88892857Y-110407200D02*
X88750000Y-110454819D01*
X88750000Y-110454819D02*
X88511905Y-110454819D01*
X89464286Y-109550057D02*
X89511905Y-109502438D01*
X89511905Y-109502438D02*
X89607143Y-109454819D01*
X89607143Y-109454819D02*
X89845238Y-109454819D01*
X89845238Y-109454819D02*
X89940476Y-109502438D01*
X89940476Y-109502438D02*
X89988095Y-109550057D01*
X89988095Y-109550057D02*
X90035714Y-109645295D01*
X90035714Y-109645295D02*
X90035714Y-109740533D01*
X90035714Y-109740533D02*
X89988095Y-109883390D01*
X89988095Y-109883390D02*
X89416667Y-110454819D01*
X89416667Y-110454819D02*
X90035714Y-110454819D01*
X96832142Y-129404819D02*
X96498809Y-128928628D01*
X96260714Y-129404819D02*
X96260714Y-128404819D01*
X96260714Y-128404819D02*
X96641666Y-128404819D01*
X96641666Y-128404819D02*
X96736904Y-128452438D01*
X96736904Y-128452438D02*
X96784523Y-128500057D01*
X96784523Y-128500057D02*
X96832142Y-128595295D01*
X96832142Y-128595295D02*
X96832142Y-128738152D01*
X96832142Y-128738152D02*
X96784523Y-128833390D01*
X96784523Y-128833390D02*
X96736904Y-128881009D01*
X96736904Y-128881009D02*
X96641666Y-128928628D01*
X96641666Y-128928628D02*
X96260714Y-128928628D01*
X97784523Y-129404819D02*
X97213095Y-129404819D01*
X97498809Y-129404819D02*
X97498809Y-128404819D01*
X97498809Y-128404819D02*
X97403571Y-128547676D01*
X97403571Y-128547676D02*
X97308333Y-128642914D01*
X97308333Y-128642914D02*
X97213095Y-128690533D01*
X98260714Y-129404819D02*
X98451190Y-129404819D01*
X98451190Y-129404819D02*
X98546428Y-129357200D01*
X98546428Y-129357200D02*
X98594047Y-129309580D01*
X98594047Y-129309580D02*
X98689285Y-129166723D01*
X98689285Y-129166723D02*
X98736904Y-128976247D01*
X98736904Y-128976247D02*
X98736904Y-128595295D01*
X98736904Y-128595295D02*
X98689285Y-128500057D01*
X98689285Y-128500057D02*
X98641666Y-128452438D01*
X98641666Y-128452438D02*
X98546428Y-128404819D01*
X98546428Y-128404819D02*
X98355952Y-128404819D01*
X98355952Y-128404819D02*
X98260714Y-128452438D01*
X98260714Y-128452438D02*
X98213095Y-128500057D01*
X98213095Y-128500057D02*
X98165476Y-128595295D01*
X98165476Y-128595295D02*
X98165476Y-128833390D01*
X98165476Y-128833390D02*
X98213095Y-128928628D01*
X98213095Y-128928628D02*
X98260714Y-128976247D01*
X98260714Y-128976247D02*
X98355952Y-129023866D01*
X98355952Y-129023866D02*
X98546428Y-129023866D01*
X98546428Y-129023866D02*
X98641666Y-128976247D01*
X98641666Y-128976247D02*
X98689285Y-128928628D01*
X98689285Y-128928628D02*
X98736904Y-128833390D01*
X89832142Y-128709580D02*
X89784523Y-128757200D01*
X89784523Y-128757200D02*
X89641666Y-128804819D01*
X89641666Y-128804819D02*
X89546428Y-128804819D01*
X89546428Y-128804819D02*
X89403571Y-128757200D01*
X89403571Y-128757200D02*
X89308333Y-128661961D01*
X89308333Y-128661961D02*
X89260714Y-128566723D01*
X89260714Y-128566723D02*
X89213095Y-128376247D01*
X89213095Y-128376247D02*
X89213095Y-128233390D01*
X89213095Y-128233390D02*
X89260714Y-128042914D01*
X89260714Y-128042914D02*
X89308333Y-127947676D01*
X89308333Y-127947676D02*
X89403571Y-127852438D01*
X89403571Y-127852438D02*
X89546428Y-127804819D01*
X89546428Y-127804819D02*
X89641666Y-127804819D01*
X89641666Y-127804819D02*
X89784523Y-127852438D01*
X89784523Y-127852438D02*
X89832142Y-127900057D01*
X90213095Y-127900057D02*
X90260714Y-127852438D01*
X90260714Y-127852438D02*
X90355952Y-127804819D01*
X90355952Y-127804819D02*
X90594047Y-127804819D01*
X90594047Y-127804819D02*
X90689285Y-127852438D01*
X90689285Y-127852438D02*
X90736904Y-127900057D01*
X90736904Y-127900057D02*
X90784523Y-127995295D01*
X90784523Y-127995295D02*
X90784523Y-128090533D01*
X90784523Y-128090533D02*
X90736904Y-128233390D01*
X90736904Y-128233390D02*
X90165476Y-128804819D01*
X90165476Y-128804819D02*
X90784523Y-128804819D01*
X91736904Y-128804819D02*
X91165476Y-128804819D01*
X91451190Y-128804819D02*
X91451190Y-127804819D01*
X91451190Y-127804819D02*
X91355952Y-127947676D01*
X91355952Y-127947676D02*
X91260714Y-128042914D01*
X91260714Y-128042914D02*
X91165476Y-128090533D01*
X106261905Y-60354819D02*
X106261905Y-59354819D01*
X106261905Y-59354819D02*
X106500000Y-59354819D01*
X106500000Y-59354819D02*
X106642857Y-59402438D01*
X106642857Y-59402438D02*
X106738095Y-59497676D01*
X106738095Y-59497676D02*
X106785714Y-59592914D01*
X106785714Y-59592914D02*
X106833333Y-59783390D01*
X106833333Y-59783390D02*
X106833333Y-59926247D01*
X106833333Y-59926247D02*
X106785714Y-60116723D01*
X106785714Y-60116723D02*
X106738095Y-60211961D01*
X106738095Y-60211961D02*
X106642857Y-60307200D01*
X106642857Y-60307200D02*
X106500000Y-60354819D01*
X106500000Y-60354819D02*
X106261905Y-60354819D01*
X107785714Y-60354819D02*
X107214286Y-60354819D01*
X107500000Y-60354819D02*
X107500000Y-59354819D01*
X107500000Y-59354819D02*
X107404762Y-59497676D01*
X107404762Y-59497676D02*
X107309524Y-59592914D01*
X107309524Y-59592914D02*
X107214286Y-59640533D01*
X102667261Y-126850057D02*
X102572023Y-126802438D01*
X102572023Y-126802438D02*
X102476785Y-126707200D01*
X102476785Y-126707200D02*
X102333928Y-126564342D01*
X102333928Y-126564342D02*
X102238690Y-126516723D01*
X102238690Y-126516723D02*
X102143452Y-126516723D01*
X102191071Y-126754819D02*
X102095833Y-126707200D01*
X102095833Y-126707200D02*
X102000595Y-126611961D01*
X102000595Y-126611961D02*
X101952976Y-126421485D01*
X101952976Y-126421485D02*
X101952976Y-126088152D01*
X101952976Y-126088152D02*
X102000595Y-125897676D01*
X102000595Y-125897676D02*
X102095833Y-125802438D01*
X102095833Y-125802438D02*
X102191071Y-125754819D01*
X102191071Y-125754819D02*
X102381547Y-125754819D01*
X102381547Y-125754819D02*
X102476785Y-125802438D01*
X102476785Y-125802438D02*
X102572023Y-125897676D01*
X102572023Y-125897676D02*
X102619642Y-126088152D01*
X102619642Y-126088152D02*
X102619642Y-126421485D01*
X102619642Y-126421485D02*
X102572023Y-126611961D01*
X102572023Y-126611961D02*
X102476785Y-126707200D01*
X102476785Y-126707200D02*
X102381547Y-126754819D01*
X102381547Y-126754819D02*
X102191071Y-126754819D01*
X103524404Y-125754819D02*
X103048214Y-125754819D01*
X103048214Y-125754819D02*
X103000595Y-126231009D01*
X103000595Y-126231009D02*
X103048214Y-126183390D01*
X103048214Y-126183390D02*
X103143452Y-126135771D01*
X103143452Y-126135771D02*
X103381547Y-126135771D01*
X103381547Y-126135771D02*
X103476785Y-126183390D01*
X103476785Y-126183390D02*
X103524404Y-126231009D01*
X103524404Y-126231009D02*
X103572023Y-126326247D01*
X103572023Y-126326247D02*
X103572023Y-126564342D01*
X103572023Y-126564342D02*
X103524404Y-126659580D01*
X103524404Y-126659580D02*
X103476785Y-126707200D01*
X103476785Y-126707200D02*
X103381547Y-126754819D01*
X103381547Y-126754819D02*
X103143452Y-126754819D01*
X103143452Y-126754819D02*
X103048214Y-126707200D01*
X103048214Y-126707200D02*
X103000595Y-126659580D01*
X116733333Y-116359580D02*
X116685714Y-116407200D01*
X116685714Y-116407200D02*
X116542857Y-116454819D01*
X116542857Y-116454819D02*
X116447619Y-116454819D01*
X116447619Y-116454819D02*
X116304762Y-116407200D01*
X116304762Y-116407200D02*
X116209524Y-116311961D01*
X116209524Y-116311961D02*
X116161905Y-116216723D01*
X116161905Y-116216723D02*
X116114286Y-116026247D01*
X116114286Y-116026247D02*
X116114286Y-115883390D01*
X116114286Y-115883390D02*
X116161905Y-115692914D01*
X116161905Y-115692914D02*
X116209524Y-115597676D01*
X116209524Y-115597676D02*
X116304762Y-115502438D01*
X116304762Y-115502438D02*
X116447619Y-115454819D01*
X116447619Y-115454819D02*
X116542857Y-115454819D01*
X116542857Y-115454819D02*
X116685714Y-115502438D01*
X116685714Y-115502438D02*
X116733333Y-115550057D01*
X117066667Y-115454819D02*
X117685714Y-115454819D01*
X117685714Y-115454819D02*
X117352381Y-115835771D01*
X117352381Y-115835771D02*
X117495238Y-115835771D01*
X117495238Y-115835771D02*
X117590476Y-115883390D01*
X117590476Y-115883390D02*
X117638095Y-115931009D01*
X117638095Y-115931009D02*
X117685714Y-116026247D01*
X117685714Y-116026247D02*
X117685714Y-116264342D01*
X117685714Y-116264342D02*
X117638095Y-116359580D01*
X117638095Y-116359580D02*
X117590476Y-116407200D01*
X117590476Y-116407200D02*
X117495238Y-116454819D01*
X117495238Y-116454819D02*
X117209524Y-116454819D01*
X117209524Y-116454819D02*
X117114286Y-116407200D01*
X117114286Y-116407200D02*
X117066667Y-116359580D01*
X111533333Y-123509580D02*
X111485714Y-123557200D01*
X111485714Y-123557200D02*
X111342857Y-123604819D01*
X111342857Y-123604819D02*
X111247619Y-123604819D01*
X111247619Y-123604819D02*
X111104762Y-123557200D01*
X111104762Y-123557200D02*
X111009524Y-123461961D01*
X111009524Y-123461961D02*
X110961905Y-123366723D01*
X110961905Y-123366723D02*
X110914286Y-123176247D01*
X110914286Y-123176247D02*
X110914286Y-123033390D01*
X110914286Y-123033390D02*
X110961905Y-122842914D01*
X110961905Y-122842914D02*
X111009524Y-122747676D01*
X111009524Y-122747676D02*
X111104762Y-122652438D01*
X111104762Y-122652438D02*
X111247619Y-122604819D01*
X111247619Y-122604819D02*
X111342857Y-122604819D01*
X111342857Y-122604819D02*
X111485714Y-122652438D01*
X111485714Y-122652438D02*
X111533333Y-122700057D01*
X112438095Y-122604819D02*
X111961905Y-122604819D01*
X111961905Y-122604819D02*
X111914286Y-123081009D01*
X111914286Y-123081009D02*
X111961905Y-123033390D01*
X111961905Y-123033390D02*
X112057143Y-122985771D01*
X112057143Y-122985771D02*
X112295238Y-122985771D01*
X112295238Y-122985771D02*
X112390476Y-123033390D01*
X112390476Y-123033390D02*
X112438095Y-123081009D01*
X112438095Y-123081009D02*
X112485714Y-123176247D01*
X112485714Y-123176247D02*
X112485714Y-123414342D01*
X112485714Y-123414342D02*
X112438095Y-123509580D01*
X112438095Y-123509580D02*
X112390476Y-123557200D01*
X112390476Y-123557200D02*
X112295238Y-123604819D01*
X112295238Y-123604819D02*
X112057143Y-123604819D01*
X112057143Y-123604819D02*
X111961905Y-123557200D01*
X111961905Y-123557200D02*
X111914286Y-123509580D01*
X121157142Y-136809580D02*
X121109523Y-136857200D01*
X121109523Y-136857200D02*
X120966666Y-136904819D01*
X120966666Y-136904819D02*
X120871428Y-136904819D01*
X120871428Y-136904819D02*
X120728571Y-136857200D01*
X120728571Y-136857200D02*
X120633333Y-136761961D01*
X120633333Y-136761961D02*
X120585714Y-136666723D01*
X120585714Y-136666723D02*
X120538095Y-136476247D01*
X120538095Y-136476247D02*
X120538095Y-136333390D01*
X120538095Y-136333390D02*
X120585714Y-136142914D01*
X120585714Y-136142914D02*
X120633333Y-136047676D01*
X120633333Y-136047676D02*
X120728571Y-135952438D01*
X120728571Y-135952438D02*
X120871428Y-135904819D01*
X120871428Y-135904819D02*
X120966666Y-135904819D01*
X120966666Y-135904819D02*
X121109523Y-135952438D01*
X121109523Y-135952438D02*
X121157142Y-136000057D01*
X122109523Y-136904819D02*
X121538095Y-136904819D01*
X121823809Y-136904819D02*
X121823809Y-135904819D01*
X121823809Y-135904819D02*
X121728571Y-136047676D01*
X121728571Y-136047676D02*
X121633333Y-136142914D01*
X121633333Y-136142914D02*
X121538095Y-136190533D01*
X122490476Y-136000057D02*
X122538095Y-135952438D01*
X122538095Y-135952438D02*
X122633333Y-135904819D01*
X122633333Y-135904819D02*
X122871428Y-135904819D01*
X122871428Y-135904819D02*
X122966666Y-135952438D01*
X122966666Y-135952438D02*
X123014285Y-136000057D01*
X123014285Y-136000057D02*
X123061904Y-136095295D01*
X123061904Y-136095295D02*
X123061904Y-136190533D01*
X123061904Y-136190533D02*
X123014285Y-136333390D01*
X123014285Y-136333390D02*
X122442857Y-136904819D01*
X122442857Y-136904819D02*
X123061904Y-136904819D01*
X125164630Y-120041545D02*
X125871737Y-119334439D01*
X125871737Y-119334439D02*
X126040096Y-119502797D01*
X126040096Y-119502797D02*
X126107439Y-119637484D01*
X126107439Y-119637484D02*
X126107439Y-119772171D01*
X126107439Y-119772171D02*
X126073767Y-119873187D01*
X126073767Y-119873187D02*
X125972752Y-120041545D01*
X125972752Y-120041545D02*
X125871737Y-120142561D01*
X125871737Y-120142561D02*
X125703378Y-120243576D01*
X125703378Y-120243576D02*
X125602363Y-120277248D01*
X125602363Y-120277248D02*
X125467676Y-120277248D01*
X125467676Y-120277248D02*
X125332989Y-120209904D01*
X125332989Y-120209904D02*
X125164630Y-120041545D01*
X126646187Y-120580293D02*
X126174783Y-121051698D01*
X126747202Y-120142561D02*
X126073767Y-120479278D01*
X126073767Y-120479278D02*
X126511500Y-120917011D01*
X75861942Y-88980180D02*
X75814323Y-89027800D01*
X75814323Y-89027800D02*
X75671466Y-89075419D01*
X75671466Y-89075419D02*
X75576228Y-89075419D01*
X75576228Y-89075419D02*
X75433371Y-89027800D01*
X75433371Y-89027800D02*
X75338133Y-88932561D01*
X75338133Y-88932561D02*
X75290514Y-88837323D01*
X75290514Y-88837323D02*
X75242895Y-88646847D01*
X75242895Y-88646847D02*
X75242895Y-88503990D01*
X75242895Y-88503990D02*
X75290514Y-88313514D01*
X75290514Y-88313514D02*
X75338133Y-88218276D01*
X75338133Y-88218276D02*
X75433371Y-88123038D01*
X75433371Y-88123038D02*
X75576228Y-88075419D01*
X75576228Y-88075419D02*
X75671466Y-88075419D01*
X75671466Y-88075419D02*
X75814323Y-88123038D01*
X75814323Y-88123038D02*
X75861942Y-88170657D01*
X76814323Y-89075419D02*
X76242895Y-89075419D01*
X76528609Y-89075419D02*
X76528609Y-88075419D01*
X76528609Y-88075419D02*
X76433371Y-88218276D01*
X76433371Y-88218276D02*
X76338133Y-88313514D01*
X76338133Y-88313514D02*
X76242895Y-88361133D01*
X77385752Y-88503990D02*
X77290514Y-88456371D01*
X77290514Y-88456371D02*
X77242895Y-88408752D01*
X77242895Y-88408752D02*
X77195276Y-88313514D01*
X77195276Y-88313514D02*
X77195276Y-88265895D01*
X77195276Y-88265895D02*
X77242895Y-88170657D01*
X77242895Y-88170657D02*
X77290514Y-88123038D01*
X77290514Y-88123038D02*
X77385752Y-88075419D01*
X77385752Y-88075419D02*
X77576228Y-88075419D01*
X77576228Y-88075419D02*
X77671466Y-88123038D01*
X77671466Y-88123038D02*
X77719085Y-88170657D01*
X77719085Y-88170657D02*
X77766704Y-88265895D01*
X77766704Y-88265895D02*
X77766704Y-88313514D01*
X77766704Y-88313514D02*
X77719085Y-88408752D01*
X77719085Y-88408752D02*
X77671466Y-88456371D01*
X77671466Y-88456371D02*
X77576228Y-88503990D01*
X77576228Y-88503990D02*
X77385752Y-88503990D01*
X77385752Y-88503990D02*
X77290514Y-88551609D01*
X77290514Y-88551609D02*
X77242895Y-88599228D01*
X77242895Y-88599228D02*
X77195276Y-88694466D01*
X77195276Y-88694466D02*
X77195276Y-88884942D01*
X77195276Y-88884942D02*
X77242895Y-88980180D01*
X77242895Y-88980180D02*
X77290514Y-89027800D01*
X77290514Y-89027800D02*
X77385752Y-89075419D01*
X77385752Y-89075419D02*
X77576228Y-89075419D01*
X77576228Y-89075419D02*
X77671466Y-89027800D01*
X77671466Y-89027800D02*
X77719085Y-88980180D01*
X77719085Y-88980180D02*
X77766704Y-88884942D01*
X77766704Y-88884942D02*
X77766704Y-88694466D01*
X77766704Y-88694466D02*
X77719085Y-88599228D01*
X77719085Y-88599228D02*
X77671466Y-88551609D01*
X77671466Y-88551609D02*
X77576228Y-88503990D01*
X73511905Y-118954819D02*
X73511905Y-117954819D01*
X73511905Y-117954819D02*
X73750000Y-117954819D01*
X73750000Y-117954819D02*
X73892857Y-118002438D01*
X73892857Y-118002438D02*
X73988095Y-118097676D01*
X73988095Y-118097676D02*
X74035714Y-118192914D01*
X74035714Y-118192914D02*
X74083333Y-118383390D01*
X74083333Y-118383390D02*
X74083333Y-118526247D01*
X74083333Y-118526247D02*
X74035714Y-118716723D01*
X74035714Y-118716723D02*
X73988095Y-118811961D01*
X73988095Y-118811961D02*
X73892857Y-118907200D01*
X73892857Y-118907200D02*
X73750000Y-118954819D01*
X73750000Y-118954819D02*
X73511905Y-118954819D01*
X74416667Y-117954819D02*
X75083333Y-117954819D01*
X75083333Y-117954819D02*
X74654762Y-118954819D01*
X96604761Y-126650057D02*
X96509523Y-126602438D01*
X96509523Y-126602438D02*
X96414285Y-126507200D01*
X96414285Y-126507200D02*
X96271428Y-126364342D01*
X96271428Y-126364342D02*
X96176190Y-126316723D01*
X96176190Y-126316723D02*
X96080952Y-126316723D01*
X96128571Y-126554819D02*
X96033333Y-126507200D01*
X96033333Y-126507200D02*
X95938095Y-126411961D01*
X95938095Y-126411961D02*
X95890476Y-126221485D01*
X95890476Y-126221485D02*
X95890476Y-125888152D01*
X95890476Y-125888152D02*
X95938095Y-125697676D01*
X95938095Y-125697676D02*
X96033333Y-125602438D01*
X96033333Y-125602438D02*
X96128571Y-125554819D01*
X96128571Y-125554819D02*
X96319047Y-125554819D01*
X96319047Y-125554819D02*
X96414285Y-125602438D01*
X96414285Y-125602438D02*
X96509523Y-125697676D01*
X96509523Y-125697676D02*
X96557142Y-125888152D01*
X96557142Y-125888152D02*
X96557142Y-126221485D01*
X96557142Y-126221485D02*
X96509523Y-126411961D01*
X96509523Y-126411961D02*
X96414285Y-126507200D01*
X96414285Y-126507200D02*
X96319047Y-126554819D01*
X96319047Y-126554819D02*
X96128571Y-126554819D01*
X96890476Y-125554819D02*
X97509523Y-125554819D01*
X97509523Y-125554819D02*
X97176190Y-125935771D01*
X97176190Y-125935771D02*
X97319047Y-125935771D01*
X97319047Y-125935771D02*
X97414285Y-125983390D01*
X97414285Y-125983390D02*
X97461904Y-126031009D01*
X97461904Y-126031009D02*
X97509523Y-126126247D01*
X97509523Y-126126247D02*
X97509523Y-126364342D01*
X97509523Y-126364342D02*
X97461904Y-126459580D01*
X97461904Y-126459580D02*
X97414285Y-126507200D01*
X97414285Y-126507200D02*
X97319047Y-126554819D01*
X97319047Y-126554819D02*
X97033333Y-126554819D01*
X97033333Y-126554819D02*
X96938095Y-126507200D01*
X96938095Y-126507200D02*
X96890476Y-126459580D01*
X133366666Y-126854819D02*
X133366666Y-127569104D01*
X133366666Y-127569104D02*
X133319047Y-127711961D01*
X133319047Y-127711961D02*
X133223809Y-127807200D01*
X133223809Y-127807200D02*
X133080952Y-127854819D01*
X133080952Y-127854819D02*
X132985714Y-127854819D01*
X134271428Y-127188152D02*
X134271428Y-127854819D01*
X134033333Y-126807200D02*
X133795238Y-127521485D01*
X133795238Y-127521485D02*
X134414285Y-127521485D01*
X96682142Y-134854819D02*
X96348809Y-134378628D01*
X96110714Y-134854819D02*
X96110714Y-133854819D01*
X96110714Y-133854819D02*
X96491666Y-133854819D01*
X96491666Y-133854819D02*
X96586904Y-133902438D01*
X96586904Y-133902438D02*
X96634523Y-133950057D01*
X96634523Y-133950057D02*
X96682142Y-134045295D01*
X96682142Y-134045295D02*
X96682142Y-134188152D01*
X96682142Y-134188152D02*
X96634523Y-134283390D01*
X96634523Y-134283390D02*
X96586904Y-134331009D01*
X96586904Y-134331009D02*
X96491666Y-134378628D01*
X96491666Y-134378628D02*
X96110714Y-134378628D01*
X97063095Y-133950057D02*
X97110714Y-133902438D01*
X97110714Y-133902438D02*
X97205952Y-133854819D01*
X97205952Y-133854819D02*
X97444047Y-133854819D01*
X97444047Y-133854819D02*
X97539285Y-133902438D01*
X97539285Y-133902438D02*
X97586904Y-133950057D01*
X97586904Y-133950057D02*
X97634523Y-134045295D01*
X97634523Y-134045295D02*
X97634523Y-134140533D01*
X97634523Y-134140533D02*
X97586904Y-134283390D01*
X97586904Y-134283390D02*
X97015476Y-134854819D01*
X97015476Y-134854819D02*
X97634523Y-134854819D01*
X98253571Y-133854819D02*
X98348809Y-133854819D01*
X98348809Y-133854819D02*
X98444047Y-133902438D01*
X98444047Y-133902438D02*
X98491666Y-133950057D01*
X98491666Y-133950057D02*
X98539285Y-134045295D01*
X98539285Y-134045295D02*
X98586904Y-134235771D01*
X98586904Y-134235771D02*
X98586904Y-134473866D01*
X98586904Y-134473866D02*
X98539285Y-134664342D01*
X98539285Y-134664342D02*
X98491666Y-134759580D01*
X98491666Y-134759580D02*
X98444047Y-134807200D01*
X98444047Y-134807200D02*
X98348809Y-134854819D01*
X98348809Y-134854819D02*
X98253571Y-134854819D01*
X98253571Y-134854819D02*
X98158333Y-134807200D01*
X98158333Y-134807200D02*
X98110714Y-134759580D01*
X98110714Y-134759580D02*
X98063095Y-134664342D01*
X98063095Y-134664342D02*
X98015476Y-134473866D01*
X98015476Y-134473866D02*
X98015476Y-134235771D01*
X98015476Y-134235771D02*
X98063095Y-134045295D01*
X98063095Y-134045295D02*
X98110714Y-133950057D01*
X98110714Y-133950057D02*
X98158333Y-133902438D01*
X98158333Y-133902438D02*
X98253571Y-133854819D01*
X116733333Y-118009580D02*
X116685714Y-118057200D01*
X116685714Y-118057200D02*
X116542857Y-118104819D01*
X116542857Y-118104819D02*
X116447619Y-118104819D01*
X116447619Y-118104819D02*
X116304762Y-118057200D01*
X116304762Y-118057200D02*
X116209524Y-117961961D01*
X116209524Y-117961961D02*
X116161905Y-117866723D01*
X116161905Y-117866723D02*
X116114286Y-117676247D01*
X116114286Y-117676247D02*
X116114286Y-117533390D01*
X116114286Y-117533390D02*
X116161905Y-117342914D01*
X116161905Y-117342914D02*
X116209524Y-117247676D01*
X116209524Y-117247676D02*
X116304762Y-117152438D01*
X116304762Y-117152438D02*
X116447619Y-117104819D01*
X116447619Y-117104819D02*
X116542857Y-117104819D01*
X116542857Y-117104819D02*
X116685714Y-117152438D01*
X116685714Y-117152438D02*
X116733333Y-117200057D01*
X117590476Y-117438152D02*
X117590476Y-118104819D01*
X117352381Y-117057200D02*
X117114286Y-117771485D01*
X117114286Y-117771485D02*
X117733333Y-117771485D01*
X104083333Y-99174819D02*
X103750000Y-98698628D01*
X103511905Y-99174819D02*
X103511905Y-98174819D01*
X103511905Y-98174819D02*
X103892857Y-98174819D01*
X103892857Y-98174819D02*
X103988095Y-98222438D01*
X103988095Y-98222438D02*
X104035714Y-98270057D01*
X104035714Y-98270057D02*
X104083333Y-98365295D01*
X104083333Y-98365295D02*
X104083333Y-98508152D01*
X104083333Y-98508152D02*
X104035714Y-98603390D01*
X104035714Y-98603390D02*
X103988095Y-98651009D01*
X103988095Y-98651009D02*
X103892857Y-98698628D01*
X103892857Y-98698628D02*
X103511905Y-98698628D01*
X104940476Y-98174819D02*
X104750000Y-98174819D01*
X104750000Y-98174819D02*
X104654762Y-98222438D01*
X104654762Y-98222438D02*
X104607143Y-98270057D01*
X104607143Y-98270057D02*
X104511905Y-98412914D01*
X104511905Y-98412914D02*
X104464286Y-98603390D01*
X104464286Y-98603390D02*
X104464286Y-98984342D01*
X104464286Y-98984342D02*
X104511905Y-99079580D01*
X104511905Y-99079580D02*
X104559524Y-99127200D01*
X104559524Y-99127200D02*
X104654762Y-99174819D01*
X104654762Y-99174819D02*
X104845238Y-99174819D01*
X104845238Y-99174819D02*
X104940476Y-99127200D01*
X104940476Y-99127200D02*
X104988095Y-99079580D01*
X104988095Y-99079580D02*
X105035714Y-98984342D01*
X105035714Y-98984342D02*
X105035714Y-98746247D01*
X105035714Y-98746247D02*
X104988095Y-98651009D01*
X104988095Y-98651009D02*
X104940476Y-98603390D01*
X104940476Y-98603390D02*
X104845238Y-98555771D01*
X104845238Y-98555771D02*
X104654762Y-98555771D01*
X104654762Y-98555771D02*
X104559524Y-98603390D01*
X104559524Y-98603390D02*
X104511905Y-98651009D01*
X104511905Y-98651009D02*
X104464286Y-98746247D01*
X78243133Y-116623980D02*
X78195514Y-116671600D01*
X78195514Y-116671600D02*
X78052657Y-116719219D01*
X78052657Y-116719219D02*
X77957419Y-116719219D01*
X77957419Y-116719219D02*
X77814562Y-116671600D01*
X77814562Y-116671600D02*
X77719324Y-116576361D01*
X77719324Y-116576361D02*
X77671705Y-116481123D01*
X77671705Y-116481123D02*
X77624086Y-116290647D01*
X77624086Y-116290647D02*
X77624086Y-116147790D01*
X77624086Y-116147790D02*
X77671705Y-115957314D01*
X77671705Y-115957314D02*
X77719324Y-115862076D01*
X77719324Y-115862076D02*
X77814562Y-115766838D01*
X77814562Y-115766838D02*
X77957419Y-115719219D01*
X77957419Y-115719219D02*
X78052657Y-115719219D01*
X78052657Y-115719219D02*
X78195514Y-115766838D01*
X78195514Y-115766838D02*
X78243133Y-115814457D01*
X78719324Y-116719219D02*
X78909800Y-116719219D01*
X78909800Y-116719219D02*
X79005038Y-116671600D01*
X79005038Y-116671600D02*
X79052657Y-116623980D01*
X79052657Y-116623980D02*
X79147895Y-116481123D01*
X79147895Y-116481123D02*
X79195514Y-116290647D01*
X79195514Y-116290647D02*
X79195514Y-115909695D01*
X79195514Y-115909695D02*
X79147895Y-115814457D01*
X79147895Y-115814457D02*
X79100276Y-115766838D01*
X79100276Y-115766838D02*
X79005038Y-115719219D01*
X79005038Y-115719219D02*
X78814562Y-115719219D01*
X78814562Y-115719219D02*
X78719324Y-115766838D01*
X78719324Y-115766838D02*
X78671705Y-115814457D01*
X78671705Y-115814457D02*
X78624086Y-115909695D01*
X78624086Y-115909695D02*
X78624086Y-116147790D01*
X78624086Y-116147790D02*
X78671705Y-116243028D01*
X78671705Y-116243028D02*
X78719324Y-116290647D01*
X78719324Y-116290647D02*
X78814562Y-116338266D01*
X78814562Y-116338266D02*
X79005038Y-116338266D01*
X79005038Y-116338266D02*
X79100276Y-116290647D01*
X79100276Y-116290647D02*
X79147895Y-116243028D01*
X79147895Y-116243028D02*
X79195514Y-116147790D01*
X122383333Y-123504819D02*
X121907143Y-123504819D01*
X121907143Y-123504819D02*
X121907143Y-122504819D01*
X123145238Y-122504819D02*
X122954762Y-122504819D01*
X122954762Y-122504819D02*
X122859524Y-122552438D01*
X122859524Y-122552438D02*
X122811905Y-122600057D01*
X122811905Y-122600057D02*
X122716667Y-122742914D01*
X122716667Y-122742914D02*
X122669048Y-122933390D01*
X122669048Y-122933390D02*
X122669048Y-123314342D01*
X122669048Y-123314342D02*
X122716667Y-123409580D01*
X122716667Y-123409580D02*
X122764286Y-123457200D01*
X122764286Y-123457200D02*
X122859524Y-123504819D01*
X122859524Y-123504819D02*
X123050000Y-123504819D01*
X123050000Y-123504819D02*
X123145238Y-123457200D01*
X123145238Y-123457200D02*
X123192857Y-123409580D01*
X123192857Y-123409580D02*
X123240476Y-123314342D01*
X123240476Y-123314342D02*
X123240476Y-123076247D01*
X123240476Y-123076247D02*
X123192857Y-122981009D01*
X123192857Y-122981009D02*
X123145238Y-122933390D01*
X123145238Y-122933390D02*
X123050000Y-122885771D01*
X123050000Y-122885771D02*
X122859524Y-122885771D01*
X122859524Y-122885771D02*
X122764286Y-122933390D01*
X122764286Y-122933390D02*
X122716667Y-122981009D01*
X122716667Y-122981009D02*
X122669048Y-123076247D01*
X125269642Y-60558819D02*
X124936309Y-60082628D01*
X124698214Y-60558819D02*
X124698214Y-59558819D01*
X124698214Y-59558819D02*
X125079166Y-59558819D01*
X125079166Y-59558819D02*
X125174404Y-59606438D01*
X125174404Y-59606438D02*
X125222023Y-59654057D01*
X125222023Y-59654057D02*
X125269642Y-59749295D01*
X125269642Y-59749295D02*
X125269642Y-59892152D01*
X125269642Y-59892152D02*
X125222023Y-59987390D01*
X125222023Y-59987390D02*
X125174404Y-60035009D01*
X125174404Y-60035009D02*
X125079166Y-60082628D01*
X125079166Y-60082628D02*
X124698214Y-60082628D01*
X126222023Y-60558819D02*
X125650595Y-60558819D01*
X125936309Y-60558819D02*
X125936309Y-59558819D01*
X125936309Y-59558819D02*
X125841071Y-59701676D01*
X125841071Y-59701676D02*
X125745833Y-59796914D01*
X125745833Y-59796914D02*
X125650595Y-59844533D01*
X126555357Y-59558819D02*
X127174404Y-59558819D01*
X127174404Y-59558819D02*
X126841071Y-59939771D01*
X126841071Y-59939771D02*
X126983928Y-59939771D01*
X126983928Y-59939771D02*
X127079166Y-59987390D01*
X127079166Y-59987390D02*
X127126785Y-60035009D01*
X127126785Y-60035009D02*
X127174404Y-60130247D01*
X127174404Y-60130247D02*
X127174404Y-60368342D01*
X127174404Y-60368342D02*
X127126785Y-60463580D01*
X127126785Y-60463580D02*
X127079166Y-60511200D01*
X127079166Y-60511200D02*
X126983928Y-60558819D01*
X126983928Y-60558819D02*
X126698214Y-60558819D01*
X126698214Y-60558819D02*
X126602976Y-60511200D01*
X126602976Y-60511200D02*
X126555357Y-60463580D01*
X121207142Y-135559580D02*
X121159523Y-135607200D01*
X121159523Y-135607200D02*
X121016666Y-135654819D01*
X121016666Y-135654819D02*
X120921428Y-135654819D01*
X120921428Y-135654819D02*
X120778571Y-135607200D01*
X120778571Y-135607200D02*
X120683333Y-135511961D01*
X120683333Y-135511961D02*
X120635714Y-135416723D01*
X120635714Y-135416723D02*
X120588095Y-135226247D01*
X120588095Y-135226247D02*
X120588095Y-135083390D01*
X120588095Y-135083390D02*
X120635714Y-134892914D01*
X120635714Y-134892914D02*
X120683333Y-134797676D01*
X120683333Y-134797676D02*
X120778571Y-134702438D01*
X120778571Y-134702438D02*
X120921428Y-134654819D01*
X120921428Y-134654819D02*
X121016666Y-134654819D01*
X121016666Y-134654819D02*
X121159523Y-134702438D01*
X121159523Y-134702438D02*
X121207142Y-134750057D01*
X122159523Y-135654819D02*
X121588095Y-135654819D01*
X121873809Y-135654819D02*
X121873809Y-134654819D01*
X121873809Y-134654819D02*
X121778571Y-134797676D01*
X121778571Y-134797676D02*
X121683333Y-134892914D01*
X121683333Y-134892914D02*
X121588095Y-134940533D01*
X123111904Y-135654819D02*
X122540476Y-135654819D01*
X122826190Y-135654819D02*
X122826190Y-134654819D01*
X122826190Y-134654819D02*
X122730952Y-134797676D01*
X122730952Y-134797676D02*
X122635714Y-134892914D01*
X122635714Y-134892914D02*
X122540476Y-134940533D01*
X83526333Y-113535619D02*
X83050143Y-113535619D01*
X83050143Y-113535619D02*
X83050143Y-112535619D01*
X83764429Y-112535619D02*
X84383476Y-112535619D01*
X84383476Y-112535619D02*
X84050143Y-112916571D01*
X84050143Y-112916571D02*
X84193000Y-112916571D01*
X84193000Y-112916571D02*
X84288238Y-112964190D01*
X84288238Y-112964190D02*
X84335857Y-113011809D01*
X84335857Y-113011809D02*
X84383476Y-113107047D01*
X84383476Y-113107047D02*
X84383476Y-113345142D01*
X84383476Y-113345142D02*
X84335857Y-113440380D01*
X84335857Y-113440380D02*
X84288238Y-113488000D01*
X84288238Y-113488000D02*
X84193000Y-113535619D01*
X84193000Y-113535619D02*
X83907286Y-113535619D01*
X83907286Y-113535619D02*
X83812048Y-113488000D01*
X83812048Y-113488000D02*
X83764429Y-113440380D01*
X99504761Y-137950057D02*
X99409523Y-137902438D01*
X99409523Y-137902438D02*
X99314285Y-137807200D01*
X99314285Y-137807200D02*
X99171428Y-137664342D01*
X99171428Y-137664342D02*
X99076190Y-137616723D01*
X99076190Y-137616723D02*
X98980952Y-137616723D01*
X99028571Y-137854819D02*
X98933333Y-137807200D01*
X98933333Y-137807200D02*
X98838095Y-137711961D01*
X98838095Y-137711961D02*
X98790476Y-137521485D01*
X98790476Y-137521485D02*
X98790476Y-137188152D01*
X98790476Y-137188152D02*
X98838095Y-136997676D01*
X98838095Y-136997676D02*
X98933333Y-136902438D01*
X98933333Y-136902438D02*
X99028571Y-136854819D01*
X99028571Y-136854819D02*
X99219047Y-136854819D01*
X99219047Y-136854819D02*
X99314285Y-136902438D01*
X99314285Y-136902438D02*
X99409523Y-136997676D01*
X99409523Y-136997676D02*
X99457142Y-137188152D01*
X99457142Y-137188152D02*
X99457142Y-137521485D01*
X99457142Y-137521485D02*
X99409523Y-137711961D01*
X99409523Y-137711961D02*
X99314285Y-137807200D01*
X99314285Y-137807200D02*
X99219047Y-137854819D01*
X99219047Y-137854819D02*
X99028571Y-137854819D01*
X100314285Y-136854819D02*
X100123809Y-136854819D01*
X100123809Y-136854819D02*
X100028571Y-136902438D01*
X100028571Y-136902438D02*
X99980952Y-136950057D01*
X99980952Y-136950057D02*
X99885714Y-137092914D01*
X99885714Y-137092914D02*
X99838095Y-137283390D01*
X99838095Y-137283390D02*
X99838095Y-137664342D01*
X99838095Y-137664342D02*
X99885714Y-137759580D01*
X99885714Y-137759580D02*
X99933333Y-137807200D01*
X99933333Y-137807200D02*
X100028571Y-137854819D01*
X100028571Y-137854819D02*
X100219047Y-137854819D01*
X100219047Y-137854819D02*
X100314285Y-137807200D01*
X100314285Y-137807200D02*
X100361904Y-137759580D01*
X100361904Y-137759580D02*
X100409523Y-137664342D01*
X100409523Y-137664342D02*
X100409523Y-137426247D01*
X100409523Y-137426247D02*
X100361904Y-137331009D01*
X100361904Y-137331009D02*
X100314285Y-137283390D01*
X100314285Y-137283390D02*
X100219047Y-137235771D01*
X100219047Y-137235771D02*
X100028571Y-137235771D01*
X100028571Y-137235771D02*
X99933333Y-137283390D01*
X99933333Y-137283390D02*
X99885714Y-137331009D01*
X99885714Y-137331009D02*
X99838095Y-137426247D01*
X111533333Y-122209580D02*
X111485714Y-122257200D01*
X111485714Y-122257200D02*
X111342857Y-122304819D01*
X111342857Y-122304819D02*
X111247619Y-122304819D01*
X111247619Y-122304819D02*
X111104762Y-122257200D01*
X111104762Y-122257200D02*
X111009524Y-122161961D01*
X111009524Y-122161961D02*
X110961905Y-122066723D01*
X110961905Y-122066723D02*
X110914286Y-121876247D01*
X110914286Y-121876247D02*
X110914286Y-121733390D01*
X110914286Y-121733390D02*
X110961905Y-121542914D01*
X110961905Y-121542914D02*
X111009524Y-121447676D01*
X111009524Y-121447676D02*
X111104762Y-121352438D01*
X111104762Y-121352438D02*
X111247619Y-121304819D01*
X111247619Y-121304819D02*
X111342857Y-121304819D01*
X111342857Y-121304819D02*
X111485714Y-121352438D01*
X111485714Y-121352438D02*
X111533333Y-121400057D01*
X111866667Y-121304819D02*
X112533333Y-121304819D01*
X112533333Y-121304819D02*
X112104762Y-122304819D01*
X130067261Y-60450057D02*
X129972023Y-60402438D01*
X129972023Y-60402438D02*
X129876785Y-60307200D01*
X129876785Y-60307200D02*
X129733928Y-60164342D01*
X129733928Y-60164342D02*
X129638690Y-60116723D01*
X129638690Y-60116723D02*
X129543452Y-60116723D01*
X129591071Y-60354819D02*
X129495833Y-60307200D01*
X129495833Y-60307200D02*
X129400595Y-60211961D01*
X129400595Y-60211961D02*
X129352976Y-60021485D01*
X129352976Y-60021485D02*
X129352976Y-59688152D01*
X129352976Y-59688152D02*
X129400595Y-59497676D01*
X129400595Y-59497676D02*
X129495833Y-59402438D01*
X129495833Y-59402438D02*
X129591071Y-59354819D01*
X129591071Y-59354819D02*
X129781547Y-59354819D01*
X129781547Y-59354819D02*
X129876785Y-59402438D01*
X129876785Y-59402438D02*
X129972023Y-59497676D01*
X129972023Y-59497676D02*
X130019642Y-59688152D01*
X130019642Y-59688152D02*
X130019642Y-60021485D01*
X130019642Y-60021485D02*
X129972023Y-60211961D01*
X129972023Y-60211961D02*
X129876785Y-60307200D01*
X129876785Y-60307200D02*
X129781547Y-60354819D01*
X129781547Y-60354819D02*
X129591071Y-60354819D01*
X130400595Y-59450057D02*
X130448214Y-59402438D01*
X130448214Y-59402438D02*
X130543452Y-59354819D01*
X130543452Y-59354819D02*
X130781547Y-59354819D01*
X130781547Y-59354819D02*
X130876785Y-59402438D01*
X130876785Y-59402438D02*
X130924404Y-59450057D01*
X130924404Y-59450057D02*
X130972023Y-59545295D01*
X130972023Y-59545295D02*
X130972023Y-59640533D01*
X130972023Y-59640533D02*
X130924404Y-59783390D01*
X130924404Y-59783390D02*
X130352976Y-60354819D01*
X130352976Y-60354819D02*
X130972023Y-60354819D01*
X92011905Y-110454819D02*
X92011905Y-109454819D01*
X92011905Y-109454819D02*
X92250000Y-109454819D01*
X92250000Y-109454819D02*
X92392857Y-109502438D01*
X92392857Y-109502438D02*
X92488095Y-109597676D01*
X92488095Y-109597676D02*
X92535714Y-109692914D01*
X92535714Y-109692914D02*
X92583333Y-109883390D01*
X92583333Y-109883390D02*
X92583333Y-110026247D01*
X92583333Y-110026247D02*
X92535714Y-110216723D01*
X92535714Y-110216723D02*
X92488095Y-110311961D01*
X92488095Y-110311961D02*
X92392857Y-110407200D01*
X92392857Y-110407200D02*
X92250000Y-110454819D01*
X92250000Y-110454819D02*
X92011905Y-110454819D01*
X92916667Y-109454819D02*
X93535714Y-109454819D01*
X93535714Y-109454819D02*
X93202381Y-109835771D01*
X93202381Y-109835771D02*
X93345238Y-109835771D01*
X93345238Y-109835771D02*
X93440476Y-109883390D01*
X93440476Y-109883390D02*
X93488095Y-109931009D01*
X93488095Y-109931009D02*
X93535714Y-110026247D01*
X93535714Y-110026247D02*
X93535714Y-110264342D01*
X93535714Y-110264342D02*
X93488095Y-110359580D01*
X93488095Y-110359580D02*
X93440476Y-110407200D01*
X93440476Y-110407200D02*
X93345238Y-110454819D01*
X93345238Y-110454819D02*
X93059524Y-110454819D01*
X93059524Y-110454819D02*
X92964286Y-110407200D01*
X92964286Y-110407200D02*
X92916667Y-110359580D01*
X81083333Y-104174819D02*
X80750000Y-103698628D01*
X80511905Y-104174819D02*
X80511905Y-103174819D01*
X80511905Y-103174819D02*
X80892857Y-103174819D01*
X80892857Y-103174819D02*
X80988095Y-103222438D01*
X80988095Y-103222438D02*
X81035714Y-103270057D01*
X81035714Y-103270057D02*
X81083333Y-103365295D01*
X81083333Y-103365295D02*
X81083333Y-103508152D01*
X81083333Y-103508152D02*
X81035714Y-103603390D01*
X81035714Y-103603390D02*
X80988095Y-103651009D01*
X80988095Y-103651009D02*
X80892857Y-103698628D01*
X80892857Y-103698628D02*
X80511905Y-103698628D01*
X81464286Y-103270057D02*
X81511905Y-103222438D01*
X81511905Y-103222438D02*
X81607143Y-103174819D01*
X81607143Y-103174819D02*
X81845238Y-103174819D01*
X81845238Y-103174819D02*
X81940476Y-103222438D01*
X81940476Y-103222438D02*
X81988095Y-103270057D01*
X81988095Y-103270057D02*
X82035714Y-103365295D01*
X82035714Y-103365295D02*
X82035714Y-103460533D01*
X82035714Y-103460533D02*
X81988095Y-103603390D01*
X81988095Y-103603390D02*
X81416667Y-104174819D01*
X81416667Y-104174819D02*
X82035714Y-104174819D01*
X96505733Y-113059380D02*
X96458114Y-113107000D01*
X96458114Y-113107000D02*
X96315257Y-113154619D01*
X96315257Y-113154619D02*
X96220019Y-113154619D01*
X96220019Y-113154619D02*
X96077162Y-113107000D01*
X96077162Y-113107000D02*
X95981924Y-113011761D01*
X95981924Y-113011761D02*
X95934305Y-112916523D01*
X95934305Y-112916523D02*
X95886686Y-112726047D01*
X95886686Y-112726047D02*
X95886686Y-112583190D01*
X95886686Y-112583190D02*
X95934305Y-112392714D01*
X95934305Y-112392714D02*
X95981924Y-112297476D01*
X95981924Y-112297476D02*
X96077162Y-112202238D01*
X96077162Y-112202238D02*
X96220019Y-112154619D01*
X96220019Y-112154619D02*
X96315257Y-112154619D01*
X96315257Y-112154619D02*
X96458114Y-112202238D01*
X96458114Y-112202238D02*
X96505733Y-112249857D01*
X96886686Y-112249857D02*
X96934305Y-112202238D01*
X96934305Y-112202238D02*
X97029543Y-112154619D01*
X97029543Y-112154619D02*
X97267638Y-112154619D01*
X97267638Y-112154619D02*
X97362876Y-112202238D01*
X97362876Y-112202238D02*
X97410495Y-112249857D01*
X97410495Y-112249857D02*
X97458114Y-112345095D01*
X97458114Y-112345095D02*
X97458114Y-112440333D01*
X97458114Y-112440333D02*
X97410495Y-112583190D01*
X97410495Y-112583190D02*
X96839067Y-113154619D01*
X96839067Y-113154619D02*
X97458114Y-113154619D01*
X89833333Y-136704819D02*
X89357143Y-136704819D01*
X89357143Y-136704819D02*
X89357143Y-135704819D01*
X90309524Y-136133390D02*
X90214286Y-136085771D01*
X90214286Y-136085771D02*
X90166667Y-136038152D01*
X90166667Y-136038152D02*
X90119048Y-135942914D01*
X90119048Y-135942914D02*
X90119048Y-135895295D01*
X90119048Y-135895295D02*
X90166667Y-135800057D01*
X90166667Y-135800057D02*
X90214286Y-135752438D01*
X90214286Y-135752438D02*
X90309524Y-135704819D01*
X90309524Y-135704819D02*
X90500000Y-135704819D01*
X90500000Y-135704819D02*
X90595238Y-135752438D01*
X90595238Y-135752438D02*
X90642857Y-135800057D01*
X90642857Y-135800057D02*
X90690476Y-135895295D01*
X90690476Y-135895295D02*
X90690476Y-135942914D01*
X90690476Y-135942914D02*
X90642857Y-136038152D01*
X90642857Y-136038152D02*
X90595238Y-136085771D01*
X90595238Y-136085771D02*
X90500000Y-136133390D01*
X90500000Y-136133390D02*
X90309524Y-136133390D01*
X90309524Y-136133390D02*
X90214286Y-136181009D01*
X90214286Y-136181009D02*
X90166667Y-136228628D01*
X90166667Y-136228628D02*
X90119048Y-136323866D01*
X90119048Y-136323866D02*
X90119048Y-136514342D01*
X90119048Y-136514342D02*
X90166667Y-136609580D01*
X90166667Y-136609580D02*
X90214286Y-136657200D01*
X90214286Y-136657200D02*
X90309524Y-136704819D01*
X90309524Y-136704819D02*
X90500000Y-136704819D01*
X90500000Y-136704819D02*
X90595238Y-136657200D01*
X90595238Y-136657200D02*
X90642857Y-136609580D01*
X90642857Y-136609580D02*
X90690476Y-136514342D01*
X90690476Y-136514342D02*
X90690476Y-136323866D01*
X90690476Y-136323866D02*
X90642857Y-136228628D01*
X90642857Y-136228628D02*
X90595238Y-136181009D01*
X90595238Y-136181009D02*
X90500000Y-136133390D01*
X74795142Y-101679580D02*
X74747523Y-101727200D01*
X74747523Y-101727200D02*
X74604666Y-101774819D01*
X74604666Y-101774819D02*
X74509428Y-101774819D01*
X74509428Y-101774819D02*
X74366571Y-101727200D01*
X74366571Y-101727200D02*
X74271333Y-101631961D01*
X74271333Y-101631961D02*
X74223714Y-101536723D01*
X74223714Y-101536723D02*
X74176095Y-101346247D01*
X74176095Y-101346247D02*
X74176095Y-101203390D01*
X74176095Y-101203390D02*
X74223714Y-101012914D01*
X74223714Y-101012914D02*
X74271333Y-100917676D01*
X74271333Y-100917676D02*
X74366571Y-100822438D01*
X74366571Y-100822438D02*
X74509428Y-100774819D01*
X74509428Y-100774819D02*
X74604666Y-100774819D01*
X74604666Y-100774819D02*
X74747523Y-100822438D01*
X74747523Y-100822438D02*
X74795142Y-100870057D01*
X75176095Y-100870057D02*
X75223714Y-100822438D01*
X75223714Y-100822438D02*
X75318952Y-100774819D01*
X75318952Y-100774819D02*
X75557047Y-100774819D01*
X75557047Y-100774819D02*
X75652285Y-100822438D01*
X75652285Y-100822438D02*
X75699904Y-100870057D01*
X75699904Y-100870057D02*
X75747523Y-100965295D01*
X75747523Y-100965295D02*
X75747523Y-101060533D01*
X75747523Y-101060533D02*
X75699904Y-101203390D01*
X75699904Y-101203390D02*
X75128476Y-101774819D01*
X75128476Y-101774819D02*
X75747523Y-101774819D01*
X76128476Y-100870057D02*
X76176095Y-100822438D01*
X76176095Y-100822438D02*
X76271333Y-100774819D01*
X76271333Y-100774819D02*
X76509428Y-100774819D01*
X76509428Y-100774819D02*
X76604666Y-100822438D01*
X76604666Y-100822438D02*
X76652285Y-100870057D01*
X76652285Y-100870057D02*
X76699904Y-100965295D01*
X76699904Y-100965295D02*
X76699904Y-101060533D01*
X76699904Y-101060533D02*
X76652285Y-101203390D01*
X76652285Y-101203390D02*
X76080857Y-101774819D01*
X76080857Y-101774819D02*
X76699904Y-101774819D01*
X157666666Y-90554819D02*
X157666666Y-91269104D01*
X157666666Y-91269104D02*
X157619047Y-91411961D01*
X157619047Y-91411961D02*
X157523809Y-91507200D01*
X157523809Y-91507200D02*
X157380952Y-91554819D01*
X157380952Y-91554819D02*
X157285714Y-91554819D01*
X158619047Y-90554819D02*
X158142857Y-90554819D01*
X158142857Y-90554819D02*
X158095238Y-91031009D01*
X158095238Y-91031009D02*
X158142857Y-90983390D01*
X158142857Y-90983390D02*
X158238095Y-90935771D01*
X158238095Y-90935771D02*
X158476190Y-90935771D01*
X158476190Y-90935771D02*
X158571428Y-90983390D01*
X158571428Y-90983390D02*
X158619047Y-91031009D01*
X158619047Y-91031009D02*
X158666666Y-91126247D01*
X158666666Y-91126247D02*
X158666666Y-91364342D01*
X158666666Y-91364342D02*
X158619047Y-91459580D01*
X158619047Y-91459580D02*
X158571428Y-91507200D01*
X158571428Y-91507200D02*
X158476190Y-91554819D01*
X158476190Y-91554819D02*
X158238095Y-91554819D01*
X158238095Y-91554819D02*
X158142857Y-91507200D01*
X158142857Y-91507200D02*
X158095238Y-91459580D01*
X114599693Y-121143517D02*
X113892587Y-120436410D01*
X113892587Y-120436410D02*
X114060945Y-120268051D01*
X114060945Y-120268051D02*
X114195632Y-120200708D01*
X114195632Y-120200708D02*
X114330319Y-120200708D01*
X114330319Y-120200708D02*
X114431335Y-120234380D01*
X114431335Y-120234380D02*
X114599693Y-120335395D01*
X114599693Y-120335395D02*
X114700709Y-120436410D01*
X114700709Y-120436410D02*
X114801724Y-120604769D01*
X114801724Y-120604769D02*
X114835396Y-120705784D01*
X114835396Y-120705784D02*
X114835396Y-120840471D01*
X114835396Y-120840471D02*
X114768052Y-120975158D01*
X114768052Y-120975158D02*
X114599693Y-121143517D01*
X114936411Y-119392586D02*
X114599693Y-119729303D01*
X114599693Y-119729303D02*
X114902739Y-120099693D01*
X114902739Y-120099693D02*
X114902739Y-120032349D01*
X114902739Y-120032349D02*
X114936411Y-119931334D01*
X114936411Y-119931334D02*
X115104770Y-119762975D01*
X115104770Y-119762975D02*
X115205785Y-119729303D01*
X115205785Y-119729303D02*
X115273128Y-119729303D01*
X115273128Y-119729303D02*
X115374144Y-119762975D01*
X115374144Y-119762975D02*
X115542502Y-119931334D01*
X115542502Y-119931334D02*
X115576174Y-120032349D01*
X115576174Y-120032349D02*
X115576174Y-120099693D01*
X115576174Y-120099693D02*
X115542502Y-120200708D01*
X115542502Y-120200708D02*
X115374144Y-120369067D01*
X115374144Y-120369067D02*
X115273128Y-120402738D01*
X115273128Y-120402738D02*
X115205785Y-120402738D01*
X105832142Y-131534580D02*
X105784523Y-131582200D01*
X105784523Y-131582200D02*
X105641666Y-131629819D01*
X105641666Y-131629819D02*
X105546428Y-131629819D01*
X105546428Y-131629819D02*
X105403571Y-131582200D01*
X105403571Y-131582200D02*
X105308333Y-131486961D01*
X105308333Y-131486961D02*
X105260714Y-131391723D01*
X105260714Y-131391723D02*
X105213095Y-131201247D01*
X105213095Y-131201247D02*
X105213095Y-131058390D01*
X105213095Y-131058390D02*
X105260714Y-130867914D01*
X105260714Y-130867914D02*
X105308333Y-130772676D01*
X105308333Y-130772676D02*
X105403571Y-130677438D01*
X105403571Y-130677438D02*
X105546428Y-130629819D01*
X105546428Y-130629819D02*
X105641666Y-130629819D01*
X105641666Y-130629819D02*
X105784523Y-130677438D01*
X105784523Y-130677438D02*
X105832142Y-130725057D01*
X106784523Y-131629819D02*
X106213095Y-131629819D01*
X106498809Y-131629819D02*
X106498809Y-130629819D01*
X106498809Y-130629819D02*
X106403571Y-130772676D01*
X106403571Y-130772676D02*
X106308333Y-130867914D01*
X106308333Y-130867914D02*
X106213095Y-130915533D01*
X107641666Y-130629819D02*
X107451190Y-130629819D01*
X107451190Y-130629819D02*
X107355952Y-130677438D01*
X107355952Y-130677438D02*
X107308333Y-130725057D01*
X107308333Y-130725057D02*
X107213095Y-130867914D01*
X107213095Y-130867914D02*
X107165476Y-131058390D01*
X107165476Y-131058390D02*
X107165476Y-131439342D01*
X107165476Y-131439342D02*
X107213095Y-131534580D01*
X107213095Y-131534580D02*
X107260714Y-131582200D01*
X107260714Y-131582200D02*
X107355952Y-131629819D01*
X107355952Y-131629819D02*
X107546428Y-131629819D01*
X107546428Y-131629819D02*
X107641666Y-131582200D01*
X107641666Y-131582200D02*
X107689285Y-131534580D01*
X107689285Y-131534580D02*
X107736904Y-131439342D01*
X107736904Y-131439342D02*
X107736904Y-131201247D01*
X107736904Y-131201247D02*
X107689285Y-131106009D01*
X107689285Y-131106009D02*
X107641666Y-131058390D01*
X107641666Y-131058390D02*
X107546428Y-131010771D01*
X107546428Y-131010771D02*
X107355952Y-131010771D01*
X107355952Y-131010771D02*
X107260714Y-131058390D01*
X107260714Y-131058390D02*
X107213095Y-131106009D01*
X107213095Y-131106009D02*
X107165476Y-131201247D01*
X81083333Y-99174819D02*
X80750000Y-98698628D01*
X80511905Y-99174819D02*
X80511905Y-98174819D01*
X80511905Y-98174819D02*
X80892857Y-98174819D01*
X80892857Y-98174819D02*
X80988095Y-98222438D01*
X80988095Y-98222438D02*
X81035714Y-98270057D01*
X81035714Y-98270057D02*
X81083333Y-98365295D01*
X81083333Y-98365295D02*
X81083333Y-98508152D01*
X81083333Y-98508152D02*
X81035714Y-98603390D01*
X81035714Y-98603390D02*
X80988095Y-98651009D01*
X80988095Y-98651009D02*
X80892857Y-98698628D01*
X80892857Y-98698628D02*
X80511905Y-98698628D01*
X81416667Y-98174819D02*
X82035714Y-98174819D01*
X82035714Y-98174819D02*
X81702381Y-98555771D01*
X81702381Y-98555771D02*
X81845238Y-98555771D01*
X81845238Y-98555771D02*
X81940476Y-98603390D01*
X81940476Y-98603390D02*
X81988095Y-98651009D01*
X81988095Y-98651009D02*
X82035714Y-98746247D01*
X82035714Y-98746247D02*
X82035714Y-98984342D01*
X82035714Y-98984342D02*
X81988095Y-99079580D01*
X81988095Y-99079580D02*
X81940476Y-99127200D01*
X81940476Y-99127200D02*
X81845238Y-99174819D01*
X81845238Y-99174819D02*
X81559524Y-99174819D01*
X81559524Y-99174819D02*
X81464286Y-99127200D01*
X81464286Y-99127200D02*
X81416667Y-99079580D01*
X73182142Y-126479819D02*
X72848809Y-126003628D01*
X72610714Y-126479819D02*
X72610714Y-125479819D01*
X72610714Y-125479819D02*
X72991666Y-125479819D01*
X72991666Y-125479819D02*
X73086904Y-125527438D01*
X73086904Y-125527438D02*
X73134523Y-125575057D01*
X73134523Y-125575057D02*
X73182142Y-125670295D01*
X73182142Y-125670295D02*
X73182142Y-125813152D01*
X73182142Y-125813152D02*
X73134523Y-125908390D01*
X73134523Y-125908390D02*
X73086904Y-125956009D01*
X73086904Y-125956009D02*
X72991666Y-126003628D01*
X72991666Y-126003628D02*
X72610714Y-126003628D01*
X74134523Y-126479819D02*
X73563095Y-126479819D01*
X73848809Y-126479819D02*
X73848809Y-125479819D01*
X73848809Y-125479819D02*
X73753571Y-125622676D01*
X73753571Y-125622676D02*
X73658333Y-125717914D01*
X73658333Y-125717914D02*
X73563095Y-125765533D01*
X74467857Y-125479819D02*
X75134523Y-125479819D01*
X75134523Y-125479819D02*
X74705952Y-126479819D01*
X134711905Y-60404819D02*
X134711905Y-59404819D01*
X134711905Y-59404819D02*
X134950000Y-59404819D01*
X134950000Y-59404819D02*
X135092857Y-59452438D01*
X135092857Y-59452438D02*
X135188095Y-59547676D01*
X135188095Y-59547676D02*
X135235714Y-59642914D01*
X135235714Y-59642914D02*
X135283333Y-59833390D01*
X135283333Y-59833390D02*
X135283333Y-59976247D01*
X135283333Y-59976247D02*
X135235714Y-60166723D01*
X135235714Y-60166723D02*
X135188095Y-60261961D01*
X135188095Y-60261961D02*
X135092857Y-60357200D01*
X135092857Y-60357200D02*
X134950000Y-60404819D01*
X134950000Y-60404819D02*
X134711905Y-60404819D01*
X135854762Y-59833390D02*
X135759524Y-59785771D01*
X135759524Y-59785771D02*
X135711905Y-59738152D01*
X135711905Y-59738152D02*
X135664286Y-59642914D01*
X135664286Y-59642914D02*
X135664286Y-59595295D01*
X135664286Y-59595295D02*
X135711905Y-59500057D01*
X135711905Y-59500057D02*
X135759524Y-59452438D01*
X135759524Y-59452438D02*
X135854762Y-59404819D01*
X135854762Y-59404819D02*
X136045238Y-59404819D01*
X136045238Y-59404819D02*
X136140476Y-59452438D01*
X136140476Y-59452438D02*
X136188095Y-59500057D01*
X136188095Y-59500057D02*
X136235714Y-59595295D01*
X136235714Y-59595295D02*
X136235714Y-59642914D01*
X136235714Y-59642914D02*
X136188095Y-59738152D01*
X136188095Y-59738152D02*
X136140476Y-59785771D01*
X136140476Y-59785771D02*
X136045238Y-59833390D01*
X136045238Y-59833390D02*
X135854762Y-59833390D01*
X135854762Y-59833390D02*
X135759524Y-59881009D01*
X135759524Y-59881009D02*
X135711905Y-59928628D01*
X135711905Y-59928628D02*
X135664286Y-60023866D01*
X135664286Y-60023866D02*
X135664286Y-60214342D01*
X135664286Y-60214342D02*
X135711905Y-60309580D01*
X135711905Y-60309580D02*
X135759524Y-60357200D01*
X135759524Y-60357200D02*
X135854762Y-60404819D01*
X135854762Y-60404819D02*
X136045238Y-60404819D01*
X136045238Y-60404819D02*
X136140476Y-60357200D01*
X136140476Y-60357200D02*
X136188095Y-60309580D01*
X136188095Y-60309580D02*
X136235714Y-60214342D01*
X136235714Y-60214342D02*
X136235714Y-60023866D01*
X136235714Y-60023866D02*
X136188095Y-59928628D01*
X136188095Y-59928628D02*
X136140476Y-59881009D01*
X136140476Y-59881009D02*
X136045238Y-59833390D01*
X105032142Y-139059580D02*
X104984523Y-139107200D01*
X104984523Y-139107200D02*
X104841666Y-139154819D01*
X104841666Y-139154819D02*
X104746428Y-139154819D01*
X104746428Y-139154819D02*
X104603571Y-139107200D01*
X104603571Y-139107200D02*
X104508333Y-139011961D01*
X104508333Y-139011961D02*
X104460714Y-138916723D01*
X104460714Y-138916723D02*
X104413095Y-138726247D01*
X104413095Y-138726247D02*
X104413095Y-138583390D01*
X104413095Y-138583390D02*
X104460714Y-138392914D01*
X104460714Y-138392914D02*
X104508333Y-138297676D01*
X104508333Y-138297676D02*
X104603571Y-138202438D01*
X104603571Y-138202438D02*
X104746428Y-138154819D01*
X104746428Y-138154819D02*
X104841666Y-138154819D01*
X104841666Y-138154819D02*
X104984523Y-138202438D01*
X104984523Y-138202438D02*
X105032142Y-138250057D01*
X105984523Y-139154819D02*
X105413095Y-139154819D01*
X105698809Y-139154819D02*
X105698809Y-138154819D01*
X105698809Y-138154819D02*
X105603571Y-138297676D01*
X105603571Y-138297676D02*
X105508333Y-138392914D01*
X105508333Y-138392914D02*
X105413095Y-138440533D01*
X106889285Y-138154819D02*
X106413095Y-138154819D01*
X106413095Y-138154819D02*
X106365476Y-138631009D01*
X106365476Y-138631009D02*
X106413095Y-138583390D01*
X106413095Y-138583390D02*
X106508333Y-138535771D01*
X106508333Y-138535771D02*
X106746428Y-138535771D01*
X106746428Y-138535771D02*
X106841666Y-138583390D01*
X106841666Y-138583390D02*
X106889285Y-138631009D01*
X106889285Y-138631009D02*
X106936904Y-138726247D01*
X106936904Y-138726247D02*
X106936904Y-138964342D01*
X106936904Y-138964342D02*
X106889285Y-139059580D01*
X106889285Y-139059580D02*
X106841666Y-139107200D01*
X106841666Y-139107200D02*
X106746428Y-139154819D01*
X106746428Y-139154819D02*
X106508333Y-139154819D01*
X106508333Y-139154819D02*
X106413095Y-139107200D01*
X106413095Y-139107200D02*
X106365476Y-139059580D01*
X78268533Y-111687780D02*
X78220914Y-111735400D01*
X78220914Y-111735400D02*
X78078057Y-111783019D01*
X78078057Y-111783019D02*
X77982819Y-111783019D01*
X77982819Y-111783019D02*
X77839962Y-111735400D01*
X77839962Y-111735400D02*
X77744724Y-111640161D01*
X77744724Y-111640161D02*
X77697105Y-111544923D01*
X77697105Y-111544923D02*
X77649486Y-111354447D01*
X77649486Y-111354447D02*
X77649486Y-111211590D01*
X77649486Y-111211590D02*
X77697105Y-111021114D01*
X77697105Y-111021114D02*
X77744724Y-110925876D01*
X77744724Y-110925876D02*
X77839962Y-110830638D01*
X77839962Y-110830638D02*
X77982819Y-110783019D01*
X77982819Y-110783019D02*
X78078057Y-110783019D01*
X78078057Y-110783019D02*
X78220914Y-110830638D01*
X78220914Y-110830638D02*
X78268533Y-110878257D01*
X79125676Y-110783019D02*
X78935200Y-110783019D01*
X78935200Y-110783019D02*
X78839962Y-110830638D01*
X78839962Y-110830638D02*
X78792343Y-110878257D01*
X78792343Y-110878257D02*
X78697105Y-111021114D01*
X78697105Y-111021114D02*
X78649486Y-111211590D01*
X78649486Y-111211590D02*
X78649486Y-111592542D01*
X78649486Y-111592542D02*
X78697105Y-111687780D01*
X78697105Y-111687780D02*
X78744724Y-111735400D01*
X78744724Y-111735400D02*
X78839962Y-111783019D01*
X78839962Y-111783019D02*
X79030438Y-111783019D01*
X79030438Y-111783019D02*
X79125676Y-111735400D01*
X79125676Y-111735400D02*
X79173295Y-111687780D01*
X79173295Y-111687780D02*
X79220914Y-111592542D01*
X79220914Y-111592542D02*
X79220914Y-111354447D01*
X79220914Y-111354447D02*
X79173295Y-111259209D01*
X79173295Y-111259209D02*
X79125676Y-111211590D01*
X79125676Y-111211590D02*
X79030438Y-111163971D01*
X79030438Y-111163971D02*
X78839962Y-111163971D01*
X78839962Y-111163971D02*
X78744724Y-111211590D01*
X78744724Y-111211590D02*
X78697105Y-111259209D01*
X78697105Y-111259209D02*
X78649486Y-111354447D01*
X130907142Y-122209580D02*
X130859523Y-122257200D01*
X130859523Y-122257200D02*
X130716666Y-122304819D01*
X130716666Y-122304819D02*
X130621428Y-122304819D01*
X130621428Y-122304819D02*
X130478571Y-122257200D01*
X130478571Y-122257200D02*
X130383333Y-122161961D01*
X130383333Y-122161961D02*
X130335714Y-122066723D01*
X130335714Y-122066723D02*
X130288095Y-121876247D01*
X130288095Y-121876247D02*
X130288095Y-121733390D01*
X130288095Y-121733390D02*
X130335714Y-121542914D01*
X130335714Y-121542914D02*
X130383333Y-121447676D01*
X130383333Y-121447676D02*
X130478571Y-121352438D01*
X130478571Y-121352438D02*
X130621428Y-121304819D01*
X130621428Y-121304819D02*
X130716666Y-121304819D01*
X130716666Y-121304819D02*
X130859523Y-121352438D01*
X130859523Y-121352438D02*
X130907142Y-121400057D01*
X131859523Y-122304819D02*
X131288095Y-122304819D01*
X131573809Y-122304819D02*
X131573809Y-121304819D01*
X131573809Y-121304819D02*
X131478571Y-121447676D01*
X131478571Y-121447676D02*
X131383333Y-121542914D01*
X131383333Y-121542914D02*
X131288095Y-121590533D01*
X132192857Y-121304819D02*
X132811904Y-121304819D01*
X132811904Y-121304819D02*
X132478571Y-121685771D01*
X132478571Y-121685771D02*
X132621428Y-121685771D01*
X132621428Y-121685771D02*
X132716666Y-121733390D01*
X132716666Y-121733390D02*
X132764285Y-121781009D01*
X132764285Y-121781009D02*
X132811904Y-121876247D01*
X132811904Y-121876247D02*
X132811904Y-122114342D01*
X132811904Y-122114342D02*
X132764285Y-122209580D01*
X132764285Y-122209580D02*
X132716666Y-122257200D01*
X132716666Y-122257200D02*
X132621428Y-122304819D01*
X132621428Y-122304819D02*
X132335714Y-122304819D01*
X132335714Y-122304819D02*
X132240476Y-122257200D01*
X132240476Y-122257200D02*
X132192857Y-122209580D01*
X68841666Y-99979819D02*
X68841666Y-100694104D01*
X68841666Y-100694104D02*
X68794047Y-100836961D01*
X68794047Y-100836961D02*
X68698809Y-100932200D01*
X68698809Y-100932200D02*
X68555952Y-100979819D01*
X68555952Y-100979819D02*
X68460714Y-100979819D01*
X69270238Y-100075057D02*
X69317857Y-100027438D01*
X69317857Y-100027438D02*
X69413095Y-99979819D01*
X69413095Y-99979819D02*
X69651190Y-99979819D01*
X69651190Y-99979819D02*
X69746428Y-100027438D01*
X69746428Y-100027438D02*
X69794047Y-100075057D01*
X69794047Y-100075057D02*
X69841666Y-100170295D01*
X69841666Y-100170295D02*
X69841666Y-100265533D01*
X69841666Y-100265533D02*
X69794047Y-100408390D01*
X69794047Y-100408390D02*
X69222619Y-100979819D01*
X69222619Y-100979819D02*
X69841666Y-100979819D01*
X101393666Y-70904819D02*
X101393666Y-71619104D01*
X101393666Y-71619104D02*
X101346047Y-71761961D01*
X101346047Y-71761961D02*
X101250809Y-71857200D01*
X101250809Y-71857200D02*
X101107952Y-71904819D01*
X101107952Y-71904819D02*
X101012714Y-71904819D01*
X101774619Y-70904819D02*
X102393666Y-70904819D01*
X102393666Y-70904819D02*
X102060333Y-71285771D01*
X102060333Y-71285771D02*
X102203190Y-71285771D01*
X102203190Y-71285771D02*
X102298428Y-71333390D01*
X102298428Y-71333390D02*
X102346047Y-71381009D01*
X102346047Y-71381009D02*
X102393666Y-71476247D01*
X102393666Y-71476247D02*
X102393666Y-71714342D01*
X102393666Y-71714342D02*
X102346047Y-71809580D01*
X102346047Y-71809580D02*
X102298428Y-71857200D01*
X102298428Y-71857200D02*
X102203190Y-71904819D01*
X102203190Y-71904819D02*
X101917476Y-71904819D01*
X101917476Y-71904819D02*
X101822238Y-71857200D01*
X101822238Y-71857200D02*
X101774619Y-71809580D01*
X76079761Y-134104819D02*
X75746428Y-133628628D01*
X75508333Y-134104819D02*
X75508333Y-133104819D01*
X75508333Y-133104819D02*
X75889285Y-133104819D01*
X75889285Y-133104819D02*
X75984523Y-133152438D01*
X75984523Y-133152438D02*
X76032142Y-133200057D01*
X76032142Y-133200057D02*
X76079761Y-133295295D01*
X76079761Y-133295295D02*
X76079761Y-133438152D01*
X76079761Y-133438152D02*
X76032142Y-133533390D01*
X76032142Y-133533390D02*
X75984523Y-133581009D01*
X75984523Y-133581009D02*
X75889285Y-133628628D01*
X75889285Y-133628628D02*
X75508333Y-133628628D01*
X76365476Y-133104819D02*
X76698809Y-134104819D01*
X76698809Y-134104819D02*
X77032142Y-133104819D01*
X77889285Y-134104819D02*
X77317857Y-134104819D01*
X77603571Y-134104819D02*
X77603571Y-133104819D01*
X77603571Y-133104819D02*
X77508333Y-133247676D01*
X77508333Y-133247676D02*
X77413095Y-133342914D01*
X77413095Y-133342914D02*
X77317857Y-133390533D01*
X104083333Y-104174819D02*
X103750000Y-103698628D01*
X103511905Y-104174819D02*
X103511905Y-103174819D01*
X103511905Y-103174819D02*
X103892857Y-103174819D01*
X103892857Y-103174819D02*
X103988095Y-103222438D01*
X103988095Y-103222438D02*
X104035714Y-103270057D01*
X104035714Y-103270057D02*
X104083333Y-103365295D01*
X104083333Y-103365295D02*
X104083333Y-103508152D01*
X104083333Y-103508152D02*
X104035714Y-103603390D01*
X104035714Y-103603390D02*
X103988095Y-103651009D01*
X103988095Y-103651009D02*
X103892857Y-103698628D01*
X103892857Y-103698628D02*
X103511905Y-103698628D01*
X104988095Y-103174819D02*
X104511905Y-103174819D01*
X104511905Y-103174819D02*
X104464286Y-103651009D01*
X104464286Y-103651009D02*
X104511905Y-103603390D01*
X104511905Y-103603390D02*
X104607143Y-103555771D01*
X104607143Y-103555771D02*
X104845238Y-103555771D01*
X104845238Y-103555771D02*
X104940476Y-103603390D01*
X104940476Y-103603390D02*
X104988095Y-103651009D01*
X104988095Y-103651009D02*
X105035714Y-103746247D01*
X105035714Y-103746247D02*
X105035714Y-103984342D01*
X105035714Y-103984342D02*
X104988095Y-104079580D01*
X104988095Y-104079580D02*
X104940476Y-104127200D01*
X104940476Y-104127200D02*
X104845238Y-104174819D01*
X104845238Y-104174819D02*
X104607143Y-104174819D01*
X104607143Y-104174819D02*
X104511905Y-104127200D01*
X104511905Y-104127200D02*
X104464286Y-104079580D01*
X109183333Y-127804819D02*
X108850000Y-127328628D01*
X108611905Y-127804819D02*
X108611905Y-126804819D01*
X108611905Y-126804819D02*
X108992857Y-126804819D01*
X108992857Y-126804819D02*
X109088095Y-126852438D01*
X109088095Y-126852438D02*
X109135714Y-126900057D01*
X109135714Y-126900057D02*
X109183333Y-126995295D01*
X109183333Y-126995295D02*
X109183333Y-127138152D01*
X109183333Y-127138152D02*
X109135714Y-127233390D01*
X109135714Y-127233390D02*
X109088095Y-127281009D01*
X109088095Y-127281009D02*
X108992857Y-127328628D01*
X108992857Y-127328628D02*
X108611905Y-127328628D01*
X109659524Y-127804819D02*
X109850000Y-127804819D01*
X109850000Y-127804819D02*
X109945238Y-127757200D01*
X109945238Y-127757200D02*
X109992857Y-127709580D01*
X109992857Y-127709580D02*
X110088095Y-127566723D01*
X110088095Y-127566723D02*
X110135714Y-127376247D01*
X110135714Y-127376247D02*
X110135714Y-126995295D01*
X110135714Y-126995295D02*
X110088095Y-126900057D01*
X110088095Y-126900057D02*
X110040476Y-126852438D01*
X110040476Y-126852438D02*
X109945238Y-126804819D01*
X109945238Y-126804819D02*
X109754762Y-126804819D01*
X109754762Y-126804819D02*
X109659524Y-126852438D01*
X109659524Y-126852438D02*
X109611905Y-126900057D01*
X109611905Y-126900057D02*
X109564286Y-126995295D01*
X109564286Y-126995295D02*
X109564286Y-127233390D01*
X109564286Y-127233390D02*
X109611905Y-127328628D01*
X109611905Y-127328628D02*
X109659524Y-127376247D01*
X109659524Y-127376247D02*
X109754762Y-127423866D01*
X109754762Y-127423866D02*
X109945238Y-127423866D01*
X109945238Y-127423866D02*
X110040476Y-127376247D01*
X110040476Y-127376247D02*
X110088095Y-127328628D01*
X110088095Y-127328628D02*
X110135714Y-127233390D01*
X157766666Y-74654819D02*
X157766666Y-75369104D01*
X157766666Y-75369104D02*
X157719047Y-75511961D01*
X157719047Y-75511961D02*
X157623809Y-75607200D01*
X157623809Y-75607200D02*
X157480952Y-75654819D01*
X157480952Y-75654819D02*
X157385714Y-75654819D01*
X158671428Y-74654819D02*
X158480952Y-74654819D01*
X158480952Y-74654819D02*
X158385714Y-74702438D01*
X158385714Y-74702438D02*
X158338095Y-74750057D01*
X158338095Y-74750057D02*
X158242857Y-74892914D01*
X158242857Y-74892914D02*
X158195238Y-75083390D01*
X158195238Y-75083390D02*
X158195238Y-75464342D01*
X158195238Y-75464342D02*
X158242857Y-75559580D01*
X158242857Y-75559580D02*
X158290476Y-75607200D01*
X158290476Y-75607200D02*
X158385714Y-75654819D01*
X158385714Y-75654819D02*
X158576190Y-75654819D01*
X158576190Y-75654819D02*
X158671428Y-75607200D01*
X158671428Y-75607200D02*
X158719047Y-75559580D01*
X158719047Y-75559580D02*
X158766666Y-75464342D01*
X158766666Y-75464342D02*
X158766666Y-75226247D01*
X158766666Y-75226247D02*
X158719047Y-75131009D01*
X158719047Y-75131009D02*
X158671428Y-75083390D01*
X158671428Y-75083390D02*
X158576190Y-75035771D01*
X158576190Y-75035771D02*
X158385714Y-75035771D01*
X158385714Y-75035771D02*
X158290476Y-75083390D01*
X158290476Y-75083390D02*
X158242857Y-75131009D01*
X158242857Y-75131009D02*
X158195238Y-75226247D01*
X77757142Y-86154819D02*
X77423809Y-85678628D01*
X77185714Y-86154819D02*
X77185714Y-85154819D01*
X77185714Y-85154819D02*
X77566666Y-85154819D01*
X77566666Y-85154819D02*
X77661904Y-85202438D01*
X77661904Y-85202438D02*
X77709523Y-85250057D01*
X77709523Y-85250057D02*
X77757142Y-85345295D01*
X77757142Y-85345295D02*
X77757142Y-85488152D01*
X77757142Y-85488152D02*
X77709523Y-85583390D01*
X77709523Y-85583390D02*
X77661904Y-85631009D01*
X77661904Y-85631009D02*
X77566666Y-85678628D01*
X77566666Y-85678628D02*
X77185714Y-85678628D01*
X78709523Y-86154819D02*
X78138095Y-86154819D01*
X78423809Y-86154819D02*
X78423809Y-85154819D01*
X78423809Y-85154819D02*
X78328571Y-85297676D01*
X78328571Y-85297676D02*
X78233333Y-85392914D01*
X78233333Y-85392914D02*
X78138095Y-85440533D01*
X79614285Y-85154819D02*
X79138095Y-85154819D01*
X79138095Y-85154819D02*
X79090476Y-85631009D01*
X79090476Y-85631009D02*
X79138095Y-85583390D01*
X79138095Y-85583390D02*
X79233333Y-85535771D01*
X79233333Y-85535771D02*
X79471428Y-85535771D01*
X79471428Y-85535771D02*
X79566666Y-85583390D01*
X79566666Y-85583390D02*
X79614285Y-85631009D01*
X79614285Y-85631009D02*
X79661904Y-85726247D01*
X79661904Y-85726247D02*
X79661904Y-85964342D01*
X79661904Y-85964342D02*
X79614285Y-86059580D01*
X79614285Y-86059580D02*
X79566666Y-86107200D01*
X79566666Y-86107200D02*
X79471428Y-86154819D01*
X79471428Y-86154819D02*
X79233333Y-86154819D01*
X79233333Y-86154819D02*
X79138095Y-86107200D01*
X79138095Y-86107200D02*
X79090476Y-86059580D01*
X96531133Y-114881819D02*
X96197800Y-114405628D01*
X95959705Y-114881819D02*
X95959705Y-113881819D01*
X95959705Y-113881819D02*
X96340657Y-113881819D01*
X96340657Y-113881819D02*
X96435895Y-113929438D01*
X96435895Y-113929438D02*
X96483514Y-113977057D01*
X96483514Y-113977057D02*
X96531133Y-114072295D01*
X96531133Y-114072295D02*
X96531133Y-114215152D01*
X96531133Y-114215152D02*
X96483514Y-114310390D01*
X96483514Y-114310390D02*
X96435895Y-114358009D01*
X96435895Y-114358009D02*
X96340657Y-114405628D01*
X96340657Y-114405628D02*
X95959705Y-114405628D01*
X96864467Y-113881819D02*
X97531133Y-113881819D01*
X97531133Y-113881819D02*
X97102562Y-114881819D01*
X89163095Y-118349819D02*
X89163095Y-119159342D01*
X89163095Y-119159342D02*
X89210714Y-119254580D01*
X89210714Y-119254580D02*
X89258333Y-119302200D01*
X89258333Y-119302200D02*
X89353571Y-119349819D01*
X89353571Y-119349819D02*
X89544047Y-119349819D01*
X89544047Y-119349819D02*
X89639285Y-119302200D01*
X89639285Y-119302200D02*
X89686904Y-119254580D01*
X89686904Y-119254580D02*
X89734523Y-119159342D01*
X89734523Y-119159342D02*
X89734523Y-118349819D01*
X90734523Y-119349819D02*
X90163095Y-119349819D01*
X90448809Y-119349819D02*
X90448809Y-118349819D01*
X90448809Y-118349819D02*
X90353571Y-118492676D01*
X90353571Y-118492676D02*
X90258333Y-118587914D01*
X90258333Y-118587914D02*
X90163095Y-118635533D01*
X89120742Y-126250819D02*
X88787409Y-125774628D01*
X88549314Y-126250819D02*
X88549314Y-125250819D01*
X88549314Y-125250819D02*
X88930266Y-125250819D01*
X88930266Y-125250819D02*
X89025504Y-125298438D01*
X89025504Y-125298438D02*
X89073123Y-125346057D01*
X89073123Y-125346057D02*
X89120742Y-125441295D01*
X89120742Y-125441295D02*
X89120742Y-125584152D01*
X89120742Y-125584152D02*
X89073123Y-125679390D01*
X89073123Y-125679390D02*
X89025504Y-125727009D01*
X89025504Y-125727009D02*
X88930266Y-125774628D01*
X88930266Y-125774628D02*
X88549314Y-125774628D01*
X90073123Y-126250819D02*
X89501695Y-126250819D01*
X89787409Y-126250819D02*
X89787409Y-125250819D01*
X89787409Y-125250819D02*
X89692171Y-125393676D01*
X89692171Y-125393676D02*
X89596933Y-125488914D01*
X89596933Y-125488914D02*
X89501695Y-125536533D01*
X90930266Y-125584152D02*
X90930266Y-126250819D01*
X90692171Y-125203200D02*
X90454076Y-125917485D01*
X90454076Y-125917485D02*
X91073123Y-125917485D01*
X118807142Y-138104819D02*
X118473809Y-137628628D01*
X118235714Y-138104819D02*
X118235714Y-137104819D01*
X118235714Y-137104819D02*
X118616666Y-137104819D01*
X118616666Y-137104819D02*
X118711904Y-137152438D01*
X118711904Y-137152438D02*
X118759523Y-137200057D01*
X118759523Y-137200057D02*
X118807142Y-137295295D01*
X118807142Y-137295295D02*
X118807142Y-137438152D01*
X118807142Y-137438152D02*
X118759523Y-137533390D01*
X118759523Y-137533390D02*
X118711904Y-137581009D01*
X118711904Y-137581009D02*
X118616666Y-137628628D01*
X118616666Y-137628628D02*
X118235714Y-137628628D01*
X119759523Y-138104819D02*
X119188095Y-138104819D01*
X119473809Y-138104819D02*
X119473809Y-137104819D01*
X119473809Y-137104819D02*
X119378571Y-137247676D01*
X119378571Y-137247676D02*
X119283333Y-137342914D01*
X119283333Y-137342914D02*
X119188095Y-137390533D01*
X120140476Y-137200057D02*
X120188095Y-137152438D01*
X120188095Y-137152438D02*
X120283333Y-137104819D01*
X120283333Y-137104819D02*
X120521428Y-137104819D01*
X120521428Y-137104819D02*
X120616666Y-137152438D01*
X120616666Y-137152438D02*
X120664285Y-137200057D01*
X120664285Y-137200057D02*
X120711904Y-137295295D01*
X120711904Y-137295295D02*
X120711904Y-137390533D01*
X120711904Y-137390533D02*
X120664285Y-137533390D01*
X120664285Y-137533390D02*
X120092857Y-138104819D01*
X120092857Y-138104819D02*
X120711904Y-138104819D01*
X80935533Y-113383219D02*
X80602200Y-112907028D01*
X80364105Y-113383219D02*
X80364105Y-112383219D01*
X80364105Y-112383219D02*
X80745057Y-112383219D01*
X80745057Y-112383219D02*
X80840295Y-112430838D01*
X80840295Y-112430838D02*
X80887914Y-112478457D01*
X80887914Y-112478457D02*
X80935533Y-112573695D01*
X80935533Y-112573695D02*
X80935533Y-112716552D01*
X80935533Y-112716552D02*
X80887914Y-112811790D01*
X80887914Y-112811790D02*
X80840295Y-112859409D01*
X80840295Y-112859409D02*
X80745057Y-112907028D01*
X80745057Y-112907028D02*
X80364105Y-112907028D01*
X81506962Y-112811790D02*
X81411724Y-112764171D01*
X81411724Y-112764171D02*
X81364105Y-112716552D01*
X81364105Y-112716552D02*
X81316486Y-112621314D01*
X81316486Y-112621314D02*
X81316486Y-112573695D01*
X81316486Y-112573695D02*
X81364105Y-112478457D01*
X81364105Y-112478457D02*
X81411724Y-112430838D01*
X81411724Y-112430838D02*
X81506962Y-112383219D01*
X81506962Y-112383219D02*
X81697438Y-112383219D01*
X81697438Y-112383219D02*
X81792676Y-112430838D01*
X81792676Y-112430838D02*
X81840295Y-112478457D01*
X81840295Y-112478457D02*
X81887914Y-112573695D01*
X81887914Y-112573695D02*
X81887914Y-112621314D01*
X81887914Y-112621314D02*
X81840295Y-112716552D01*
X81840295Y-112716552D02*
X81792676Y-112764171D01*
X81792676Y-112764171D02*
X81697438Y-112811790D01*
X81697438Y-112811790D02*
X81506962Y-112811790D01*
X81506962Y-112811790D02*
X81411724Y-112859409D01*
X81411724Y-112859409D02*
X81364105Y-112907028D01*
X81364105Y-112907028D02*
X81316486Y-113002266D01*
X81316486Y-113002266D02*
X81316486Y-113192742D01*
X81316486Y-113192742D02*
X81364105Y-113287980D01*
X81364105Y-113287980D02*
X81411724Y-113335600D01*
X81411724Y-113335600D02*
X81506962Y-113383219D01*
X81506962Y-113383219D02*
X81697438Y-113383219D01*
X81697438Y-113383219D02*
X81792676Y-113335600D01*
X81792676Y-113335600D02*
X81840295Y-113287980D01*
X81840295Y-113287980D02*
X81887914Y-113192742D01*
X81887914Y-113192742D02*
X81887914Y-113002266D01*
X81887914Y-113002266D02*
X81840295Y-112907028D01*
X81840295Y-112907028D02*
X81792676Y-112859409D01*
X81792676Y-112859409D02*
X81697438Y-112811790D01*
D14*
%TO.C,D6*%
X75494000Y-111576400D02*
X75494000Y-114436400D01*
X77414000Y-111576400D02*
X75494000Y-111576400D01*
X77414000Y-114436400D02*
X77414000Y-111576400D01*
%TO.C,L5*%
X85185067Y-117049800D02*
X84842533Y-117049800D01*
X85185067Y-118069800D02*
X84842533Y-118069800D01*
%TO.C,K1*%
X109750000Y-59572800D02*
X109750000Y-61072800D01*
X109950000Y-59772800D02*
X109950000Y-89172800D01*
X109950000Y-89172800D02*
X123050000Y-89172800D01*
X111250000Y-59572800D02*
X109750000Y-59572800D01*
X112750000Y-64862800D02*
X112750000Y-66132800D01*
X112750000Y-66132800D02*
X114020000Y-66132800D01*
X114020000Y-64862800D02*
X114020000Y-66132800D01*
X114020000Y-66132800D02*
X114020000Y-67402800D01*
X114020000Y-67402800D02*
X119100000Y-67402800D01*
D15*
X115290000Y-64862800D02*
X116560000Y-67402800D01*
D14*
X119100000Y-64862800D02*
X114020000Y-64862800D01*
X119100000Y-66132800D02*
X120370000Y-66132800D01*
X119100000Y-67402800D02*
X119100000Y-64862800D01*
X120370000Y-66132800D02*
X120370000Y-64862800D01*
X123050000Y-59772800D02*
X109950000Y-59772800D01*
X123050000Y-89172800D02*
X123050000Y-59772800D01*
%TO.C,R16*%
X94363500Y-125043224D02*
X94363500Y-124533776D01*
X95408500Y-125043224D02*
X95408500Y-124533776D01*
%TO.C,R10*%
X81814124Y-117062700D02*
X81304676Y-117062700D01*
X81814124Y-118107700D02*
X81304676Y-118107700D01*
%TO.C,C20*%
X87547000Y-130611252D02*
X87547000Y-130088748D01*
X89017000Y-130611252D02*
X89017000Y-130088748D01*
%TO.C,C10*%
X119422541Y-128316746D02*
X119715075Y-128316746D01*
X119422541Y-129336746D02*
X119715075Y-129336746D01*
D16*
%TO.C,G\u002A\u002A\u002A*%
G36*
X150880364Y-114220860D02*
G01*
X151129038Y-114352820D01*
X151424851Y-114602365D01*
X151576708Y-114868930D01*
X151582868Y-115143712D01*
X151441590Y-115417913D01*
X151358216Y-115510891D01*
X151102303Y-115737630D01*
X150848100Y-115913530D01*
X150633987Y-116014046D01*
X150549159Y-116028351D01*
X150394141Y-115991503D01*
X150286141Y-115942680D01*
X150139066Y-115833175D01*
X149959744Y-115663041D01*
X149782775Y-115470413D01*
X149642760Y-115293427D01*
X149574299Y-115170218D01*
X149572236Y-115155829D01*
X149626762Y-114915925D01*
X149766222Y-114656306D01*
X149933654Y-114463747D01*
X150256490Y-114240268D01*
X150564345Y-114160022D01*
X150880364Y-114220860D01*
G37*
G36*
X153486424Y-112262535D02*
G01*
X153577514Y-112503849D01*
X153614014Y-112841004D01*
X153612049Y-112987426D01*
X153595018Y-113240258D01*
X153563179Y-113376824D01*
X153503808Y-113431138D01*
X153443357Y-113438449D01*
X153306528Y-113501950D01*
X153270059Y-113588744D01*
X153200501Y-113859757D01*
X153090768Y-114118245D01*
X152962563Y-114324984D01*
X152837590Y-114440749D01*
X152791950Y-114452811D01*
X152760490Y-114384062D01*
X152737777Y-114203299D01*
X152728478Y-113948752D01*
X152728449Y-113932865D01*
X152704003Y-113529352D01*
X152627932Y-113245018D01*
X152597280Y-113184372D01*
X152515352Y-113026657D01*
X152514939Y-112937025D01*
X152599352Y-112855211D01*
X152616067Y-112842506D01*
X152809914Y-112752580D01*
X152964640Y-112726798D01*
X153138912Y-112679226D01*
X153231028Y-112528960D01*
X153254484Y-112298686D01*
X153284947Y-112161142D01*
X153348419Y-112141684D01*
X153486424Y-112262535D01*
G37*
G36*
X149517534Y-116359783D02*
G01*
X149710202Y-116423394D01*
X149911327Y-116500135D01*
X150056194Y-116566667D01*
X150070221Y-116575058D01*
X150193789Y-116600699D01*
X150414877Y-116605506D01*
X150682690Y-116592990D01*
X150946437Y-116566663D01*
X151155326Y-116530037D01*
X151251896Y-116493361D01*
X151382471Y-116429828D01*
X151577656Y-116372823D01*
X151582443Y-116371789D01*
X151769533Y-116354402D01*
X151825652Y-116410290D01*
X151750769Y-116539517D01*
X151544853Y-116742144D01*
X151286537Y-116956515D01*
X151087455Y-117132316D01*
X150939753Y-117295969D01*
X150886947Y-117384771D01*
X150820252Y-117507474D01*
X150722485Y-117510101D01*
X150574311Y-117388893D01*
X150500825Y-117309646D01*
X150303692Y-117134462D01*
X150053690Y-116968987D01*
X149974734Y-116927457D01*
X149805460Y-116823891D01*
X149633087Y-116685519D01*
X149484846Y-116540429D01*
X149387972Y-116416711D01*
X149369700Y-116342454D01*
X149398036Y-116332640D01*
X149517534Y-116359783D01*
G37*
G36*
X148139465Y-112197718D02*
G01*
X148158891Y-112366807D01*
X148190385Y-112580043D01*
X148257196Y-112682729D01*
X148332295Y-112709188D01*
X148652707Y-112791509D01*
X148836107Y-112913339D01*
X148878841Y-113070001D01*
X148777253Y-113256819D01*
X148768203Y-113266996D01*
X148694069Y-113395526D01*
X148656293Y-113596765D01*
X148648235Y-113907541D01*
X148648551Y-113930457D01*
X148650970Y-114188319D01*
X148649744Y-114374238D01*
X148645153Y-114450289D01*
X148644744Y-114450525D01*
X148579514Y-114416300D01*
X148503766Y-114372980D01*
X148367468Y-114232844D01*
X148239582Y-114006056D01*
X148149905Y-113754730D01*
X148125638Y-113584776D01*
X148102396Y-113450323D01*
X148014858Y-113432580D01*
X147990797Y-113439371D01*
X147862192Y-113425123D01*
X147817931Y-113347519D01*
X147731011Y-112952797D01*
X147728286Y-112682192D01*
X147755335Y-112599218D01*
X147840431Y-112427591D01*
X147922912Y-112254734D01*
X148020546Y-112089185D01*
X148092026Y-112069846D01*
X148139465Y-112197718D01*
G37*
G36*
X148887770Y-107354801D02*
G01*
X148951311Y-107445812D01*
X148932285Y-107571449D01*
X148876769Y-107636747D01*
X148773512Y-107777122D01*
X148718004Y-107924215D01*
X148603180Y-108116862D01*
X148462883Y-108208132D01*
X148285054Y-108322648D01*
X148180122Y-108451273D01*
X148065063Y-108565408D01*
X147847477Y-108680071D01*
X147562852Y-108786365D01*
X147246675Y-108875394D01*
X146934431Y-108938261D01*
X146661609Y-108966069D01*
X146463695Y-108949920D01*
X146384395Y-108901484D01*
X146363268Y-108774155D01*
X146478421Y-108693854D01*
X146716615Y-108666420D01*
X146943194Y-108643939D01*
X147050282Y-108584440D01*
X147026185Y-108499837D01*
X146939311Y-108439506D01*
X146837481Y-108342993D01*
X146873866Y-108247842D01*
X147036683Y-108164882D01*
X147301432Y-108106700D01*
X147606343Y-108060072D01*
X147785361Y-108018213D01*
X147861953Y-107969134D01*
X147859586Y-107900846D01*
X147825783Y-107838815D01*
X147773732Y-107747133D01*
X147776014Y-107685899D01*
X147857590Y-107635253D01*
X148043419Y-107575335D01*
X148219573Y-107525483D01*
X148472024Y-107451345D01*
X148679438Y-107384819D01*
X148763762Y-107353762D01*
X148887770Y-107354801D01*
G37*
G36*
X148516713Y-109579939D02*
G01*
X148739413Y-109617089D01*
X148920574Y-109679974D01*
X148921428Y-109680419D01*
X149127029Y-109749589D01*
X149277702Y-109715249D01*
X149445078Y-109694421D01*
X149649154Y-109761001D01*
X149855094Y-109887961D01*
X150028063Y-110048273D01*
X150133225Y-110214909D01*
X150135743Y-110360841D01*
X150127962Y-110374940D01*
X150000660Y-110507456D01*
X149881473Y-110515062D01*
X149833026Y-110466366D01*
X149722070Y-110414353D01*
X149560262Y-110423519D01*
X149379681Y-110430052D01*
X149296830Y-110352064D01*
X149214381Y-110274188D01*
X149039286Y-110283631D01*
X149034233Y-110284729D01*
X148866824Y-110291446D01*
X148599925Y-110270861D01*
X148277033Y-110229850D01*
X147941647Y-110175288D01*
X147637266Y-110114049D01*
X147407388Y-110053008D01*
X147311519Y-110012461D01*
X147248262Y-109931197D01*
X147315438Y-109865661D01*
X147493460Y-109822498D01*
X147762739Y-109808352D01*
X147900194Y-109812763D01*
X148143216Y-109817292D01*
X148312915Y-109803826D01*
X148369869Y-109778414D01*
X148306802Y-109729691D01*
X148219573Y-109718491D01*
X148097460Y-109687021D01*
X148069277Y-109643343D01*
X148134656Y-109591022D01*
X148299464Y-109570569D01*
X148516713Y-109579939D01*
G37*
G36*
X153027373Y-110455886D02*
G01*
X153320163Y-110506116D01*
X153458842Y-110539453D01*
X153904208Y-110657634D01*
X154202835Y-110752076D01*
X154356163Y-110824166D01*
X154365636Y-110875291D01*
X154232695Y-110906837D01*
X153958780Y-110920190D01*
X153855445Y-110920858D01*
X153329186Y-110920858D01*
X153199861Y-111219368D01*
X153103049Y-111408340D01*
X152989488Y-111504902D01*
X152800203Y-111552051D01*
X152730410Y-111561637D01*
X152482321Y-111596351D01*
X152272426Y-111630354D01*
X152224207Y-111639543D01*
X152053294Y-111615140D01*
X151986823Y-111540453D01*
X151956916Y-111377496D01*
X151972062Y-111132188D01*
X151997774Y-111002704D01*
X152246534Y-111002704D01*
X152274076Y-111127767D01*
X152322530Y-111209203D01*
X152488907Y-111349178D01*
X152676601Y-111344436D01*
X152838638Y-111224249D01*
X152923866Y-111073624D01*
X152927791Y-110961231D01*
X152847309Y-110860307D01*
X152761711Y-110863806D01*
X152728449Y-110953997D01*
X152679205Y-111087819D01*
X152557871Y-111110163D01*
X152430582Y-111036046D01*
X152304586Y-110962702D01*
X152246534Y-111002704D01*
X151997774Y-111002704D01*
X152025466Y-110863245D01*
X152086164Y-110682238D01*
X152193603Y-110585867D01*
X152398211Y-110510523D01*
X152452531Y-110499121D01*
X152764678Y-110454617D01*
X153027373Y-110455886D01*
G37*
G36*
X152684632Y-107365964D02*
G01*
X152820708Y-107411534D01*
X153094567Y-107500440D01*
X153369219Y-107570426D01*
X153423567Y-107581042D01*
X153623601Y-107636505D01*
X153704632Y-107703125D01*
X153653407Y-107767132D01*
X153616704Y-107781676D01*
X153538364Y-107848295D01*
X153579454Y-107936282D01*
X153715366Y-108024093D01*
X153921492Y-108090182D01*
X153981200Y-108100799D01*
X154226733Y-108148368D01*
X154426816Y-108205538D01*
X154482977Y-108229521D01*
X154573381Y-108290602D01*
X154549104Y-108350251D01*
X154456537Y-108419596D01*
X154359827Y-108528103D01*
X154403041Y-108610157D01*
X154576888Y-108657291D01*
X154726131Y-108665269D01*
X154944544Y-108689523D01*
X155021896Y-108760677D01*
X154973033Y-108866163D01*
X154821078Y-108942132D01*
X154566619Y-108954954D01*
X154242931Y-108905919D01*
X153968390Y-108827147D01*
X153582897Y-108685789D01*
X153301275Y-108564094D01*
X153138818Y-108469220D01*
X153104189Y-108422632D01*
X153162415Y-108367919D01*
X153183771Y-108365828D01*
X153228653Y-108319790D01*
X153216910Y-108290680D01*
X153109982Y-108225567D01*
X153037705Y-108215533D01*
X152892936Y-108160265D01*
X152732289Y-108029363D01*
X152610694Y-107875178D01*
X152578153Y-107777569D01*
X152540927Y-107645408D01*
X152487063Y-107541599D01*
X152430804Y-107396386D01*
X152496893Y-107337750D01*
X152684632Y-107365964D01*
G37*
G36*
X153265384Y-109629394D02*
G01*
X153330017Y-109681380D01*
X153472077Y-109763106D01*
X153621023Y-109781233D01*
X153831474Y-109791056D01*
X154022379Y-109837504D01*
X154140751Y-109904937D01*
X154156260Y-109939233D01*
X154087299Y-109994586D01*
X153903361Y-110059792D01*
X153638858Y-110128237D01*
X153328204Y-110193309D01*
X153005812Y-110248397D01*
X152706095Y-110286888D01*
X152463467Y-110302169D01*
X152324558Y-110291180D01*
X152130915Y-110299195D01*
X152051515Y-110357975D01*
X151926855Y-110450347D01*
X151808429Y-110461440D01*
X151751751Y-110387217D01*
X151751526Y-110379793D01*
X151729345Y-110327511D01*
X151661348Y-110379793D01*
X151516191Y-110456391D01*
X151354075Y-110463038D01*
X151283762Y-110428045D01*
X151258992Y-110307967D01*
X151340889Y-110138519D01*
X151510075Y-109952193D01*
X151620474Y-109863485D01*
X151729917Y-109793639D01*
X152953893Y-109793639D01*
X153007828Y-109866636D01*
X153024606Y-109868787D01*
X153126381Y-109814162D01*
X153141763Y-109793639D01*
X153124727Y-109729305D01*
X153071050Y-109718491D01*
X152968231Y-109757726D01*
X152953893Y-109793639D01*
X151729917Y-109793639D01*
X151825348Y-109732735D01*
X151965966Y-109695048D01*
X152058985Y-109722166D01*
X152227371Y-109753208D01*
X152464652Y-109686063D01*
X152472892Y-109682643D01*
X152776065Y-109592838D01*
X153054626Y-109575067D01*
X153265384Y-109629394D01*
G37*
G36*
X148640700Y-110466730D02*
G01*
X148960776Y-110525260D01*
X149200385Y-110632218D01*
X149249306Y-110672976D01*
X149348924Y-110831711D01*
X149412736Y-111046749D01*
X149439241Y-111277609D01*
X149426936Y-111483811D01*
X149374319Y-111624874D01*
X149285996Y-111661757D01*
X149187636Y-111647473D01*
X148990672Y-111622130D01*
X148830526Y-111602459D01*
X148506202Y-111520541D01*
X148272582Y-111373980D01*
X148154150Y-111180643D01*
X148144425Y-111101834D01*
X148116977Y-111050462D01*
X148468824Y-111050462D01*
X148517022Y-111215578D01*
X148657126Y-111339684D01*
X148849567Y-111366628D01*
X149025034Y-111287514D01*
X149031171Y-111281568D01*
X149096613Y-111164967D01*
X149121520Y-111025937D01*
X149098091Y-110931308D01*
X149073272Y-110920858D01*
X148995486Y-110974067D01*
X148931108Y-111049530D01*
X148837781Y-111135164D01*
X148734448Y-111092701D01*
X148716994Y-111078589D01*
X148637095Y-110970882D01*
X148638149Y-110912343D01*
X148623430Y-110849938D01*
X148597389Y-110845710D01*
X148497495Y-110905795D01*
X148468824Y-111050462D01*
X148116977Y-111050462D01*
X148100038Y-111018759D01*
X147954719Y-110960214D01*
X147690237Y-110921119D01*
X147430520Y-110902921D01*
X147181488Y-110871826D01*
X147071714Y-110818503D01*
X147104454Y-110753101D01*
X147282968Y-110685771D01*
X147355372Y-110668836D01*
X147640964Y-110601965D01*
X147933149Y-110525186D01*
X147956555Y-110518540D01*
X148289509Y-110462525D01*
X148640700Y-110466730D01*
G37*
G36*
X155314764Y-104081720D02*
G01*
X155512637Y-104304046D01*
X155693235Y-104672590D01*
X155855697Y-105185719D01*
X155961339Y-105645656D01*
X156073730Y-106033236D01*
X156237193Y-106309853D01*
X156271506Y-106348722D01*
X156404537Y-106499726D01*
X156479651Y-106601658D01*
X156485845Y-106617716D01*
X156450007Y-106701430D01*
X156361453Y-106858024D01*
X156337799Y-106896803D01*
X156243262Y-107112375D01*
X156166608Y-107396052D01*
X156140541Y-107555068D01*
X156121290Y-107830527D01*
X156151016Y-108034661D01*
X156242477Y-108242012D01*
X156265145Y-108283054D01*
X156438961Y-108592319D01*
X157136439Y-108543291D01*
X157833917Y-108494263D01*
X157911360Y-108697956D01*
X157966323Y-108867584D01*
X157967099Y-108997857D01*
X157896339Y-109122694D01*
X157736695Y-109276015D01*
X157529083Y-109445355D01*
X157299804Y-109631598D01*
X157166538Y-109760446D01*
X157107479Y-109867821D01*
X157100825Y-109989648D01*
X157118585Y-110121687D01*
X157182388Y-110474499D01*
X157256464Y-110708577D01*
X157360641Y-110855181D01*
X157514749Y-110945568D01*
X157672295Y-110994565D01*
X158045276Y-111095860D01*
X158296331Y-111181454D01*
X158450465Y-111267282D01*
X158532680Y-111369280D01*
X158567980Y-111503382D01*
X158574566Y-111569590D01*
X158596718Y-111860207D01*
X158038500Y-112029825D01*
X157762162Y-112122499D01*
X157540595Y-112212850D01*
X157415211Y-112283652D01*
X157406170Y-112292843D01*
X157358989Y-112413781D01*
X157312012Y-112632503D01*
X157281884Y-112847743D01*
X157259347Y-113082066D01*
X157266493Y-113246285D01*
X157323827Y-113375095D01*
X157451856Y-113503190D01*
X157671084Y-113665266D01*
X157830792Y-113776479D01*
X158036491Y-113928125D01*
X158186473Y-114054974D01*
X158241302Y-114118580D01*
X158235685Y-114235292D01*
X158180107Y-114418200D01*
X158168045Y-114447946D01*
X158062809Y-114698228D01*
X157480984Y-114652287D01*
X157193920Y-114637050D01*
X156962738Y-114638458D01*
X156830152Y-114655942D01*
X156819554Y-114661087D01*
X156726539Y-114769427D01*
X156604385Y-114964828D01*
X156480425Y-115195899D01*
X156381989Y-115411249D01*
X156336409Y-115559488D01*
X156335789Y-115570708D01*
X156375654Y-115690932D01*
X156480233Y-115891585D01*
X156627386Y-116130434D01*
X156636141Y-116143639D01*
X156783531Y-116375312D01*
X156889892Y-116562053D01*
X156933818Y-116666056D01*
X156933994Y-116669675D01*
X156880514Y-116795885D01*
X156760734Y-116943650D01*
X156626938Y-117055960D01*
X156554941Y-117082988D01*
X156444067Y-117053132D01*
X156239562Y-116974399D01*
X155983250Y-116863038D01*
X155951776Y-116848613D01*
X155443293Y-116614238D01*
X155081581Y-116901215D01*
X154879134Y-117062187D01*
X154721690Y-117188019D01*
X154654212Y-117242578D01*
X154635210Y-117338430D01*
X154647898Y-117532585D01*
X154683875Y-117778496D01*
X154734742Y-118029614D01*
X154792101Y-118239394D01*
X154847550Y-118361286D01*
X154857867Y-118371158D01*
X154972756Y-118385723D01*
X155154053Y-118354483D01*
X155161538Y-118352371D01*
X155635822Y-118285478D01*
X156130949Y-118334087D01*
X156523419Y-118464895D01*
X156813596Y-118623734D01*
X157048889Y-118792495D01*
X157198950Y-118946741D01*
X157237325Y-119039762D01*
X157167659Y-119073216D01*
X156980442Y-119098223D01*
X156708345Y-119111055D01*
X156604570Y-119111982D01*
X155971815Y-119111982D01*
X155552837Y-119581657D01*
X155358640Y-119817001D01*
X155212147Y-120028140D01*
X155137984Y-120178421D01*
X155133520Y-120205734D01*
X155184138Y-120331130D01*
X155320435Y-120526447D01*
X155518560Y-120758692D01*
X155581731Y-120825705D01*
X156030279Y-121291272D01*
X156633802Y-121291272D01*
X156920124Y-121299663D01*
X157130817Y-121322169D01*
X157232729Y-121354793D01*
X157237325Y-121364050D01*
X157181066Y-121442286D01*
X157033590Y-121577382D01*
X156827220Y-121739789D01*
X156417115Y-122042751D01*
X155696829Y-122042751D01*
X155377341Y-122041664D01*
X155144986Y-122027249D01*
X154964467Y-121982780D01*
X154800484Y-121891531D01*
X154617739Y-121736774D01*
X154380934Y-121501784D01*
X154229913Y-121347633D01*
X153732686Y-120840385D01*
X150656751Y-120841535D01*
X149989556Y-120843093D01*
X149368293Y-120847062D01*
X148809239Y-120853149D01*
X148328669Y-120861066D01*
X147942859Y-120870521D01*
X147668086Y-120881223D01*
X147520625Y-120892882D01*
X147500708Y-120897896D01*
X147416442Y-120987279D01*
X147284038Y-121159177D01*
X147180172Y-121306494D01*
X147002611Y-121531988D01*
X146812351Y-121720903D01*
X146715457Y-121792371D01*
X146565031Y-121896548D01*
X146492386Y-121976953D01*
X146491171Y-121983806D01*
X146421031Y-122007208D01*
X146230604Y-122026122D01*
X145949881Y-122038474D01*
X145645757Y-122042266D01*
X144800342Y-122041781D01*
X144442852Y-121735368D01*
X144263595Y-121566338D01*
X144150577Y-121429351D01*
X144127909Y-121360114D01*
X144218186Y-121327660D01*
X144419317Y-121303442D01*
X144691913Y-121291742D01*
X144761201Y-121291272D01*
X145351946Y-121291272D01*
X145770925Y-120821598D01*
X145964609Y-120589454D01*
X146110942Y-120385463D01*
X146185512Y-120244661D01*
X146190241Y-120219704D01*
X146139756Y-120096078D01*
X146008268Y-119906215D01*
X145826332Y-119684592D01*
X145624502Y-119465688D01*
X145433333Y-119283980D01*
X145283382Y-119173946D01*
X145251230Y-119160137D01*
X145100371Y-119136193D01*
X144854827Y-119119156D01*
X144593686Y-119113008D01*
X144334876Y-119102362D01*
X144153605Y-119075206D01*
X144086437Y-119037564D01*
X144142673Y-118956477D01*
X144288318Y-118822975D01*
X144443390Y-118702158D01*
X144765383Y-118523830D01*
X146726969Y-118523830D01*
X146757120Y-118620005D01*
X146865170Y-118772572D01*
X146921702Y-118836687D01*
X147110214Y-119054723D01*
X147284990Y-119281550D01*
X147307413Y-119313614D01*
X147433527Y-119466071D01*
X147581852Y-119558427D01*
X147790742Y-119603170D01*
X148098550Y-119612787D01*
X148219573Y-119610600D01*
X148632887Y-119600444D01*
X148636081Y-119520356D01*
X149421940Y-119520356D01*
X149449458Y-119583971D01*
X149551346Y-119620304D01*
X149756605Y-119635896D01*
X149943541Y-119638018D01*
X150208659Y-119629653D01*
X150409114Y-119607682D01*
X150502881Y-119576791D01*
X150503743Y-119575559D01*
X150479299Y-119532782D01*
X151008404Y-119532782D01*
X151033006Y-119600252D01*
X151178491Y-119636587D01*
X151225490Y-119638018D01*
X151404472Y-119604411D01*
X151450934Y-119525296D01*
X151393127Y-119428933D01*
X151234605Y-119423365D01*
X151118915Y-119458188D01*
X151008404Y-119532782D01*
X150479299Y-119532782D01*
X150467196Y-119511601D01*
X150328356Y-119430548D01*
X150279117Y-119409818D01*
X150083144Y-119316149D01*
X149946411Y-119221352D01*
X149935157Y-119209259D01*
X149785561Y-119117828D01*
X149625487Y-119145961D01*
X149492580Y-119270837D01*
X149424485Y-119469638D01*
X149421940Y-119520356D01*
X148636081Y-119520356D01*
X148655327Y-119037719D01*
X148661517Y-118634108D01*
X148640034Y-118358816D01*
X148587563Y-118191852D01*
X148502027Y-118113718D01*
X148382484Y-118065960D01*
X148177057Y-117984034D01*
X148020692Y-117921721D01*
X147633942Y-117767643D01*
X147194065Y-118108169D01*
X146976511Y-118283467D01*
X146810879Y-118429836D01*
X146729514Y-118518494D01*
X146726969Y-118523830D01*
X144765383Y-118523830D01*
X144855707Y-118473806D01*
X145322074Y-118333282D01*
X145777854Y-118299513D01*
X145810429Y-118301864D01*
X146060842Y-118322929D01*
X146291766Y-117663252D01*
X146522691Y-117003576D01*
X146136547Y-116617431D01*
X145750402Y-116231287D01*
X145200224Y-116394358D01*
X144863148Y-116490474D01*
X144637280Y-116538218D01*
X144490771Y-116535297D01*
X144391771Y-116479414D01*
X144308430Y-116368274D01*
X144284400Y-116328358D01*
X144149366Y-116099764D01*
X144564743Y-115613182D01*
X144980120Y-115126600D01*
X144812254Y-114770919D01*
X144667354Y-114465271D01*
X144557875Y-114268099D01*
X144450267Y-114154339D01*
X144310978Y-114098931D01*
X144106461Y-114076812D01*
X143868625Y-114066030D01*
X143582861Y-114047792D01*
X143358594Y-114023651D01*
X143235325Y-113998139D01*
X143224999Y-113992161D01*
X143182572Y-113892604D01*
X143140334Y-113710528D01*
X143135634Y-113682881D01*
X143119892Y-113555027D01*
X143138198Y-113460674D01*
X143214281Y-113374097D01*
X143371869Y-113269571D01*
X143634687Y-113121371D01*
X143673123Y-113100148D01*
X144253213Y-112779931D01*
X144208226Y-112507939D01*
X144176200Y-112244224D01*
X144162412Y-111992555D01*
X144153052Y-111872050D01*
X144108514Y-111777958D01*
X144054822Y-111731639D01*
X145213656Y-111731639D01*
X145223873Y-111891432D01*
X145279948Y-111933629D01*
X145406418Y-111895921D01*
X145573032Y-111841216D01*
X145666754Y-111822633D01*
X145698981Y-111891562D01*
X145721998Y-112073629D01*
X145731463Y-112331756D01*
X145731444Y-112375039D01*
X145748408Y-112678542D01*
X145796274Y-113021191D01*
X145866250Y-113365937D01*
X145949542Y-113675727D01*
X146037357Y-113913511D01*
X146120903Y-114042238D01*
X146128347Y-114047479D01*
X146228416Y-114033593D01*
X146367530Y-113937020D01*
X146370068Y-113934648D01*
X146559010Y-113818448D01*
X146740245Y-113776479D01*
X146845307Y-113782640D01*
X146905603Y-113822897D01*
X146933563Y-113929908D01*
X146941614Y-114136333D01*
X146942058Y-114306812D01*
X146976719Y-114880881D01*
X147079734Y-115332375D01*
X147249651Y-115654936D01*
X147249842Y-115655177D01*
X147398867Y-115843047D01*
X147517794Y-115673964D01*
X147704551Y-115530209D01*
X147849983Y-115504882D01*
X147989647Y-115523463D01*
X148074019Y-115605754D01*
X148140426Y-115791577D01*
X148149375Y-115824260D01*
X148296001Y-116356196D01*
X148420386Y-116776162D01*
X148534230Y-117118602D01*
X148649237Y-117417961D01*
X148777107Y-117708682D01*
X148822061Y-117804270D01*
X148977336Y-118110640D01*
X149135908Y-118391209D01*
X149270009Y-118597705D01*
X149302457Y-118639355D01*
X149557391Y-118844129D01*
X149923659Y-118978830D01*
X150411316Y-119046426D01*
X150714007Y-119056034D01*
X151252435Y-119012606D01*
X151688621Y-118873815D01*
X152041254Y-118633542D01*
X152061081Y-118614886D01*
X152213290Y-118504579D01*
X152298540Y-118527962D01*
X152315971Y-118683743D01*
X152273497Y-118933781D01*
X152227717Y-119183571D01*
X152204743Y-119410985D01*
X152204206Y-119433903D01*
X152202413Y-119643102D01*
X153007223Y-119621773D01*
X153812033Y-119600444D01*
X154030967Y-119246029D01*
X154249900Y-118891615D01*
X153894183Y-118494550D01*
X153702840Y-118288205D01*
X153540066Y-118125518D01*
X153440430Y-118040999D01*
X153439115Y-118040224D01*
X153317761Y-118034088D01*
X153112511Y-118080050D01*
X152956175Y-118134159D01*
X152654570Y-118244932D01*
X152474266Y-118286333D01*
X152401850Y-118255636D01*
X152423912Y-118150114D01*
X152483737Y-118038119D01*
X152592186Y-117815998D01*
X152723634Y-117489702D01*
X152863761Y-117100647D01*
X152998248Y-116690248D01*
X153112776Y-116299920D01*
X153184525Y-116011242D01*
X153268869Y-115698200D01*
X153363287Y-115520227D01*
X153481751Y-115462150D01*
X153638232Y-115508792D01*
X153644207Y-115511942D01*
X153816844Y-115630432D01*
X153912029Y-115723813D01*
X153992355Y-115798312D01*
X154068023Y-115758432D01*
X154121995Y-115692751D01*
X154247750Y-115457823D01*
X154354523Y-115128780D01*
X154428391Y-114761721D01*
X154431947Y-114715828D01*
X154982887Y-114715828D01*
X155011645Y-114862139D01*
X155076822Y-114884911D01*
X155156496Y-114793332D01*
X155170757Y-114715828D01*
X155126424Y-114584194D01*
X155076822Y-114546746D01*
X155003745Y-114583737D01*
X154982887Y-114715828D01*
X154431947Y-114715828D01*
X154455431Y-114412742D01*
X154454177Y-114354345D01*
X154446701Y-114113026D01*
X154445278Y-113928159D01*
X154447527Y-113870414D01*
X154514440Y-113788008D01*
X154670131Y-113794034D01*
X154885171Y-113884101D01*
X154995322Y-113952141D01*
X155254175Y-114127803D01*
X155370252Y-113820632D01*
X155511785Y-113427077D01*
X155599885Y-113121128D01*
X155644090Y-112853920D01*
X155653933Y-112576590D01*
X155647945Y-112397701D01*
X155637563Y-112118938D01*
X155645430Y-111958668D01*
X155678909Y-111885484D01*
X155745364Y-111867977D01*
X155771940Y-111868835D01*
X155973982Y-111906479D01*
X156064078Y-111937201D01*
X156146337Y-111960076D01*
X156179857Y-111915538D01*
X156173823Y-111772440D01*
X156155268Y-111627981D01*
X156066420Y-111094940D01*
X155957197Y-110621281D01*
X155837922Y-110251459D01*
X155832482Y-110237967D01*
X155779487Y-110075716D01*
X155759545Y-109901320D01*
X155771741Y-109669545D01*
X155814331Y-109340811D01*
X155853914Y-108917580D01*
X155866101Y-108408280D01*
X155853590Y-107841856D01*
X155819082Y-107247256D01*
X155765275Y-106653424D01*
X155694869Y-106089306D01*
X155610564Y-105583849D01*
X155515059Y-105165999D01*
X155411054Y-104864700D01*
X155393540Y-104828731D01*
X155206415Y-104587229D01*
X154969973Y-104487005D01*
X154688196Y-104529650D01*
X154666894Y-104538020D01*
X154088119Y-104833587D01*
X153498204Y-105246370D01*
X153066615Y-105621720D01*
X152816554Y-105854494D01*
X152641688Y-105998502D01*
X152511463Y-106071782D01*
X152395326Y-106092370D01*
X152286613Y-106082186D01*
X152004283Y-106094029D01*
X151637668Y-106209122D01*
X151593759Y-106227257D01*
X151309067Y-106342652D01*
X151131573Y-106394435D01*
X151031435Y-106380715D01*
X150978814Y-106299601D01*
X150951200Y-106186538D01*
X150906988Y-106044053D01*
X150828560Y-105979104D01*
X150688163Y-105990104D01*
X150458042Y-106075471D01*
X150293184Y-106148964D01*
X150069331Y-106248728D01*
X149905470Y-106316856D01*
X149845060Y-106336834D01*
X149810451Y-106271965D01*
X149783884Y-106130177D01*
X149733415Y-105975669D01*
X149647384Y-105952841D01*
X149509530Y-105985066D01*
X149289760Y-106033033D01*
X149175357Y-106057199D01*
X148816051Y-106132237D01*
X148348729Y-105674690D01*
X148026449Y-105365747D01*
X147769050Y-105139254D01*
X147539310Y-104967377D01*
X147300007Y-104822276D01*
X147013918Y-104676116D01*
X147012711Y-104675531D01*
X146700268Y-104535605D01*
X146481459Y-104473542D01*
X146322513Y-104487473D01*
X146189660Y-104575529D01*
X146139728Y-104627219D01*
X146040981Y-104748251D01*
X145967333Y-104878408D01*
X145905529Y-105053944D01*
X145842314Y-105311112D01*
X145779030Y-105613760D01*
X145650802Y-106323282D01*
X145569455Y-106976928D01*
X145530551Y-107632973D01*
X145529650Y-108349694D01*
X145541440Y-108733074D01*
X145554842Y-109215195D01*
X145556305Y-109637847D01*
X145546280Y-109973664D01*
X145525218Y-110195280D01*
X145516647Y-110236033D01*
X145392139Y-110727783D01*
X145296355Y-111160012D01*
X145234970Y-111504705D01*
X145213656Y-111731639D01*
X144054822Y-111731639D01*
X144002668Y-111686647D01*
X143809382Y-111574482D01*
X143557434Y-111445401D01*
X142953282Y-111141640D01*
X143003793Y-110862166D01*
X143040636Y-110676465D01*
X143068150Y-110569159D01*
X143071913Y-110561377D01*
X143149425Y-110543559D01*
X143339070Y-110515486D01*
X143603502Y-110482550D01*
X143670715Y-110474884D01*
X143954004Y-110436176D01*
X144177599Y-110392731D01*
X144300626Y-110352800D01*
X144309619Y-110345903D01*
X144361702Y-110245542D01*
X144440664Y-110046608D01*
X144521204Y-109816403D01*
X144675079Y-109350705D01*
X144506337Y-109177645D01*
X144357639Y-109020159D01*
X144165246Y-108810126D01*
X144057309Y-108690004D01*
X143900046Y-108507298D01*
X143829575Y-108388415D01*
X143831815Y-108285769D01*
X143892683Y-108151768D01*
X143896087Y-108145182D01*
X144009597Y-107993035D01*
X144168149Y-107922517D01*
X144400160Y-107929696D01*
X144734046Y-108010641D01*
X144776580Y-108023384D01*
X145042421Y-108080195D01*
X145197134Y-108044469D01*
X145256397Y-107904346D01*
X145240058Y-107672783D01*
X145229274Y-107454690D01*
X145243106Y-107126849D01*
X145277502Y-106727049D01*
X145328410Y-106293077D01*
X145391778Y-105862722D01*
X145463553Y-105473773D01*
X145487584Y-105364445D01*
X145641457Y-104817616D01*
X145818017Y-104408129D01*
X146015064Y-104139632D01*
X146230396Y-104015767D01*
X146306935Y-104007249D01*
X146525951Y-104059286D01*
X146811295Y-104201408D01*
X147128040Y-104412630D01*
X147441258Y-104671969D01*
X147490815Y-104718540D01*
X147683745Y-104893319D01*
X147839524Y-105016242D01*
X147920301Y-105059320D01*
X147971977Y-104993970D01*
X147994116Y-104836339D01*
X147994129Y-104832016D01*
X148029401Y-104646422D01*
X148159498Y-104542512D01*
X148186891Y-104531424D01*
X148370163Y-104475925D01*
X148511321Y-104485138D01*
X148642310Y-104577421D01*
X148795077Y-104771133D01*
X148914208Y-104949407D01*
X149234070Y-105440678D01*
X149760106Y-105392713D01*
X150028508Y-105362364D01*
X150234871Y-105328111D01*
X150336215Y-105297154D01*
X150337602Y-105295968D01*
X150385138Y-105207020D01*
X150467086Y-105012396D01*
X150568472Y-104748372D01*
X150605878Y-104646006D01*
X150713720Y-104354300D01*
X150794484Y-104175148D01*
X150871054Y-104079355D01*
X150966314Y-104037727D01*
X151095186Y-104021741D01*
X151218950Y-104015691D01*
X151309194Y-104037224D01*
X151378226Y-104109111D01*
X151438352Y-104254124D01*
X151501880Y-104495035D01*
X151581116Y-104854616D01*
X151604474Y-104964090D01*
X151662182Y-105196279D01*
X151730877Y-105324638D01*
X151845057Y-105393780D01*
X151964132Y-105429176D01*
X152310060Y-105516838D01*
X152549364Y-105558792D01*
X152721255Y-105545681D01*
X152864943Y-105468150D01*
X153019638Y-105316844D01*
X153174144Y-105140462D01*
X153433525Y-104867701D01*
X153633309Y-104715244D01*
X153733259Y-104683580D01*
X153890808Y-104637644D01*
X154089623Y-104522530D01*
X154157925Y-104470939D01*
X154477587Y-104245015D01*
X154789763Y-104084492D01*
X155052459Y-104010031D01*
X155100474Y-104007249D01*
X155314764Y-104081720D01*
G37*
D14*
%TO.C,U2*%
X70490000Y-94400000D02*
X70490000Y-98160000D01*
X70490000Y-98160000D02*
X71750000Y-98160000D01*
X77310000Y-94400000D02*
X77310000Y-98160000D01*
X77310000Y-98160000D02*
X76050000Y-98160000D01*
X77540000Y-93360000D02*
X77210000Y-93120000D01*
X77540000Y-92880000D01*
X77540000Y-93360000D01*
G36*
X77540000Y-93360000D02*
G01*
X77210000Y-93120000D01*
X77540000Y-92880000D01*
X77540000Y-93360000D01*
G37*
%TO.C,R4*%
X87883276Y-113853700D02*
X88392724Y-113853700D01*
X87883276Y-114898700D02*
X88392724Y-114898700D01*
%TO.C,Q4*%
X102637500Y-131140000D02*
X101987500Y-131140000D01*
X102637500Y-131140000D02*
X103287500Y-131140000D01*
X102637500Y-134260000D02*
X101987500Y-134260000D01*
X102637500Y-134260000D02*
X103287500Y-134260000D01*
X104040000Y-134540000D02*
X103560000Y-134540000D01*
X103800000Y-134210000D01*
X104040000Y-134540000D01*
G36*
X104040000Y-134540000D02*
G01*
X103560000Y-134540000D01*
X103800000Y-134210000D01*
X104040000Y-134540000D01*
G37*
%TO.C,K2*%
X138500000Y-59540000D02*
X138500000Y-61040000D01*
X138700000Y-59740000D02*
X138700000Y-89140000D01*
X138700000Y-89140000D02*
X151800000Y-89140000D01*
X140000000Y-59540000D02*
X138500000Y-59540000D01*
X141500000Y-64830000D02*
X141500000Y-66100000D01*
X141500000Y-66100000D02*
X142770000Y-66100000D01*
X142770000Y-64830000D02*
X142770000Y-66100000D01*
X142770000Y-66100000D02*
X142770000Y-67370000D01*
X142770000Y-67370000D02*
X147850000Y-67370000D01*
D15*
X144040000Y-64830000D02*
X145310000Y-67370000D01*
D14*
X147850000Y-64830000D02*
X142770000Y-64830000D01*
X147850000Y-66100000D02*
X149120000Y-66100000D01*
X147850000Y-67370000D02*
X147850000Y-64830000D01*
X149120000Y-66100000D02*
X149120000Y-64830000D01*
X151800000Y-59740000D02*
X138700000Y-59740000D01*
X151800000Y-89140000D02*
X151800000Y-59740000D01*
%TO.C,Q1*%
X100862500Y-60840000D02*
X100212500Y-60840000D01*
X100862500Y-60840000D02*
X101512500Y-60840000D01*
X100862500Y-63960000D02*
X100212500Y-63960000D01*
X100862500Y-63960000D02*
X101512500Y-63960000D01*
X99700000Y-60890000D02*
X99460000Y-60560000D01*
X99940000Y-60560000D01*
X99700000Y-60890000D01*
G36*
X99700000Y-60890000D02*
G01*
X99460000Y-60560000D01*
X99940000Y-60560000D01*
X99700000Y-60890000D01*
G37*
%TO.C,C1*%
X87991733Y-111910400D02*
X88284267Y-111910400D01*
X87991733Y-112930400D02*
X88284267Y-112930400D01*
%TO.C,C14*%
X130865000Y-125538748D02*
X130865000Y-126061252D01*
X132335000Y-125538748D02*
X132335000Y-126061252D01*
%TO.C,J1*%
X69342000Y-73406000D02*
X69342000Y-83566000D01*
X69342000Y-83566000D02*
X76962000Y-83566000D01*
X75692000Y-73406000D02*
X75692000Y-83566000D01*
X76962000Y-73406000D02*
X69342000Y-73406000D01*
X76962000Y-83566000D02*
X76962000Y-73406000D01*
%TO.C,L7*%
X116912556Y-123941746D02*
X119685060Y-123941746D01*
X116912556Y-127361746D02*
X119685060Y-127361746D01*
%TO.C,R11*%
X123611808Y-133892936D02*
X123611808Y-135347064D01*
X125431808Y-133892936D02*
X125431808Y-135347064D01*
%TO.C,C17*%
X94376000Y-121251767D02*
X94376000Y-120959233D01*
X95396000Y-121251767D02*
X95396000Y-120959233D01*
%TO.C,C19*%
X72462233Y-90095000D02*
X72754767Y-90095000D01*
X72462233Y-91115000D02*
X72754767Y-91115000D01*
%TO.C,L4*%
X124613748Y-115489500D02*
X127386252Y-115489500D01*
X124613748Y-118909500D02*
X127386252Y-118909500D01*
%TO.C,R18*%
X93742276Y-130970500D02*
X94251724Y-130970500D01*
X93742276Y-132015500D02*
X94251724Y-132015500D01*
%TO.C,C8*%
X124160075Y-128443746D02*
X123867541Y-128443746D01*
X124160075Y-129463746D02*
X123867541Y-129463746D01*
%TO.C,C23*%
X75253733Y-105690000D02*
X75546267Y-105690000D01*
X75253733Y-106710000D02*
X75546267Y-106710000D01*
%TO.C,R1*%
X96584276Y-61011500D02*
X97093724Y-61011500D01*
X96584276Y-62056500D02*
X97093724Y-62056500D01*
%TO.C,D2*%
X88110000Y-108900000D02*
X84250000Y-108900000D01*
X88110000Y-110900000D02*
X84250000Y-110900000D01*
X88110000Y-110900000D02*
X88110000Y-108900000D01*
%TO.C,R19*%
X98604724Y-127002500D02*
X98095276Y-127002500D01*
X98604724Y-128047500D02*
X98095276Y-128047500D01*
%TO.C,C21*%
X89677000Y-130750267D02*
X89677000Y-130457733D01*
X90697000Y-130750267D02*
X90697000Y-130457733D01*
%TO.C,D1*%
X105350000Y-60625000D02*
X105350000Y-66135000D01*
X108650000Y-60625000D02*
X105350000Y-60625000D01*
X108650000Y-60625000D02*
X108650000Y-66135000D01*
%TO.C,Q5*%
X102762500Y-127140000D02*
X102112500Y-127140000D01*
X102762500Y-127140000D02*
X103412500Y-127140000D01*
X102762500Y-130260000D02*
X102112500Y-130260000D01*
X102762500Y-130260000D02*
X103412500Y-130260000D01*
X101600000Y-127190000D02*
X101360000Y-126860000D01*
X101840000Y-126860000D01*
X101600000Y-127190000D01*
G36*
X101600000Y-127190000D02*
G01*
X101360000Y-126860000D01*
X101840000Y-126860000D01*
X101600000Y-127190000D01*
G37*
%TO.C,C3*%
X120584377Y-116909871D02*
X120584377Y-117432375D01*
X122054377Y-116909871D02*
X122054377Y-117432375D01*
%TO.C,C5*%
X113015000Y-125538748D02*
X113015000Y-126061252D01*
X114485000Y-125538748D02*
X114485000Y-126061252D01*
%TO.C,C12*%
X119540056Y-130123746D02*
X120062560Y-130123746D01*
X119540056Y-131593746D02*
X120062560Y-131593746D01*
%TO.C,D4*%
X122677675Y-120729756D02*
X124982843Y-123034924D01*
X123879756Y-119527675D02*
X122677675Y-120729756D01*
X123879756Y-119527675D02*
X126184924Y-121832843D01*
%TO.C,C18*%
X72601248Y-87965000D02*
X73123752Y-87965000D01*
X72601248Y-89435000D02*
X73123752Y-89435000D01*
%TO.C,D7*%
X75519400Y-117753600D02*
X75519400Y-120613600D01*
X75519400Y-120613600D02*
X77439400Y-120613600D01*
X77439400Y-120613600D02*
X77439400Y-117753600D01*
%TO.C,Q3*%
X93937500Y-126990000D02*
X93287500Y-126990000D01*
X93937500Y-126990000D02*
X94587500Y-126990000D01*
X93937500Y-130110000D02*
X93287500Y-130110000D01*
X93937500Y-130110000D02*
X94587500Y-130110000D01*
X92775000Y-127040000D02*
X92535000Y-126710000D01*
X93015000Y-126710000D01*
X92775000Y-127040000D01*
G36*
X92775000Y-127040000D02*
G01*
X92535000Y-126710000D01*
X93015000Y-126710000D01*
X92775000Y-127040000D01*
G37*
%TO.C,J4*%
X127135808Y-130782500D02*
X127135808Y-133682500D01*
X131940808Y-128877500D02*
X129040808Y-128877500D01*
X131940808Y-135587500D02*
X129040808Y-135587500D01*
X133845808Y-130782500D02*
X133845808Y-133682500D01*
%TO.C,R20*%
X99062500Y-134668724D02*
X99062500Y-134159276D01*
X100107500Y-134668724D02*
X100107500Y-134159276D01*
%TO.C,C4*%
X118265000Y-116938248D02*
X118265000Y-117460752D01*
X119735000Y-116938248D02*
X119735000Y-117460752D01*
%TO.C,R6*%
X102722936Y-99640000D02*
X105777064Y-99640000D01*
X102722936Y-102360000D02*
X105777064Y-102360000D01*
%TO.C,C9*%
X77874400Y-118404133D02*
X77874400Y-118696667D01*
X78894400Y-118404133D02*
X78894400Y-118696667D01*
%TO.C,L6*%
X123663748Y-123940000D02*
X126436252Y-123940000D01*
X123663748Y-127360000D02*
X126436252Y-127360000D01*
%TO.C,R13*%
X125657776Y-61011500D02*
X126167224Y-61011500D01*
X125657776Y-62056500D02*
X126167224Y-62056500D01*
%TO.C,C11*%
X124021060Y-130123746D02*
X123498556Y-130123746D01*
X124021060Y-131593746D02*
X123498556Y-131593746D01*
%TO.C,L3*%
X84778667Y-113891600D02*
X84436133Y-113891600D01*
X84778667Y-114911600D02*
X84436133Y-114911600D01*
%TO.C,Q6*%
X102662500Y-134740000D02*
X102012500Y-134740000D01*
X102662500Y-134740000D02*
X103312500Y-134740000D01*
X102662500Y-137860000D02*
X102012500Y-137860000D01*
X102662500Y-137860000D02*
X103312500Y-137860000D01*
X101500000Y-134790000D02*
X101260000Y-134460000D01*
X101740000Y-134460000D01*
X101500000Y-134790000D01*
G36*
X101500000Y-134790000D02*
G01*
X101260000Y-134460000D01*
X101740000Y-134460000D01*
X101500000Y-134790000D01*
G37*
%TO.C,C7*%
X110915000Y-125538748D02*
X110915000Y-126061252D01*
X112385000Y-125538748D02*
X112385000Y-126061252D01*
%TO.C,Q2*%
X130162500Y-60740000D02*
X129512500Y-60740000D01*
X130162500Y-60740000D02*
X130812500Y-60740000D01*
X130162500Y-63860000D02*
X129512500Y-63860000D01*
X130162500Y-63860000D02*
X130812500Y-63860000D01*
X129000000Y-60790000D02*
X128760000Y-60460000D01*
X129240000Y-60460000D01*
X129000000Y-60790000D01*
G36*
X129000000Y-60790000D02*
G01*
X128760000Y-60460000D01*
X129240000Y-60460000D01*
X129000000Y-60790000D01*
G37*
%TO.C,D3*%
X94090000Y-109000000D02*
X94090000Y-111000000D01*
X94090000Y-109000000D02*
X97950000Y-109000000D01*
X94090000Y-111000000D02*
X97950000Y-111000000D01*
%TO.C,R2*%
X79722936Y-104640000D02*
X82777064Y-104640000D01*
X79722936Y-107360000D02*
X82777064Y-107360000D01*
%TO.C,C2*%
X94100867Y-112088200D02*
X93808333Y-112088200D01*
X94100867Y-113108200D02*
X93808333Y-113108200D01*
%TO.C,L8*%
X88970758Y-132996000D02*
X90641242Y-132996000D01*
X88970758Y-134816000D02*
X90641242Y-134816000D01*
%TO.C,C22*%
X75176748Y-102265000D02*
X75699252Y-102265000D01*
X75176748Y-103735000D02*
X75699252Y-103735000D01*
%TO.C,D5*%
X116820244Y-119477675D02*
X114515076Y-121782843D01*
X118022325Y-120679756D02*
X115717157Y-122984924D01*
X118022325Y-120679756D02*
X116820244Y-119477675D01*
%TO.C,C16*%
X105552000Y-128972267D02*
X105552000Y-128679733D01*
X106572000Y-128972267D02*
X106572000Y-128679733D01*
%TO.C,R3*%
X79722936Y-99640000D02*
X82777064Y-99640000D01*
X79722936Y-102360000D02*
X82777064Y-102360000D01*
%TO.C,R17*%
X73977500Y-123245276D02*
X73977500Y-123754724D01*
X75022500Y-123245276D02*
X75022500Y-123754724D01*
%TO.C,D8*%
X133850000Y-60625000D02*
X133850000Y-66135000D01*
X137150000Y-60625000D02*
X133850000Y-60625000D01*
X137150000Y-60625000D02*
X137150000Y-66135000D01*
%TO.C,C15*%
X105217000Y-136103733D02*
X105217000Y-136396267D01*
X106237000Y-136103733D02*
X106237000Y-136396267D01*
%TO.C,C6*%
X77925200Y-113760467D02*
X77925200Y-113467933D01*
X78945200Y-113760467D02*
X78945200Y-113467933D01*
%TO.C,C13*%
X128765000Y-125553596D02*
X128765000Y-126076100D01*
X130235000Y-125553596D02*
X130235000Y-126076100D01*
%TO.C,J2*%
X68890000Y-101740000D02*
X68890000Y-124460000D01*
X68890000Y-124460000D02*
X72910000Y-124460000D01*
X69390000Y-102240000D02*
X70600000Y-102240000D01*
X69390000Y-123960000D02*
X69390000Y-102240000D01*
X70600000Y-102240000D02*
X70600000Y-101740000D01*
X70600000Y-123960000D02*
X69390000Y-123960000D01*
X70600000Y-124460000D02*
X70600000Y-123960000D01*
X70710000Y-124760000D02*
X73210000Y-124760000D01*
X71410000Y-101740000D02*
X71410000Y-102740000D01*
X71410000Y-102740000D02*
X72910000Y-102740000D01*
X71410000Y-123460000D02*
X72910000Y-123460000D01*
X71410000Y-124460000D02*
X71410000Y-123460000D01*
X72910000Y-101740000D02*
X68890000Y-101740000D01*
X72910000Y-124460000D02*
X72910000Y-101740000D01*
X73210000Y-124760000D02*
X73210000Y-122260000D01*
%TO.C,J3*%
X98372000Y-74750000D02*
X98372000Y-77650000D01*
X100277000Y-72845000D02*
X103177000Y-72845000D01*
X100277000Y-79555000D02*
X103177000Y-79555000D01*
X105082000Y-74750000D02*
X105082000Y-77650000D01*
%TO.C,RV1*%
X75650000Y-127566000D02*
X75650000Y-132636000D01*
X75650000Y-127566000D02*
X85420000Y-127566000D01*
X75650000Y-132636000D02*
X85420000Y-132636000D01*
X85420000Y-127566000D02*
X85420000Y-132636000D01*
%TO.C,R5*%
X102722936Y-104640000D02*
X105777064Y-104640000D01*
X102722936Y-107360000D02*
X105777064Y-107360000D01*
%TO.C,R9*%
X109614808Y-130782500D02*
X109614808Y-133682500D01*
X111519808Y-128877500D02*
X114419808Y-128877500D01*
X111519808Y-135587500D02*
X114419808Y-135587500D01*
X116324808Y-130782500D02*
X116324808Y-133682500D01*
%TO.C,R15*%
X75427064Y-84340000D02*
X72372936Y-84340000D01*
X75427064Y-87060000D02*
X72372936Y-87060000D01*
%TO.C,R7*%
X94234724Y-113853700D02*
X93725276Y-113853700D01*
X94234724Y-114898700D02*
X93725276Y-114898700D01*
%TO.C,U1*%
X89925000Y-119735000D02*
X87975000Y-119735000D01*
X89925000Y-119735000D02*
X91875000Y-119735000D01*
X89925000Y-124855000D02*
X87975000Y-124855000D01*
X89925000Y-124855000D02*
X91875000Y-124855000D01*
X87225000Y-119830000D02*
X86985000Y-119500000D01*
X87465000Y-119500000D01*
X87225000Y-119830000D01*
G36*
X87225000Y-119830000D02*
G01*
X86985000Y-119500000D01*
X87465000Y-119500000D01*
X87225000Y-119830000D01*
G37*
%TO.C,R14*%
X87209100Y-126491276D02*
X87209100Y-127000724D01*
X88254100Y-126491276D02*
X88254100Y-127000724D01*
%TO.C,R12*%
X118150808Y-133814682D02*
X118150808Y-135268810D01*
X119970808Y-133814682D02*
X119970808Y-135268810D01*
%TO.C,R8*%
X81331524Y-113904500D02*
X80822076Y-113904500D01*
X81331524Y-114949500D02*
X80822076Y-114949500D01*
%TD*%
D17*
X120250000Y-82622800D03*
X112750000Y-82622800D03*
X120250000Y-77582800D03*
X112750000Y-77582800D03*
X120250000Y-87662800D03*
X112750000Y-87662800D03*
X120250000Y-62322800D03*
X112750000Y-62322800D03*
X149000000Y-82590000D03*
X141500000Y-82590000D03*
X149000000Y-77550000D03*
X141500000Y-77550000D03*
X149000000Y-87630000D03*
X141500000Y-87630000D03*
X141500000Y-62290000D03*
X149000000Y-62290000D03*
X73152000Y-81026000D03*
X73152000Y-75946000D03*
X130490808Y-132232500D03*
X133030808Y-129692500D03*
X127950808Y-129692500D03*
X133030808Y-134772500D03*
X127950808Y-134772500D03*
X154300000Y-96000000D03*
X70600000Y-121850000D03*
X70600000Y-119350000D03*
X70600000Y-116850000D03*
X70600000Y-114350000D03*
X70600000Y-111850000D03*
X70600000Y-109350000D03*
X70600000Y-106850000D03*
X70600000Y-104350000D03*
X101727000Y-76200000D03*
X99187000Y-73660000D03*
X99187000Y-78740000D03*
X104267000Y-73660000D03*
X104267000Y-78740000D03*
X83075000Y-130096000D03*
X80535000Y-130096000D03*
X77995000Y-130096000D03*
X112969808Y-132232500D03*
X110429808Y-129692500D03*
X110429808Y-134772500D03*
X115509808Y-129692500D03*
X115509808Y-134772500D03*
X154300000Y-82550000D03*
X120250000Y-93250000D03*
X120250000Y-112250000D03*
X110250000Y-111750000D03*
X110250000Y-93750000D03*
X102250000Y-95500000D03*
X83250000Y-95500000D03*
X83750000Y-85500000D03*
X101750000Y-85500000D03*
M02*
